G04 #@! TF.GenerationSoftware,KiCad,Pcbnew,5.1.2-f72e74a~84~ubuntu18.04.1*
G04 #@! TF.CreationDate,2020-01-10T04:29:40+01:00*
G04 #@! TF.ProjectId,BridgeElectrobot,42726964-6765-4456-9c65-6374726f626f,1.0*
G04 #@! TF.SameCoordinates,Original*
G04 #@! TF.FileFunction,Paste,Bot*
G04 #@! TF.FilePolarity,Positive*
%FSLAX46Y46*%
G04 Gerber Fmt 4.6, Leading zero omitted, Abs format (unit mm)*
G04 Created by KiCad (PCBNEW 5.1.2-f72e74a~84~ubuntu18.04.1) date 2020-01-10 04:29:40*
%MOMM*%
%LPD*%
G04 APERTURE LIST*
%ADD10C,0.100000*%
%ADD11C,1.250000*%
G04 APERTURE END LIST*
D10*
G36*
X118886504Y-94372204D02*
G01*
X118910773Y-94375804D01*
X118934571Y-94381765D01*
X118957671Y-94390030D01*
X118979849Y-94400520D01*
X119000893Y-94413133D01*
X119020598Y-94427747D01*
X119038777Y-94444223D01*
X119055253Y-94462402D01*
X119069867Y-94482107D01*
X119082480Y-94503151D01*
X119092970Y-94525329D01*
X119101235Y-94548429D01*
X119107196Y-94572227D01*
X119110796Y-94596496D01*
X119112000Y-94621000D01*
X119112000Y-95371000D01*
X119110796Y-95395504D01*
X119107196Y-95419773D01*
X119101235Y-95443571D01*
X119092970Y-95466671D01*
X119082480Y-95488849D01*
X119069867Y-95509893D01*
X119055253Y-95529598D01*
X119038777Y-95547777D01*
X119020598Y-95564253D01*
X119000893Y-95578867D01*
X118979849Y-95591480D01*
X118957671Y-95601970D01*
X118934571Y-95610235D01*
X118910773Y-95616196D01*
X118886504Y-95619796D01*
X118862000Y-95621000D01*
X117612000Y-95621000D01*
X117587496Y-95619796D01*
X117563227Y-95616196D01*
X117539429Y-95610235D01*
X117516329Y-95601970D01*
X117494151Y-95591480D01*
X117473107Y-95578867D01*
X117453402Y-95564253D01*
X117435223Y-95547777D01*
X117418747Y-95529598D01*
X117404133Y-95509893D01*
X117391520Y-95488849D01*
X117381030Y-95466671D01*
X117372765Y-95443571D01*
X117366804Y-95419773D01*
X117363204Y-95395504D01*
X117362000Y-95371000D01*
X117362000Y-94621000D01*
X117363204Y-94596496D01*
X117366804Y-94572227D01*
X117372765Y-94548429D01*
X117381030Y-94525329D01*
X117391520Y-94503151D01*
X117404133Y-94482107D01*
X117418747Y-94462402D01*
X117435223Y-94444223D01*
X117453402Y-94427747D01*
X117473107Y-94413133D01*
X117494151Y-94400520D01*
X117516329Y-94390030D01*
X117539429Y-94381765D01*
X117563227Y-94375804D01*
X117587496Y-94372204D01*
X117612000Y-94371000D01*
X118862000Y-94371000D01*
X118886504Y-94372204D01*
X118886504Y-94372204D01*
G37*
D11*
X118237000Y-94996000D03*
D10*
G36*
X118886504Y-91572204D02*
G01*
X118910773Y-91575804D01*
X118934571Y-91581765D01*
X118957671Y-91590030D01*
X118979849Y-91600520D01*
X119000893Y-91613133D01*
X119020598Y-91627747D01*
X119038777Y-91644223D01*
X119055253Y-91662402D01*
X119069867Y-91682107D01*
X119082480Y-91703151D01*
X119092970Y-91725329D01*
X119101235Y-91748429D01*
X119107196Y-91772227D01*
X119110796Y-91796496D01*
X119112000Y-91821000D01*
X119112000Y-92571000D01*
X119110796Y-92595504D01*
X119107196Y-92619773D01*
X119101235Y-92643571D01*
X119092970Y-92666671D01*
X119082480Y-92688849D01*
X119069867Y-92709893D01*
X119055253Y-92729598D01*
X119038777Y-92747777D01*
X119020598Y-92764253D01*
X119000893Y-92778867D01*
X118979849Y-92791480D01*
X118957671Y-92801970D01*
X118934571Y-92810235D01*
X118910773Y-92816196D01*
X118886504Y-92819796D01*
X118862000Y-92821000D01*
X117612000Y-92821000D01*
X117587496Y-92819796D01*
X117563227Y-92816196D01*
X117539429Y-92810235D01*
X117516329Y-92801970D01*
X117494151Y-92791480D01*
X117473107Y-92778867D01*
X117453402Y-92764253D01*
X117435223Y-92747777D01*
X117418747Y-92729598D01*
X117404133Y-92709893D01*
X117391520Y-92688849D01*
X117381030Y-92666671D01*
X117372765Y-92643571D01*
X117366804Y-92619773D01*
X117363204Y-92595504D01*
X117362000Y-92571000D01*
X117362000Y-91821000D01*
X117363204Y-91796496D01*
X117366804Y-91772227D01*
X117372765Y-91748429D01*
X117381030Y-91725329D01*
X117391520Y-91703151D01*
X117404133Y-91682107D01*
X117418747Y-91662402D01*
X117435223Y-91644223D01*
X117453402Y-91627747D01*
X117473107Y-91613133D01*
X117494151Y-91600520D01*
X117516329Y-91590030D01*
X117539429Y-91581765D01*
X117563227Y-91575804D01*
X117587496Y-91572204D01*
X117612000Y-91571000D01*
X118862000Y-91571000D01*
X118886504Y-91572204D01*
X118886504Y-91572204D01*
G37*
D11*
X118237000Y-92196000D03*
D10*
G36*
X141746504Y-103014204D02*
G01*
X141770773Y-103017804D01*
X141794571Y-103023765D01*
X141817671Y-103032030D01*
X141839849Y-103042520D01*
X141860893Y-103055133D01*
X141880598Y-103069747D01*
X141898777Y-103086223D01*
X141915253Y-103104402D01*
X141929867Y-103124107D01*
X141942480Y-103145151D01*
X141952970Y-103167329D01*
X141961235Y-103190429D01*
X141967196Y-103214227D01*
X141970796Y-103238496D01*
X141972000Y-103263000D01*
X141972000Y-104013000D01*
X141970796Y-104037504D01*
X141967196Y-104061773D01*
X141961235Y-104085571D01*
X141952970Y-104108671D01*
X141942480Y-104130849D01*
X141929867Y-104151893D01*
X141915253Y-104171598D01*
X141898777Y-104189777D01*
X141880598Y-104206253D01*
X141860893Y-104220867D01*
X141839849Y-104233480D01*
X141817671Y-104243970D01*
X141794571Y-104252235D01*
X141770773Y-104258196D01*
X141746504Y-104261796D01*
X141722000Y-104263000D01*
X140472000Y-104263000D01*
X140447496Y-104261796D01*
X140423227Y-104258196D01*
X140399429Y-104252235D01*
X140376329Y-104243970D01*
X140354151Y-104233480D01*
X140333107Y-104220867D01*
X140313402Y-104206253D01*
X140295223Y-104189777D01*
X140278747Y-104171598D01*
X140264133Y-104151893D01*
X140251520Y-104130849D01*
X140241030Y-104108671D01*
X140232765Y-104085571D01*
X140226804Y-104061773D01*
X140223204Y-104037504D01*
X140222000Y-104013000D01*
X140222000Y-103263000D01*
X140223204Y-103238496D01*
X140226804Y-103214227D01*
X140232765Y-103190429D01*
X140241030Y-103167329D01*
X140251520Y-103145151D01*
X140264133Y-103124107D01*
X140278747Y-103104402D01*
X140295223Y-103086223D01*
X140313402Y-103069747D01*
X140333107Y-103055133D01*
X140354151Y-103042520D01*
X140376329Y-103032030D01*
X140399429Y-103023765D01*
X140423227Y-103017804D01*
X140447496Y-103014204D01*
X140472000Y-103013000D01*
X141722000Y-103013000D01*
X141746504Y-103014204D01*
X141746504Y-103014204D01*
G37*
D11*
X141097000Y-103638000D03*
D10*
G36*
X141746504Y-100214204D02*
G01*
X141770773Y-100217804D01*
X141794571Y-100223765D01*
X141817671Y-100232030D01*
X141839849Y-100242520D01*
X141860893Y-100255133D01*
X141880598Y-100269747D01*
X141898777Y-100286223D01*
X141915253Y-100304402D01*
X141929867Y-100324107D01*
X141942480Y-100345151D01*
X141952970Y-100367329D01*
X141961235Y-100390429D01*
X141967196Y-100414227D01*
X141970796Y-100438496D01*
X141972000Y-100463000D01*
X141972000Y-101213000D01*
X141970796Y-101237504D01*
X141967196Y-101261773D01*
X141961235Y-101285571D01*
X141952970Y-101308671D01*
X141942480Y-101330849D01*
X141929867Y-101351893D01*
X141915253Y-101371598D01*
X141898777Y-101389777D01*
X141880598Y-101406253D01*
X141860893Y-101420867D01*
X141839849Y-101433480D01*
X141817671Y-101443970D01*
X141794571Y-101452235D01*
X141770773Y-101458196D01*
X141746504Y-101461796D01*
X141722000Y-101463000D01*
X140472000Y-101463000D01*
X140447496Y-101461796D01*
X140423227Y-101458196D01*
X140399429Y-101452235D01*
X140376329Y-101443970D01*
X140354151Y-101433480D01*
X140333107Y-101420867D01*
X140313402Y-101406253D01*
X140295223Y-101389777D01*
X140278747Y-101371598D01*
X140264133Y-101351893D01*
X140251520Y-101330849D01*
X140241030Y-101308671D01*
X140232765Y-101285571D01*
X140226804Y-101261773D01*
X140223204Y-101237504D01*
X140222000Y-101213000D01*
X140222000Y-100463000D01*
X140223204Y-100438496D01*
X140226804Y-100414227D01*
X140232765Y-100390429D01*
X140241030Y-100367329D01*
X140251520Y-100345151D01*
X140264133Y-100324107D01*
X140278747Y-100304402D01*
X140295223Y-100286223D01*
X140313402Y-100269747D01*
X140333107Y-100255133D01*
X140354151Y-100242520D01*
X140376329Y-100232030D01*
X140399429Y-100223765D01*
X140423227Y-100217804D01*
X140447496Y-100214204D01*
X140472000Y-100213000D01*
X141722000Y-100213000D01*
X141746504Y-100214204D01*
X141746504Y-100214204D01*
G37*
D11*
X141097000Y-100838000D03*
D10*
G36*
X127780504Y-96281204D02*
G01*
X127804773Y-96284804D01*
X127828571Y-96290765D01*
X127851671Y-96299030D01*
X127873849Y-96309520D01*
X127894893Y-96322133D01*
X127914598Y-96336747D01*
X127932777Y-96353223D01*
X127949253Y-96371402D01*
X127963867Y-96391107D01*
X127976480Y-96412151D01*
X127986970Y-96434329D01*
X127995235Y-96457429D01*
X128001196Y-96481227D01*
X128004796Y-96505496D01*
X128006000Y-96530000D01*
X128006000Y-97780000D01*
X128004796Y-97804504D01*
X128001196Y-97828773D01*
X127995235Y-97852571D01*
X127986970Y-97875671D01*
X127976480Y-97897849D01*
X127963867Y-97918893D01*
X127949253Y-97938598D01*
X127932777Y-97956777D01*
X127914598Y-97973253D01*
X127894893Y-97987867D01*
X127873849Y-98000480D01*
X127851671Y-98010970D01*
X127828571Y-98019235D01*
X127804773Y-98025196D01*
X127780504Y-98028796D01*
X127756000Y-98030000D01*
X127006000Y-98030000D01*
X126981496Y-98028796D01*
X126957227Y-98025196D01*
X126933429Y-98019235D01*
X126910329Y-98010970D01*
X126888151Y-98000480D01*
X126867107Y-97987867D01*
X126847402Y-97973253D01*
X126829223Y-97956777D01*
X126812747Y-97938598D01*
X126798133Y-97918893D01*
X126785520Y-97897849D01*
X126775030Y-97875671D01*
X126766765Y-97852571D01*
X126760804Y-97828773D01*
X126757204Y-97804504D01*
X126756000Y-97780000D01*
X126756000Y-96530000D01*
X126757204Y-96505496D01*
X126760804Y-96481227D01*
X126766765Y-96457429D01*
X126775030Y-96434329D01*
X126785520Y-96412151D01*
X126798133Y-96391107D01*
X126812747Y-96371402D01*
X126829223Y-96353223D01*
X126847402Y-96336747D01*
X126867107Y-96322133D01*
X126888151Y-96309520D01*
X126910329Y-96299030D01*
X126933429Y-96290765D01*
X126957227Y-96284804D01*
X126981496Y-96281204D01*
X127006000Y-96280000D01*
X127756000Y-96280000D01*
X127780504Y-96281204D01*
X127780504Y-96281204D01*
G37*
D11*
X127381000Y-97155000D03*
D10*
G36*
X130580504Y-96281204D02*
G01*
X130604773Y-96284804D01*
X130628571Y-96290765D01*
X130651671Y-96299030D01*
X130673849Y-96309520D01*
X130694893Y-96322133D01*
X130714598Y-96336747D01*
X130732777Y-96353223D01*
X130749253Y-96371402D01*
X130763867Y-96391107D01*
X130776480Y-96412151D01*
X130786970Y-96434329D01*
X130795235Y-96457429D01*
X130801196Y-96481227D01*
X130804796Y-96505496D01*
X130806000Y-96530000D01*
X130806000Y-97780000D01*
X130804796Y-97804504D01*
X130801196Y-97828773D01*
X130795235Y-97852571D01*
X130786970Y-97875671D01*
X130776480Y-97897849D01*
X130763867Y-97918893D01*
X130749253Y-97938598D01*
X130732777Y-97956777D01*
X130714598Y-97973253D01*
X130694893Y-97987867D01*
X130673849Y-98000480D01*
X130651671Y-98010970D01*
X130628571Y-98019235D01*
X130604773Y-98025196D01*
X130580504Y-98028796D01*
X130556000Y-98030000D01*
X129806000Y-98030000D01*
X129781496Y-98028796D01*
X129757227Y-98025196D01*
X129733429Y-98019235D01*
X129710329Y-98010970D01*
X129688151Y-98000480D01*
X129667107Y-97987867D01*
X129647402Y-97973253D01*
X129629223Y-97956777D01*
X129612747Y-97938598D01*
X129598133Y-97918893D01*
X129585520Y-97897849D01*
X129575030Y-97875671D01*
X129566765Y-97852571D01*
X129560804Y-97828773D01*
X129557204Y-97804504D01*
X129556000Y-97780000D01*
X129556000Y-96530000D01*
X129557204Y-96505496D01*
X129560804Y-96481227D01*
X129566765Y-96457429D01*
X129575030Y-96434329D01*
X129585520Y-96412151D01*
X129598133Y-96391107D01*
X129612747Y-96371402D01*
X129629223Y-96353223D01*
X129647402Y-96336747D01*
X129667107Y-96322133D01*
X129688151Y-96309520D01*
X129710329Y-96299030D01*
X129733429Y-96290765D01*
X129757227Y-96284804D01*
X129781496Y-96281204D01*
X129806000Y-96280000D01*
X130556000Y-96280000D01*
X130580504Y-96281204D01*
X130580504Y-96281204D01*
G37*
D11*
X130181000Y-97155000D03*
D10*
G36*
X130577504Y-99202204D02*
G01*
X130601773Y-99205804D01*
X130625571Y-99211765D01*
X130648671Y-99220030D01*
X130670849Y-99230520D01*
X130691893Y-99243133D01*
X130711598Y-99257747D01*
X130729777Y-99274223D01*
X130746253Y-99292402D01*
X130760867Y-99312107D01*
X130773480Y-99333151D01*
X130783970Y-99355329D01*
X130792235Y-99378429D01*
X130798196Y-99402227D01*
X130801796Y-99426496D01*
X130803000Y-99451000D01*
X130803000Y-100701000D01*
X130801796Y-100725504D01*
X130798196Y-100749773D01*
X130792235Y-100773571D01*
X130783970Y-100796671D01*
X130773480Y-100818849D01*
X130760867Y-100839893D01*
X130746253Y-100859598D01*
X130729777Y-100877777D01*
X130711598Y-100894253D01*
X130691893Y-100908867D01*
X130670849Y-100921480D01*
X130648671Y-100931970D01*
X130625571Y-100940235D01*
X130601773Y-100946196D01*
X130577504Y-100949796D01*
X130553000Y-100951000D01*
X129803000Y-100951000D01*
X129778496Y-100949796D01*
X129754227Y-100946196D01*
X129730429Y-100940235D01*
X129707329Y-100931970D01*
X129685151Y-100921480D01*
X129664107Y-100908867D01*
X129644402Y-100894253D01*
X129626223Y-100877777D01*
X129609747Y-100859598D01*
X129595133Y-100839893D01*
X129582520Y-100818849D01*
X129572030Y-100796671D01*
X129563765Y-100773571D01*
X129557804Y-100749773D01*
X129554204Y-100725504D01*
X129553000Y-100701000D01*
X129553000Y-99451000D01*
X129554204Y-99426496D01*
X129557804Y-99402227D01*
X129563765Y-99378429D01*
X129572030Y-99355329D01*
X129582520Y-99333151D01*
X129595133Y-99312107D01*
X129609747Y-99292402D01*
X129626223Y-99274223D01*
X129644402Y-99257747D01*
X129664107Y-99243133D01*
X129685151Y-99230520D01*
X129707329Y-99220030D01*
X129730429Y-99211765D01*
X129754227Y-99205804D01*
X129778496Y-99202204D01*
X129803000Y-99201000D01*
X130553000Y-99201000D01*
X130577504Y-99202204D01*
X130577504Y-99202204D01*
G37*
D11*
X130178000Y-100076000D03*
D10*
G36*
X127777504Y-99202204D02*
G01*
X127801773Y-99205804D01*
X127825571Y-99211765D01*
X127848671Y-99220030D01*
X127870849Y-99230520D01*
X127891893Y-99243133D01*
X127911598Y-99257747D01*
X127929777Y-99274223D01*
X127946253Y-99292402D01*
X127960867Y-99312107D01*
X127973480Y-99333151D01*
X127983970Y-99355329D01*
X127992235Y-99378429D01*
X127998196Y-99402227D01*
X128001796Y-99426496D01*
X128003000Y-99451000D01*
X128003000Y-100701000D01*
X128001796Y-100725504D01*
X127998196Y-100749773D01*
X127992235Y-100773571D01*
X127983970Y-100796671D01*
X127973480Y-100818849D01*
X127960867Y-100839893D01*
X127946253Y-100859598D01*
X127929777Y-100877777D01*
X127911598Y-100894253D01*
X127891893Y-100908867D01*
X127870849Y-100921480D01*
X127848671Y-100931970D01*
X127825571Y-100940235D01*
X127801773Y-100946196D01*
X127777504Y-100949796D01*
X127753000Y-100951000D01*
X127003000Y-100951000D01*
X126978496Y-100949796D01*
X126954227Y-100946196D01*
X126930429Y-100940235D01*
X126907329Y-100931970D01*
X126885151Y-100921480D01*
X126864107Y-100908867D01*
X126844402Y-100894253D01*
X126826223Y-100877777D01*
X126809747Y-100859598D01*
X126795133Y-100839893D01*
X126782520Y-100818849D01*
X126772030Y-100796671D01*
X126763765Y-100773571D01*
X126757804Y-100749773D01*
X126754204Y-100725504D01*
X126753000Y-100701000D01*
X126753000Y-99451000D01*
X126754204Y-99426496D01*
X126757804Y-99402227D01*
X126763765Y-99378429D01*
X126772030Y-99355329D01*
X126782520Y-99333151D01*
X126795133Y-99312107D01*
X126809747Y-99292402D01*
X126826223Y-99274223D01*
X126844402Y-99257747D01*
X126864107Y-99243133D01*
X126885151Y-99230520D01*
X126907329Y-99220030D01*
X126930429Y-99211765D01*
X126954227Y-99205804D01*
X126978496Y-99202204D01*
X127003000Y-99201000D01*
X127753000Y-99201000D01*
X127777504Y-99202204D01*
X127777504Y-99202204D01*
G37*
D11*
X127378000Y-100076000D03*
D10*
G36*
X127650504Y-106187204D02*
G01*
X127674773Y-106190804D01*
X127698571Y-106196765D01*
X127721671Y-106205030D01*
X127743849Y-106215520D01*
X127764893Y-106228133D01*
X127784598Y-106242747D01*
X127802777Y-106259223D01*
X127819253Y-106277402D01*
X127833867Y-106297107D01*
X127846480Y-106318151D01*
X127856970Y-106340329D01*
X127865235Y-106363429D01*
X127871196Y-106387227D01*
X127874796Y-106411496D01*
X127876000Y-106436000D01*
X127876000Y-107686000D01*
X127874796Y-107710504D01*
X127871196Y-107734773D01*
X127865235Y-107758571D01*
X127856970Y-107781671D01*
X127846480Y-107803849D01*
X127833867Y-107824893D01*
X127819253Y-107844598D01*
X127802777Y-107862777D01*
X127784598Y-107879253D01*
X127764893Y-107893867D01*
X127743849Y-107906480D01*
X127721671Y-107916970D01*
X127698571Y-107925235D01*
X127674773Y-107931196D01*
X127650504Y-107934796D01*
X127626000Y-107936000D01*
X126876000Y-107936000D01*
X126851496Y-107934796D01*
X126827227Y-107931196D01*
X126803429Y-107925235D01*
X126780329Y-107916970D01*
X126758151Y-107906480D01*
X126737107Y-107893867D01*
X126717402Y-107879253D01*
X126699223Y-107862777D01*
X126682747Y-107844598D01*
X126668133Y-107824893D01*
X126655520Y-107803849D01*
X126645030Y-107781671D01*
X126636765Y-107758571D01*
X126630804Y-107734773D01*
X126627204Y-107710504D01*
X126626000Y-107686000D01*
X126626000Y-106436000D01*
X126627204Y-106411496D01*
X126630804Y-106387227D01*
X126636765Y-106363429D01*
X126645030Y-106340329D01*
X126655520Y-106318151D01*
X126668133Y-106297107D01*
X126682747Y-106277402D01*
X126699223Y-106259223D01*
X126717402Y-106242747D01*
X126737107Y-106228133D01*
X126758151Y-106215520D01*
X126780329Y-106205030D01*
X126803429Y-106196765D01*
X126827227Y-106190804D01*
X126851496Y-106187204D01*
X126876000Y-106186000D01*
X127626000Y-106186000D01*
X127650504Y-106187204D01*
X127650504Y-106187204D01*
G37*
D11*
X127251000Y-107061000D03*
D10*
G36*
X130450504Y-106187204D02*
G01*
X130474773Y-106190804D01*
X130498571Y-106196765D01*
X130521671Y-106205030D01*
X130543849Y-106215520D01*
X130564893Y-106228133D01*
X130584598Y-106242747D01*
X130602777Y-106259223D01*
X130619253Y-106277402D01*
X130633867Y-106297107D01*
X130646480Y-106318151D01*
X130656970Y-106340329D01*
X130665235Y-106363429D01*
X130671196Y-106387227D01*
X130674796Y-106411496D01*
X130676000Y-106436000D01*
X130676000Y-107686000D01*
X130674796Y-107710504D01*
X130671196Y-107734773D01*
X130665235Y-107758571D01*
X130656970Y-107781671D01*
X130646480Y-107803849D01*
X130633867Y-107824893D01*
X130619253Y-107844598D01*
X130602777Y-107862777D01*
X130584598Y-107879253D01*
X130564893Y-107893867D01*
X130543849Y-107906480D01*
X130521671Y-107916970D01*
X130498571Y-107925235D01*
X130474773Y-107931196D01*
X130450504Y-107934796D01*
X130426000Y-107936000D01*
X129676000Y-107936000D01*
X129651496Y-107934796D01*
X129627227Y-107931196D01*
X129603429Y-107925235D01*
X129580329Y-107916970D01*
X129558151Y-107906480D01*
X129537107Y-107893867D01*
X129517402Y-107879253D01*
X129499223Y-107862777D01*
X129482747Y-107844598D01*
X129468133Y-107824893D01*
X129455520Y-107803849D01*
X129445030Y-107781671D01*
X129436765Y-107758571D01*
X129430804Y-107734773D01*
X129427204Y-107710504D01*
X129426000Y-107686000D01*
X129426000Y-106436000D01*
X129427204Y-106411496D01*
X129430804Y-106387227D01*
X129436765Y-106363429D01*
X129445030Y-106340329D01*
X129455520Y-106318151D01*
X129468133Y-106297107D01*
X129482747Y-106277402D01*
X129499223Y-106259223D01*
X129517402Y-106242747D01*
X129537107Y-106228133D01*
X129558151Y-106215520D01*
X129580329Y-106205030D01*
X129603429Y-106196765D01*
X129627227Y-106190804D01*
X129651496Y-106187204D01*
X129676000Y-106186000D01*
X130426000Y-106186000D01*
X130450504Y-106187204D01*
X130450504Y-106187204D01*
G37*
D11*
X130051000Y-107061000D03*
D10*
G36*
X141746504Y-89927204D02*
G01*
X141770773Y-89930804D01*
X141794571Y-89936765D01*
X141817671Y-89945030D01*
X141839849Y-89955520D01*
X141860893Y-89968133D01*
X141880598Y-89982747D01*
X141898777Y-89999223D01*
X141915253Y-90017402D01*
X141929867Y-90037107D01*
X141942480Y-90058151D01*
X141952970Y-90080329D01*
X141961235Y-90103429D01*
X141967196Y-90127227D01*
X141970796Y-90151496D01*
X141972000Y-90176000D01*
X141972000Y-90926000D01*
X141970796Y-90950504D01*
X141967196Y-90974773D01*
X141961235Y-90998571D01*
X141952970Y-91021671D01*
X141942480Y-91043849D01*
X141929867Y-91064893D01*
X141915253Y-91084598D01*
X141898777Y-91102777D01*
X141880598Y-91119253D01*
X141860893Y-91133867D01*
X141839849Y-91146480D01*
X141817671Y-91156970D01*
X141794571Y-91165235D01*
X141770773Y-91171196D01*
X141746504Y-91174796D01*
X141722000Y-91176000D01*
X140472000Y-91176000D01*
X140447496Y-91174796D01*
X140423227Y-91171196D01*
X140399429Y-91165235D01*
X140376329Y-91156970D01*
X140354151Y-91146480D01*
X140333107Y-91133867D01*
X140313402Y-91119253D01*
X140295223Y-91102777D01*
X140278747Y-91084598D01*
X140264133Y-91064893D01*
X140251520Y-91043849D01*
X140241030Y-91021671D01*
X140232765Y-90998571D01*
X140226804Y-90974773D01*
X140223204Y-90950504D01*
X140222000Y-90926000D01*
X140222000Y-90176000D01*
X140223204Y-90151496D01*
X140226804Y-90127227D01*
X140232765Y-90103429D01*
X140241030Y-90080329D01*
X140251520Y-90058151D01*
X140264133Y-90037107D01*
X140278747Y-90017402D01*
X140295223Y-89999223D01*
X140313402Y-89982747D01*
X140333107Y-89968133D01*
X140354151Y-89955520D01*
X140376329Y-89945030D01*
X140399429Y-89936765D01*
X140423227Y-89930804D01*
X140447496Y-89927204D01*
X140472000Y-89926000D01*
X141722000Y-89926000D01*
X141746504Y-89927204D01*
X141746504Y-89927204D01*
G37*
D11*
X141097000Y-90551000D03*
D10*
G36*
X141746504Y-92727204D02*
G01*
X141770773Y-92730804D01*
X141794571Y-92736765D01*
X141817671Y-92745030D01*
X141839849Y-92755520D01*
X141860893Y-92768133D01*
X141880598Y-92782747D01*
X141898777Y-92799223D01*
X141915253Y-92817402D01*
X141929867Y-92837107D01*
X141942480Y-92858151D01*
X141952970Y-92880329D01*
X141961235Y-92903429D01*
X141967196Y-92927227D01*
X141970796Y-92951496D01*
X141972000Y-92976000D01*
X141972000Y-93726000D01*
X141970796Y-93750504D01*
X141967196Y-93774773D01*
X141961235Y-93798571D01*
X141952970Y-93821671D01*
X141942480Y-93843849D01*
X141929867Y-93864893D01*
X141915253Y-93884598D01*
X141898777Y-93902777D01*
X141880598Y-93919253D01*
X141860893Y-93933867D01*
X141839849Y-93946480D01*
X141817671Y-93956970D01*
X141794571Y-93965235D01*
X141770773Y-93971196D01*
X141746504Y-93974796D01*
X141722000Y-93976000D01*
X140472000Y-93976000D01*
X140447496Y-93974796D01*
X140423227Y-93971196D01*
X140399429Y-93965235D01*
X140376329Y-93956970D01*
X140354151Y-93946480D01*
X140333107Y-93933867D01*
X140313402Y-93919253D01*
X140295223Y-93902777D01*
X140278747Y-93884598D01*
X140264133Y-93864893D01*
X140251520Y-93843849D01*
X140241030Y-93821671D01*
X140232765Y-93798571D01*
X140226804Y-93774773D01*
X140223204Y-93750504D01*
X140222000Y-93726000D01*
X140222000Y-92976000D01*
X140223204Y-92951496D01*
X140226804Y-92927227D01*
X140232765Y-92903429D01*
X140241030Y-92880329D01*
X140251520Y-92858151D01*
X140264133Y-92837107D01*
X140278747Y-92817402D01*
X140295223Y-92799223D01*
X140313402Y-92782747D01*
X140333107Y-92768133D01*
X140354151Y-92755520D01*
X140376329Y-92745030D01*
X140399429Y-92736765D01*
X140423227Y-92730804D01*
X140447496Y-92727204D01*
X140472000Y-92726000D01*
X141722000Y-92726000D01*
X141746504Y-92727204D01*
X141746504Y-92727204D01*
G37*
D11*
X141097000Y-93351000D03*
D10*
G36*
X141746504Y-97804204D02*
G01*
X141770773Y-97807804D01*
X141794571Y-97813765D01*
X141817671Y-97822030D01*
X141839849Y-97832520D01*
X141860893Y-97845133D01*
X141880598Y-97859747D01*
X141898777Y-97876223D01*
X141915253Y-97894402D01*
X141929867Y-97914107D01*
X141942480Y-97935151D01*
X141952970Y-97957329D01*
X141961235Y-97980429D01*
X141967196Y-98004227D01*
X141970796Y-98028496D01*
X141972000Y-98053000D01*
X141972000Y-98803000D01*
X141970796Y-98827504D01*
X141967196Y-98851773D01*
X141961235Y-98875571D01*
X141952970Y-98898671D01*
X141942480Y-98920849D01*
X141929867Y-98941893D01*
X141915253Y-98961598D01*
X141898777Y-98979777D01*
X141880598Y-98996253D01*
X141860893Y-99010867D01*
X141839849Y-99023480D01*
X141817671Y-99033970D01*
X141794571Y-99042235D01*
X141770773Y-99048196D01*
X141746504Y-99051796D01*
X141722000Y-99053000D01*
X140472000Y-99053000D01*
X140447496Y-99051796D01*
X140423227Y-99048196D01*
X140399429Y-99042235D01*
X140376329Y-99033970D01*
X140354151Y-99023480D01*
X140333107Y-99010867D01*
X140313402Y-98996253D01*
X140295223Y-98979777D01*
X140278747Y-98961598D01*
X140264133Y-98941893D01*
X140251520Y-98920849D01*
X140241030Y-98898671D01*
X140232765Y-98875571D01*
X140226804Y-98851773D01*
X140223204Y-98827504D01*
X140222000Y-98803000D01*
X140222000Y-98053000D01*
X140223204Y-98028496D01*
X140226804Y-98004227D01*
X140232765Y-97980429D01*
X140241030Y-97957329D01*
X140251520Y-97935151D01*
X140264133Y-97914107D01*
X140278747Y-97894402D01*
X140295223Y-97876223D01*
X140313402Y-97859747D01*
X140333107Y-97845133D01*
X140354151Y-97832520D01*
X140376329Y-97822030D01*
X140399429Y-97813765D01*
X140423227Y-97807804D01*
X140447496Y-97804204D01*
X140472000Y-97803000D01*
X141722000Y-97803000D01*
X141746504Y-97804204D01*
X141746504Y-97804204D01*
G37*
D11*
X141097000Y-98428000D03*
D10*
G36*
X141746504Y-95004204D02*
G01*
X141770773Y-95007804D01*
X141794571Y-95013765D01*
X141817671Y-95022030D01*
X141839849Y-95032520D01*
X141860893Y-95045133D01*
X141880598Y-95059747D01*
X141898777Y-95076223D01*
X141915253Y-95094402D01*
X141929867Y-95114107D01*
X141942480Y-95135151D01*
X141952970Y-95157329D01*
X141961235Y-95180429D01*
X141967196Y-95204227D01*
X141970796Y-95228496D01*
X141972000Y-95253000D01*
X141972000Y-96003000D01*
X141970796Y-96027504D01*
X141967196Y-96051773D01*
X141961235Y-96075571D01*
X141952970Y-96098671D01*
X141942480Y-96120849D01*
X141929867Y-96141893D01*
X141915253Y-96161598D01*
X141898777Y-96179777D01*
X141880598Y-96196253D01*
X141860893Y-96210867D01*
X141839849Y-96223480D01*
X141817671Y-96233970D01*
X141794571Y-96242235D01*
X141770773Y-96248196D01*
X141746504Y-96251796D01*
X141722000Y-96253000D01*
X140472000Y-96253000D01*
X140447496Y-96251796D01*
X140423227Y-96248196D01*
X140399429Y-96242235D01*
X140376329Y-96233970D01*
X140354151Y-96223480D01*
X140333107Y-96210867D01*
X140313402Y-96196253D01*
X140295223Y-96179777D01*
X140278747Y-96161598D01*
X140264133Y-96141893D01*
X140251520Y-96120849D01*
X140241030Y-96098671D01*
X140232765Y-96075571D01*
X140226804Y-96051773D01*
X140223204Y-96027504D01*
X140222000Y-96003000D01*
X140222000Y-95253000D01*
X140223204Y-95228496D01*
X140226804Y-95204227D01*
X140232765Y-95180429D01*
X140241030Y-95157329D01*
X140251520Y-95135151D01*
X140264133Y-95114107D01*
X140278747Y-95094402D01*
X140295223Y-95076223D01*
X140313402Y-95059747D01*
X140333107Y-95045133D01*
X140354151Y-95032520D01*
X140376329Y-95022030D01*
X140399429Y-95013765D01*
X140423227Y-95007804D01*
X140447496Y-95004204D01*
X140472000Y-95003000D01*
X141722000Y-95003000D01*
X141746504Y-95004204D01*
X141746504Y-95004204D01*
G37*
D11*
X141097000Y-95628000D03*
D10*
G36*
X151398504Y-100471204D02*
G01*
X151422773Y-100474804D01*
X151446571Y-100480765D01*
X151469671Y-100489030D01*
X151491849Y-100499520D01*
X151512893Y-100512133D01*
X151532598Y-100526747D01*
X151550777Y-100543223D01*
X151567253Y-100561402D01*
X151581867Y-100581107D01*
X151594480Y-100602151D01*
X151604970Y-100624329D01*
X151613235Y-100647429D01*
X151619196Y-100671227D01*
X151622796Y-100695496D01*
X151624000Y-100720000D01*
X151624000Y-101470000D01*
X151622796Y-101494504D01*
X151619196Y-101518773D01*
X151613235Y-101542571D01*
X151604970Y-101565671D01*
X151594480Y-101587849D01*
X151581867Y-101608893D01*
X151567253Y-101628598D01*
X151550777Y-101646777D01*
X151532598Y-101663253D01*
X151512893Y-101677867D01*
X151491849Y-101690480D01*
X151469671Y-101700970D01*
X151446571Y-101709235D01*
X151422773Y-101715196D01*
X151398504Y-101718796D01*
X151374000Y-101720000D01*
X150124000Y-101720000D01*
X150099496Y-101718796D01*
X150075227Y-101715196D01*
X150051429Y-101709235D01*
X150028329Y-101700970D01*
X150006151Y-101690480D01*
X149985107Y-101677867D01*
X149965402Y-101663253D01*
X149947223Y-101646777D01*
X149930747Y-101628598D01*
X149916133Y-101608893D01*
X149903520Y-101587849D01*
X149893030Y-101565671D01*
X149884765Y-101542571D01*
X149878804Y-101518773D01*
X149875204Y-101494504D01*
X149874000Y-101470000D01*
X149874000Y-100720000D01*
X149875204Y-100695496D01*
X149878804Y-100671227D01*
X149884765Y-100647429D01*
X149893030Y-100624329D01*
X149903520Y-100602151D01*
X149916133Y-100581107D01*
X149930747Y-100561402D01*
X149947223Y-100543223D01*
X149965402Y-100526747D01*
X149985107Y-100512133D01*
X150006151Y-100499520D01*
X150028329Y-100489030D01*
X150051429Y-100480765D01*
X150075227Y-100474804D01*
X150099496Y-100471204D01*
X150124000Y-100470000D01*
X151374000Y-100470000D01*
X151398504Y-100471204D01*
X151398504Y-100471204D01*
G37*
D11*
X150749000Y-101095000D03*
D10*
G36*
X151398504Y-97671204D02*
G01*
X151422773Y-97674804D01*
X151446571Y-97680765D01*
X151469671Y-97689030D01*
X151491849Y-97699520D01*
X151512893Y-97712133D01*
X151532598Y-97726747D01*
X151550777Y-97743223D01*
X151567253Y-97761402D01*
X151581867Y-97781107D01*
X151594480Y-97802151D01*
X151604970Y-97824329D01*
X151613235Y-97847429D01*
X151619196Y-97871227D01*
X151622796Y-97895496D01*
X151624000Y-97920000D01*
X151624000Y-98670000D01*
X151622796Y-98694504D01*
X151619196Y-98718773D01*
X151613235Y-98742571D01*
X151604970Y-98765671D01*
X151594480Y-98787849D01*
X151581867Y-98808893D01*
X151567253Y-98828598D01*
X151550777Y-98846777D01*
X151532598Y-98863253D01*
X151512893Y-98877867D01*
X151491849Y-98890480D01*
X151469671Y-98900970D01*
X151446571Y-98909235D01*
X151422773Y-98915196D01*
X151398504Y-98918796D01*
X151374000Y-98920000D01*
X150124000Y-98920000D01*
X150099496Y-98918796D01*
X150075227Y-98915196D01*
X150051429Y-98909235D01*
X150028329Y-98900970D01*
X150006151Y-98890480D01*
X149985107Y-98877867D01*
X149965402Y-98863253D01*
X149947223Y-98846777D01*
X149930747Y-98828598D01*
X149916133Y-98808893D01*
X149903520Y-98787849D01*
X149893030Y-98765671D01*
X149884765Y-98742571D01*
X149878804Y-98718773D01*
X149875204Y-98694504D01*
X149874000Y-98670000D01*
X149874000Y-97920000D01*
X149875204Y-97895496D01*
X149878804Y-97871227D01*
X149884765Y-97847429D01*
X149893030Y-97824329D01*
X149903520Y-97802151D01*
X149916133Y-97781107D01*
X149930747Y-97761402D01*
X149947223Y-97743223D01*
X149965402Y-97726747D01*
X149985107Y-97712133D01*
X150006151Y-97699520D01*
X150028329Y-97689030D01*
X150051429Y-97680765D01*
X150075227Y-97674804D01*
X150099496Y-97671204D01*
X150124000Y-97670000D01*
X151374000Y-97670000D01*
X151398504Y-97671204D01*
X151398504Y-97671204D01*
G37*
D11*
X150749000Y-98295000D03*
M02*
