G04 #@! TF.GenerationSoftware,KiCad,Pcbnew,5.1.2-f72e74a~84~ubuntu18.04.1*
G04 #@! TF.CreationDate,2020-01-10T04:29:40+01:00*
G04 #@! TF.ProjectId,BridgeElectrobot,42726964-6765-4456-9c65-6374726f626f,1.0*
G04 #@! TF.SameCoordinates,Original*
G04 #@! TF.FileFunction,Copper,L1,Top*
G04 #@! TF.FilePolarity,Positive*
%FSLAX46Y46*%
G04 Gerber Fmt 4.6, Leading zero omitted, Abs format (unit mm)*
G04 Created by KiCad (PCBNEW 5.1.2-f72e74a~84~ubuntu18.04.1) date 2020-01-10 04:29:40*
%MOMM*%
%LPD*%
G04 APERTURE LIST*
%ADD10C,1.600000*%
%ADD11C,0.100000*%
%ADD12C,1.250000*%
%ADD13C,1.740000*%
%ADD14O,2.200000X1.740000*%
%ADD15C,3.000000*%
%ADD16R,3.000000X3.000000*%
%ADD17C,1.500000*%
%ADD18C,0.600000*%
%ADD19C,6.400000*%
%ADD20C,0.400000*%
%ADD21C,0.800000*%
%ADD22C,3.000000*%
%ADD23C,0.500000*%
%ADD24C,0.750000*%
%ADD25C,1.000000*%
%ADD26C,0.254000*%
G04 APERTURE END LIST*
D10*
X122936000Y-94051000D03*
X122936000Y-90551000D03*
D11*
G36*
X151398504Y-102624204D02*
G01*
X151422773Y-102627804D01*
X151446571Y-102633765D01*
X151469671Y-102642030D01*
X151491849Y-102652520D01*
X151512893Y-102665133D01*
X151532598Y-102679747D01*
X151550777Y-102696223D01*
X151567253Y-102714402D01*
X151581867Y-102734107D01*
X151594480Y-102755151D01*
X151604970Y-102777329D01*
X151613235Y-102800429D01*
X151619196Y-102824227D01*
X151622796Y-102848496D01*
X151624000Y-102873000D01*
X151624000Y-103623000D01*
X151622796Y-103647504D01*
X151619196Y-103671773D01*
X151613235Y-103695571D01*
X151604970Y-103718671D01*
X151594480Y-103740849D01*
X151581867Y-103761893D01*
X151567253Y-103781598D01*
X151550777Y-103799777D01*
X151532598Y-103816253D01*
X151512893Y-103830867D01*
X151491849Y-103843480D01*
X151469671Y-103853970D01*
X151446571Y-103862235D01*
X151422773Y-103868196D01*
X151398504Y-103871796D01*
X151374000Y-103873000D01*
X150124000Y-103873000D01*
X150099496Y-103871796D01*
X150075227Y-103868196D01*
X150051429Y-103862235D01*
X150028329Y-103853970D01*
X150006151Y-103843480D01*
X149985107Y-103830867D01*
X149965402Y-103816253D01*
X149947223Y-103799777D01*
X149930747Y-103781598D01*
X149916133Y-103761893D01*
X149903520Y-103740849D01*
X149893030Y-103718671D01*
X149884765Y-103695571D01*
X149878804Y-103671773D01*
X149875204Y-103647504D01*
X149874000Y-103623000D01*
X149874000Y-102873000D01*
X149875204Y-102848496D01*
X149878804Y-102824227D01*
X149884765Y-102800429D01*
X149893030Y-102777329D01*
X149903520Y-102755151D01*
X149916133Y-102734107D01*
X149930747Y-102714402D01*
X149947223Y-102696223D01*
X149965402Y-102679747D01*
X149985107Y-102665133D01*
X150006151Y-102652520D01*
X150028329Y-102642030D01*
X150051429Y-102633765D01*
X150075227Y-102627804D01*
X150099496Y-102624204D01*
X150124000Y-102623000D01*
X151374000Y-102623000D01*
X151398504Y-102624204D01*
X151398504Y-102624204D01*
G37*
D12*
X150749000Y-103248000D03*
D11*
G36*
X151398504Y-105424204D02*
G01*
X151422773Y-105427804D01*
X151446571Y-105433765D01*
X151469671Y-105442030D01*
X151491849Y-105452520D01*
X151512893Y-105465133D01*
X151532598Y-105479747D01*
X151550777Y-105496223D01*
X151567253Y-105514402D01*
X151581867Y-105534107D01*
X151594480Y-105555151D01*
X151604970Y-105577329D01*
X151613235Y-105600429D01*
X151619196Y-105624227D01*
X151622796Y-105648496D01*
X151624000Y-105673000D01*
X151624000Y-106423000D01*
X151622796Y-106447504D01*
X151619196Y-106471773D01*
X151613235Y-106495571D01*
X151604970Y-106518671D01*
X151594480Y-106540849D01*
X151581867Y-106561893D01*
X151567253Y-106581598D01*
X151550777Y-106599777D01*
X151532598Y-106616253D01*
X151512893Y-106630867D01*
X151491849Y-106643480D01*
X151469671Y-106653970D01*
X151446571Y-106662235D01*
X151422773Y-106668196D01*
X151398504Y-106671796D01*
X151374000Y-106673000D01*
X150124000Y-106673000D01*
X150099496Y-106671796D01*
X150075227Y-106668196D01*
X150051429Y-106662235D01*
X150028329Y-106653970D01*
X150006151Y-106643480D01*
X149985107Y-106630867D01*
X149965402Y-106616253D01*
X149947223Y-106599777D01*
X149930747Y-106581598D01*
X149916133Y-106561893D01*
X149903520Y-106540849D01*
X149893030Y-106518671D01*
X149884765Y-106495571D01*
X149878804Y-106471773D01*
X149875204Y-106447504D01*
X149874000Y-106423000D01*
X149874000Y-105673000D01*
X149875204Y-105648496D01*
X149878804Y-105624227D01*
X149884765Y-105600429D01*
X149893030Y-105577329D01*
X149903520Y-105555151D01*
X149916133Y-105534107D01*
X149930747Y-105514402D01*
X149947223Y-105496223D01*
X149965402Y-105479747D01*
X149985107Y-105465133D01*
X150006151Y-105452520D01*
X150028329Y-105442030D01*
X150051429Y-105433765D01*
X150075227Y-105427804D01*
X150099496Y-105424204D01*
X150124000Y-105423000D01*
X151374000Y-105423000D01*
X151398504Y-105424204D01*
X151398504Y-105424204D01*
G37*
D12*
X150749000Y-106048000D03*
D11*
G36*
X151398504Y-100468204D02*
G01*
X151422773Y-100471804D01*
X151446571Y-100477765D01*
X151469671Y-100486030D01*
X151491849Y-100496520D01*
X151512893Y-100509133D01*
X151532598Y-100523747D01*
X151550777Y-100540223D01*
X151567253Y-100558402D01*
X151581867Y-100578107D01*
X151594480Y-100599151D01*
X151604970Y-100621329D01*
X151613235Y-100644429D01*
X151619196Y-100668227D01*
X151622796Y-100692496D01*
X151624000Y-100717000D01*
X151624000Y-101467000D01*
X151622796Y-101491504D01*
X151619196Y-101515773D01*
X151613235Y-101539571D01*
X151604970Y-101562671D01*
X151594480Y-101584849D01*
X151581867Y-101605893D01*
X151567253Y-101625598D01*
X151550777Y-101643777D01*
X151532598Y-101660253D01*
X151512893Y-101674867D01*
X151491849Y-101687480D01*
X151469671Y-101697970D01*
X151446571Y-101706235D01*
X151422773Y-101712196D01*
X151398504Y-101715796D01*
X151374000Y-101717000D01*
X150124000Y-101717000D01*
X150099496Y-101715796D01*
X150075227Y-101712196D01*
X150051429Y-101706235D01*
X150028329Y-101697970D01*
X150006151Y-101687480D01*
X149985107Y-101674867D01*
X149965402Y-101660253D01*
X149947223Y-101643777D01*
X149930747Y-101625598D01*
X149916133Y-101605893D01*
X149903520Y-101584849D01*
X149893030Y-101562671D01*
X149884765Y-101539571D01*
X149878804Y-101515773D01*
X149875204Y-101491504D01*
X149874000Y-101467000D01*
X149874000Y-100717000D01*
X149875204Y-100692496D01*
X149878804Y-100668227D01*
X149884765Y-100644429D01*
X149893030Y-100621329D01*
X149903520Y-100599151D01*
X149916133Y-100578107D01*
X149930747Y-100558402D01*
X149947223Y-100540223D01*
X149965402Y-100523747D01*
X149985107Y-100509133D01*
X150006151Y-100496520D01*
X150028329Y-100486030D01*
X150051429Y-100477765D01*
X150075227Y-100471804D01*
X150099496Y-100468204D01*
X150124000Y-100467000D01*
X151374000Y-100467000D01*
X151398504Y-100468204D01*
X151398504Y-100468204D01*
G37*
D12*
X150749000Y-101092000D03*
D11*
G36*
X151398504Y-97668204D02*
G01*
X151422773Y-97671804D01*
X151446571Y-97677765D01*
X151469671Y-97686030D01*
X151491849Y-97696520D01*
X151512893Y-97709133D01*
X151532598Y-97723747D01*
X151550777Y-97740223D01*
X151567253Y-97758402D01*
X151581867Y-97778107D01*
X151594480Y-97799151D01*
X151604970Y-97821329D01*
X151613235Y-97844429D01*
X151619196Y-97868227D01*
X151622796Y-97892496D01*
X151624000Y-97917000D01*
X151624000Y-98667000D01*
X151622796Y-98691504D01*
X151619196Y-98715773D01*
X151613235Y-98739571D01*
X151604970Y-98762671D01*
X151594480Y-98784849D01*
X151581867Y-98805893D01*
X151567253Y-98825598D01*
X151550777Y-98843777D01*
X151532598Y-98860253D01*
X151512893Y-98874867D01*
X151491849Y-98887480D01*
X151469671Y-98897970D01*
X151446571Y-98906235D01*
X151422773Y-98912196D01*
X151398504Y-98915796D01*
X151374000Y-98917000D01*
X150124000Y-98917000D01*
X150099496Y-98915796D01*
X150075227Y-98912196D01*
X150051429Y-98906235D01*
X150028329Y-98897970D01*
X150006151Y-98887480D01*
X149985107Y-98874867D01*
X149965402Y-98860253D01*
X149947223Y-98843777D01*
X149930747Y-98825598D01*
X149916133Y-98805893D01*
X149903520Y-98784849D01*
X149893030Y-98762671D01*
X149884765Y-98739571D01*
X149878804Y-98715773D01*
X149875204Y-98691504D01*
X149874000Y-98667000D01*
X149874000Y-97917000D01*
X149875204Y-97892496D01*
X149878804Y-97868227D01*
X149884765Y-97844429D01*
X149893030Y-97821329D01*
X149903520Y-97799151D01*
X149916133Y-97778107D01*
X149930747Y-97758402D01*
X149947223Y-97740223D01*
X149965402Y-97723747D01*
X149985107Y-97709133D01*
X150006151Y-97696520D01*
X150028329Y-97686030D01*
X150051429Y-97677765D01*
X150075227Y-97671804D01*
X150099496Y-97668204D01*
X150124000Y-97667000D01*
X151374000Y-97667000D01*
X151398504Y-97668204D01*
X151398504Y-97668204D01*
G37*
D12*
X150749000Y-98292000D03*
D11*
G36*
X123556505Y-98572204D02*
G01*
X123580773Y-98575804D01*
X123604572Y-98581765D01*
X123627671Y-98590030D01*
X123649850Y-98600520D01*
X123670893Y-98613132D01*
X123690599Y-98627747D01*
X123708777Y-98644223D01*
X123725253Y-98662401D01*
X123739868Y-98682107D01*
X123752480Y-98703150D01*
X123762970Y-98725329D01*
X123771235Y-98748428D01*
X123777196Y-98772227D01*
X123780796Y-98796495D01*
X123782000Y-98820999D01*
X123782000Y-100061001D01*
X123780796Y-100085505D01*
X123777196Y-100109773D01*
X123771235Y-100133572D01*
X123762970Y-100156671D01*
X123752480Y-100178850D01*
X123739868Y-100199893D01*
X123725253Y-100219599D01*
X123708777Y-100237777D01*
X123690599Y-100254253D01*
X123670893Y-100268868D01*
X123649850Y-100281480D01*
X123627671Y-100291970D01*
X123604572Y-100300235D01*
X123580773Y-100306196D01*
X123556505Y-100309796D01*
X123532001Y-100311000D01*
X121831999Y-100311000D01*
X121807495Y-100309796D01*
X121783227Y-100306196D01*
X121759428Y-100300235D01*
X121736329Y-100291970D01*
X121714150Y-100281480D01*
X121693107Y-100268868D01*
X121673401Y-100254253D01*
X121655223Y-100237777D01*
X121638747Y-100219599D01*
X121624132Y-100199893D01*
X121611520Y-100178850D01*
X121601030Y-100156671D01*
X121592765Y-100133572D01*
X121586804Y-100109773D01*
X121583204Y-100085505D01*
X121582000Y-100061001D01*
X121582000Y-98820999D01*
X121583204Y-98796495D01*
X121586804Y-98772227D01*
X121592765Y-98748428D01*
X121601030Y-98725329D01*
X121611520Y-98703150D01*
X121624132Y-98682107D01*
X121638747Y-98662401D01*
X121655223Y-98644223D01*
X121673401Y-98627747D01*
X121693107Y-98613132D01*
X121714150Y-98600520D01*
X121736329Y-98590030D01*
X121759428Y-98581765D01*
X121783227Y-98575804D01*
X121807495Y-98572204D01*
X121831999Y-98571000D01*
X123532001Y-98571000D01*
X123556505Y-98572204D01*
X123556505Y-98572204D01*
G37*
D13*
X122682000Y-99441000D03*
D14*
X122682000Y-101981000D03*
X122682000Y-104521000D03*
X122682000Y-107061000D03*
D15*
X113538000Y-96821000D03*
D16*
X113538000Y-91821000D03*
D15*
X146177000Y-103298000D03*
D16*
X146177000Y-98298000D03*
D17*
X143637000Y-91186000D03*
D11*
G36*
X133746703Y-93299722D02*
G01*
X133761264Y-93301882D01*
X133775543Y-93305459D01*
X133789403Y-93310418D01*
X133802710Y-93316712D01*
X133815336Y-93324280D01*
X133827159Y-93333048D01*
X133838066Y-93342934D01*
X133847952Y-93353841D01*
X133856720Y-93365664D01*
X133864288Y-93378290D01*
X133870582Y-93391597D01*
X133875541Y-93405457D01*
X133879118Y-93419736D01*
X133881278Y-93434297D01*
X133882000Y-93449000D01*
X133882000Y-93749000D01*
X133881278Y-93763703D01*
X133879118Y-93778264D01*
X133875541Y-93792543D01*
X133870582Y-93806403D01*
X133864288Y-93819710D01*
X133856720Y-93832336D01*
X133847952Y-93844159D01*
X133838066Y-93855066D01*
X133827159Y-93864952D01*
X133815336Y-93873720D01*
X133802710Y-93881288D01*
X133789403Y-93887582D01*
X133775543Y-93892541D01*
X133761264Y-93896118D01*
X133746703Y-93898278D01*
X133732000Y-93899000D01*
X132082000Y-93899000D01*
X132067297Y-93898278D01*
X132052736Y-93896118D01*
X132038457Y-93892541D01*
X132024597Y-93887582D01*
X132011290Y-93881288D01*
X131998664Y-93873720D01*
X131986841Y-93864952D01*
X131975934Y-93855066D01*
X131966048Y-93844159D01*
X131957280Y-93832336D01*
X131949712Y-93819710D01*
X131943418Y-93806403D01*
X131938459Y-93792543D01*
X131934882Y-93778264D01*
X131932722Y-93763703D01*
X131932000Y-93749000D01*
X131932000Y-93449000D01*
X131932722Y-93434297D01*
X131934882Y-93419736D01*
X131938459Y-93405457D01*
X131943418Y-93391597D01*
X131949712Y-93378290D01*
X131957280Y-93365664D01*
X131966048Y-93353841D01*
X131975934Y-93342934D01*
X131986841Y-93333048D01*
X131998664Y-93324280D01*
X132011290Y-93316712D01*
X132024597Y-93310418D01*
X132038457Y-93305459D01*
X132052736Y-93301882D01*
X132067297Y-93299722D01*
X132082000Y-93299000D01*
X133732000Y-93299000D01*
X133746703Y-93299722D01*
X133746703Y-93299722D01*
G37*
D18*
X132907000Y-93599000D03*
D11*
G36*
X133746703Y-94569722D02*
G01*
X133761264Y-94571882D01*
X133775543Y-94575459D01*
X133789403Y-94580418D01*
X133802710Y-94586712D01*
X133815336Y-94594280D01*
X133827159Y-94603048D01*
X133838066Y-94612934D01*
X133847952Y-94623841D01*
X133856720Y-94635664D01*
X133864288Y-94648290D01*
X133870582Y-94661597D01*
X133875541Y-94675457D01*
X133879118Y-94689736D01*
X133881278Y-94704297D01*
X133882000Y-94719000D01*
X133882000Y-95019000D01*
X133881278Y-95033703D01*
X133879118Y-95048264D01*
X133875541Y-95062543D01*
X133870582Y-95076403D01*
X133864288Y-95089710D01*
X133856720Y-95102336D01*
X133847952Y-95114159D01*
X133838066Y-95125066D01*
X133827159Y-95134952D01*
X133815336Y-95143720D01*
X133802710Y-95151288D01*
X133789403Y-95157582D01*
X133775543Y-95162541D01*
X133761264Y-95166118D01*
X133746703Y-95168278D01*
X133732000Y-95169000D01*
X132082000Y-95169000D01*
X132067297Y-95168278D01*
X132052736Y-95166118D01*
X132038457Y-95162541D01*
X132024597Y-95157582D01*
X132011290Y-95151288D01*
X131998664Y-95143720D01*
X131986841Y-95134952D01*
X131975934Y-95125066D01*
X131966048Y-95114159D01*
X131957280Y-95102336D01*
X131949712Y-95089710D01*
X131943418Y-95076403D01*
X131938459Y-95062543D01*
X131934882Y-95048264D01*
X131932722Y-95033703D01*
X131932000Y-95019000D01*
X131932000Y-94719000D01*
X131932722Y-94704297D01*
X131934882Y-94689736D01*
X131938459Y-94675457D01*
X131943418Y-94661597D01*
X131949712Y-94648290D01*
X131957280Y-94635664D01*
X131966048Y-94623841D01*
X131975934Y-94612934D01*
X131986841Y-94603048D01*
X131998664Y-94594280D01*
X132011290Y-94586712D01*
X132024597Y-94580418D01*
X132038457Y-94575459D01*
X132052736Y-94571882D01*
X132067297Y-94569722D01*
X132082000Y-94569000D01*
X133732000Y-94569000D01*
X133746703Y-94569722D01*
X133746703Y-94569722D01*
G37*
D18*
X132907000Y-94869000D03*
D11*
G36*
X133746703Y-95839722D02*
G01*
X133761264Y-95841882D01*
X133775543Y-95845459D01*
X133789403Y-95850418D01*
X133802710Y-95856712D01*
X133815336Y-95864280D01*
X133827159Y-95873048D01*
X133838066Y-95882934D01*
X133847952Y-95893841D01*
X133856720Y-95905664D01*
X133864288Y-95918290D01*
X133870582Y-95931597D01*
X133875541Y-95945457D01*
X133879118Y-95959736D01*
X133881278Y-95974297D01*
X133882000Y-95989000D01*
X133882000Y-96289000D01*
X133881278Y-96303703D01*
X133879118Y-96318264D01*
X133875541Y-96332543D01*
X133870582Y-96346403D01*
X133864288Y-96359710D01*
X133856720Y-96372336D01*
X133847952Y-96384159D01*
X133838066Y-96395066D01*
X133827159Y-96404952D01*
X133815336Y-96413720D01*
X133802710Y-96421288D01*
X133789403Y-96427582D01*
X133775543Y-96432541D01*
X133761264Y-96436118D01*
X133746703Y-96438278D01*
X133732000Y-96439000D01*
X132082000Y-96439000D01*
X132067297Y-96438278D01*
X132052736Y-96436118D01*
X132038457Y-96432541D01*
X132024597Y-96427582D01*
X132011290Y-96421288D01*
X131998664Y-96413720D01*
X131986841Y-96404952D01*
X131975934Y-96395066D01*
X131966048Y-96384159D01*
X131957280Y-96372336D01*
X131949712Y-96359710D01*
X131943418Y-96346403D01*
X131938459Y-96332543D01*
X131934882Y-96318264D01*
X131932722Y-96303703D01*
X131932000Y-96289000D01*
X131932000Y-95989000D01*
X131932722Y-95974297D01*
X131934882Y-95959736D01*
X131938459Y-95945457D01*
X131943418Y-95931597D01*
X131949712Y-95918290D01*
X131957280Y-95905664D01*
X131966048Y-95893841D01*
X131975934Y-95882934D01*
X131986841Y-95873048D01*
X131998664Y-95864280D01*
X132011290Y-95856712D01*
X132024597Y-95850418D01*
X132038457Y-95845459D01*
X132052736Y-95841882D01*
X132067297Y-95839722D01*
X132082000Y-95839000D01*
X133732000Y-95839000D01*
X133746703Y-95839722D01*
X133746703Y-95839722D01*
G37*
D18*
X132907000Y-96139000D03*
D11*
G36*
X133746703Y-97109722D02*
G01*
X133761264Y-97111882D01*
X133775543Y-97115459D01*
X133789403Y-97120418D01*
X133802710Y-97126712D01*
X133815336Y-97134280D01*
X133827159Y-97143048D01*
X133838066Y-97152934D01*
X133847952Y-97163841D01*
X133856720Y-97175664D01*
X133864288Y-97188290D01*
X133870582Y-97201597D01*
X133875541Y-97215457D01*
X133879118Y-97229736D01*
X133881278Y-97244297D01*
X133882000Y-97259000D01*
X133882000Y-97559000D01*
X133881278Y-97573703D01*
X133879118Y-97588264D01*
X133875541Y-97602543D01*
X133870582Y-97616403D01*
X133864288Y-97629710D01*
X133856720Y-97642336D01*
X133847952Y-97654159D01*
X133838066Y-97665066D01*
X133827159Y-97674952D01*
X133815336Y-97683720D01*
X133802710Y-97691288D01*
X133789403Y-97697582D01*
X133775543Y-97702541D01*
X133761264Y-97706118D01*
X133746703Y-97708278D01*
X133732000Y-97709000D01*
X132082000Y-97709000D01*
X132067297Y-97708278D01*
X132052736Y-97706118D01*
X132038457Y-97702541D01*
X132024597Y-97697582D01*
X132011290Y-97691288D01*
X131998664Y-97683720D01*
X131986841Y-97674952D01*
X131975934Y-97665066D01*
X131966048Y-97654159D01*
X131957280Y-97642336D01*
X131949712Y-97629710D01*
X131943418Y-97616403D01*
X131938459Y-97602543D01*
X131934882Y-97588264D01*
X131932722Y-97573703D01*
X131932000Y-97559000D01*
X131932000Y-97259000D01*
X131932722Y-97244297D01*
X131934882Y-97229736D01*
X131938459Y-97215457D01*
X131943418Y-97201597D01*
X131949712Y-97188290D01*
X131957280Y-97175664D01*
X131966048Y-97163841D01*
X131975934Y-97152934D01*
X131986841Y-97143048D01*
X131998664Y-97134280D01*
X132011290Y-97126712D01*
X132024597Y-97120418D01*
X132038457Y-97115459D01*
X132052736Y-97111882D01*
X132067297Y-97109722D01*
X132082000Y-97109000D01*
X133732000Y-97109000D01*
X133746703Y-97109722D01*
X133746703Y-97109722D01*
G37*
D18*
X132907000Y-97409000D03*
D11*
G36*
X133746703Y-98379722D02*
G01*
X133761264Y-98381882D01*
X133775543Y-98385459D01*
X133789403Y-98390418D01*
X133802710Y-98396712D01*
X133815336Y-98404280D01*
X133827159Y-98413048D01*
X133838066Y-98422934D01*
X133847952Y-98433841D01*
X133856720Y-98445664D01*
X133864288Y-98458290D01*
X133870582Y-98471597D01*
X133875541Y-98485457D01*
X133879118Y-98499736D01*
X133881278Y-98514297D01*
X133882000Y-98529000D01*
X133882000Y-98829000D01*
X133881278Y-98843703D01*
X133879118Y-98858264D01*
X133875541Y-98872543D01*
X133870582Y-98886403D01*
X133864288Y-98899710D01*
X133856720Y-98912336D01*
X133847952Y-98924159D01*
X133838066Y-98935066D01*
X133827159Y-98944952D01*
X133815336Y-98953720D01*
X133802710Y-98961288D01*
X133789403Y-98967582D01*
X133775543Y-98972541D01*
X133761264Y-98976118D01*
X133746703Y-98978278D01*
X133732000Y-98979000D01*
X132082000Y-98979000D01*
X132067297Y-98978278D01*
X132052736Y-98976118D01*
X132038457Y-98972541D01*
X132024597Y-98967582D01*
X132011290Y-98961288D01*
X131998664Y-98953720D01*
X131986841Y-98944952D01*
X131975934Y-98935066D01*
X131966048Y-98924159D01*
X131957280Y-98912336D01*
X131949712Y-98899710D01*
X131943418Y-98886403D01*
X131938459Y-98872543D01*
X131934882Y-98858264D01*
X131932722Y-98843703D01*
X131932000Y-98829000D01*
X131932000Y-98529000D01*
X131932722Y-98514297D01*
X131934882Y-98499736D01*
X131938459Y-98485457D01*
X131943418Y-98471597D01*
X131949712Y-98458290D01*
X131957280Y-98445664D01*
X131966048Y-98433841D01*
X131975934Y-98422934D01*
X131986841Y-98413048D01*
X131998664Y-98404280D01*
X132011290Y-98396712D01*
X132024597Y-98390418D01*
X132038457Y-98385459D01*
X132052736Y-98381882D01*
X132067297Y-98379722D01*
X132082000Y-98379000D01*
X133732000Y-98379000D01*
X133746703Y-98379722D01*
X133746703Y-98379722D01*
G37*
D18*
X132907000Y-98679000D03*
D11*
G36*
X133746703Y-99649722D02*
G01*
X133761264Y-99651882D01*
X133775543Y-99655459D01*
X133789403Y-99660418D01*
X133802710Y-99666712D01*
X133815336Y-99674280D01*
X133827159Y-99683048D01*
X133838066Y-99692934D01*
X133847952Y-99703841D01*
X133856720Y-99715664D01*
X133864288Y-99728290D01*
X133870582Y-99741597D01*
X133875541Y-99755457D01*
X133879118Y-99769736D01*
X133881278Y-99784297D01*
X133882000Y-99799000D01*
X133882000Y-100099000D01*
X133881278Y-100113703D01*
X133879118Y-100128264D01*
X133875541Y-100142543D01*
X133870582Y-100156403D01*
X133864288Y-100169710D01*
X133856720Y-100182336D01*
X133847952Y-100194159D01*
X133838066Y-100205066D01*
X133827159Y-100214952D01*
X133815336Y-100223720D01*
X133802710Y-100231288D01*
X133789403Y-100237582D01*
X133775543Y-100242541D01*
X133761264Y-100246118D01*
X133746703Y-100248278D01*
X133732000Y-100249000D01*
X132082000Y-100249000D01*
X132067297Y-100248278D01*
X132052736Y-100246118D01*
X132038457Y-100242541D01*
X132024597Y-100237582D01*
X132011290Y-100231288D01*
X131998664Y-100223720D01*
X131986841Y-100214952D01*
X131975934Y-100205066D01*
X131966048Y-100194159D01*
X131957280Y-100182336D01*
X131949712Y-100169710D01*
X131943418Y-100156403D01*
X131938459Y-100142543D01*
X131934882Y-100128264D01*
X131932722Y-100113703D01*
X131932000Y-100099000D01*
X131932000Y-99799000D01*
X131932722Y-99784297D01*
X131934882Y-99769736D01*
X131938459Y-99755457D01*
X131943418Y-99741597D01*
X131949712Y-99728290D01*
X131957280Y-99715664D01*
X131966048Y-99703841D01*
X131975934Y-99692934D01*
X131986841Y-99683048D01*
X131998664Y-99674280D01*
X132011290Y-99666712D01*
X132024597Y-99660418D01*
X132038457Y-99655459D01*
X132052736Y-99651882D01*
X132067297Y-99649722D01*
X132082000Y-99649000D01*
X133732000Y-99649000D01*
X133746703Y-99649722D01*
X133746703Y-99649722D01*
G37*
D18*
X132907000Y-99949000D03*
D11*
G36*
X133746703Y-100919722D02*
G01*
X133761264Y-100921882D01*
X133775543Y-100925459D01*
X133789403Y-100930418D01*
X133802710Y-100936712D01*
X133815336Y-100944280D01*
X133827159Y-100953048D01*
X133838066Y-100962934D01*
X133847952Y-100973841D01*
X133856720Y-100985664D01*
X133864288Y-100998290D01*
X133870582Y-101011597D01*
X133875541Y-101025457D01*
X133879118Y-101039736D01*
X133881278Y-101054297D01*
X133882000Y-101069000D01*
X133882000Y-101369000D01*
X133881278Y-101383703D01*
X133879118Y-101398264D01*
X133875541Y-101412543D01*
X133870582Y-101426403D01*
X133864288Y-101439710D01*
X133856720Y-101452336D01*
X133847952Y-101464159D01*
X133838066Y-101475066D01*
X133827159Y-101484952D01*
X133815336Y-101493720D01*
X133802710Y-101501288D01*
X133789403Y-101507582D01*
X133775543Y-101512541D01*
X133761264Y-101516118D01*
X133746703Y-101518278D01*
X133732000Y-101519000D01*
X132082000Y-101519000D01*
X132067297Y-101518278D01*
X132052736Y-101516118D01*
X132038457Y-101512541D01*
X132024597Y-101507582D01*
X132011290Y-101501288D01*
X131998664Y-101493720D01*
X131986841Y-101484952D01*
X131975934Y-101475066D01*
X131966048Y-101464159D01*
X131957280Y-101452336D01*
X131949712Y-101439710D01*
X131943418Y-101426403D01*
X131938459Y-101412543D01*
X131934882Y-101398264D01*
X131932722Y-101383703D01*
X131932000Y-101369000D01*
X131932000Y-101069000D01*
X131932722Y-101054297D01*
X131934882Y-101039736D01*
X131938459Y-101025457D01*
X131943418Y-101011597D01*
X131949712Y-100998290D01*
X131957280Y-100985664D01*
X131966048Y-100973841D01*
X131975934Y-100962934D01*
X131986841Y-100953048D01*
X131998664Y-100944280D01*
X132011290Y-100936712D01*
X132024597Y-100930418D01*
X132038457Y-100925459D01*
X132052736Y-100921882D01*
X132067297Y-100919722D01*
X132082000Y-100919000D01*
X133732000Y-100919000D01*
X133746703Y-100919722D01*
X133746703Y-100919722D01*
G37*
D18*
X132907000Y-101219000D03*
D11*
G36*
X133746703Y-102189722D02*
G01*
X133761264Y-102191882D01*
X133775543Y-102195459D01*
X133789403Y-102200418D01*
X133802710Y-102206712D01*
X133815336Y-102214280D01*
X133827159Y-102223048D01*
X133838066Y-102232934D01*
X133847952Y-102243841D01*
X133856720Y-102255664D01*
X133864288Y-102268290D01*
X133870582Y-102281597D01*
X133875541Y-102295457D01*
X133879118Y-102309736D01*
X133881278Y-102324297D01*
X133882000Y-102339000D01*
X133882000Y-102639000D01*
X133881278Y-102653703D01*
X133879118Y-102668264D01*
X133875541Y-102682543D01*
X133870582Y-102696403D01*
X133864288Y-102709710D01*
X133856720Y-102722336D01*
X133847952Y-102734159D01*
X133838066Y-102745066D01*
X133827159Y-102754952D01*
X133815336Y-102763720D01*
X133802710Y-102771288D01*
X133789403Y-102777582D01*
X133775543Y-102782541D01*
X133761264Y-102786118D01*
X133746703Y-102788278D01*
X133732000Y-102789000D01*
X132082000Y-102789000D01*
X132067297Y-102788278D01*
X132052736Y-102786118D01*
X132038457Y-102782541D01*
X132024597Y-102777582D01*
X132011290Y-102771288D01*
X131998664Y-102763720D01*
X131986841Y-102754952D01*
X131975934Y-102745066D01*
X131966048Y-102734159D01*
X131957280Y-102722336D01*
X131949712Y-102709710D01*
X131943418Y-102696403D01*
X131938459Y-102682543D01*
X131934882Y-102668264D01*
X131932722Y-102653703D01*
X131932000Y-102639000D01*
X131932000Y-102339000D01*
X131932722Y-102324297D01*
X131934882Y-102309736D01*
X131938459Y-102295457D01*
X131943418Y-102281597D01*
X131949712Y-102268290D01*
X131957280Y-102255664D01*
X131966048Y-102243841D01*
X131975934Y-102232934D01*
X131986841Y-102223048D01*
X131998664Y-102214280D01*
X132011290Y-102206712D01*
X132024597Y-102200418D01*
X132038457Y-102195459D01*
X132052736Y-102191882D01*
X132067297Y-102189722D01*
X132082000Y-102189000D01*
X133732000Y-102189000D01*
X133746703Y-102189722D01*
X133746703Y-102189722D01*
G37*
D18*
X132907000Y-102489000D03*
D11*
G36*
X138696703Y-102189722D02*
G01*
X138711264Y-102191882D01*
X138725543Y-102195459D01*
X138739403Y-102200418D01*
X138752710Y-102206712D01*
X138765336Y-102214280D01*
X138777159Y-102223048D01*
X138788066Y-102232934D01*
X138797952Y-102243841D01*
X138806720Y-102255664D01*
X138814288Y-102268290D01*
X138820582Y-102281597D01*
X138825541Y-102295457D01*
X138829118Y-102309736D01*
X138831278Y-102324297D01*
X138832000Y-102339000D01*
X138832000Y-102639000D01*
X138831278Y-102653703D01*
X138829118Y-102668264D01*
X138825541Y-102682543D01*
X138820582Y-102696403D01*
X138814288Y-102709710D01*
X138806720Y-102722336D01*
X138797952Y-102734159D01*
X138788066Y-102745066D01*
X138777159Y-102754952D01*
X138765336Y-102763720D01*
X138752710Y-102771288D01*
X138739403Y-102777582D01*
X138725543Y-102782541D01*
X138711264Y-102786118D01*
X138696703Y-102788278D01*
X138682000Y-102789000D01*
X137032000Y-102789000D01*
X137017297Y-102788278D01*
X137002736Y-102786118D01*
X136988457Y-102782541D01*
X136974597Y-102777582D01*
X136961290Y-102771288D01*
X136948664Y-102763720D01*
X136936841Y-102754952D01*
X136925934Y-102745066D01*
X136916048Y-102734159D01*
X136907280Y-102722336D01*
X136899712Y-102709710D01*
X136893418Y-102696403D01*
X136888459Y-102682543D01*
X136884882Y-102668264D01*
X136882722Y-102653703D01*
X136882000Y-102639000D01*
X136882000Y-102339000D01*
X136882722Y-102324297D01*
X136884882Y-102309736D01*
X136888459Y-102295457D01*
X136893418Y-102281597D01*
X136899712Y-102268290D01*
X136907280Y-102255664D01*
X136916048Y-102243841D01*
X136925934Y-102232934D01*
X136936841Y-102223048D01*
X136948664Y-102214280D01*
X136961290Y-102206712D01*
X136974597Y-102200418D01*
X136988457Y-102195459D01*
X137002736Y-102191882D01*
X137017297Y-102189722D01*
X137032000Y-102189000D01*
X138682000Y-102189000D01*
X138696703Y-102189722D01*
X138696703Y-102189722D01*
G37*
D18*
X137857000Y-102489000D03*
D11*
G36*
X138696703Y-100919722D02*
G01*
X138711264Y-100921882D01*
X138725543Y-100925459D01*
X138739403Y-100930418D01*
X138752710Y-100936712D01*
X138765336Y-100944280D01*
X138777159Y-100953048D01*
X138788066Y-100962934D01*
X138797952Y-100973841D01*
X138806720Y-100985664D01*
X138814288Y-100998290D01*
X138820582Y-101011597D01*
X138825541Y-101025457D01*
X138829118Y-101039736D01*
X138831278Y-101054297D01*
X138832000Y-101069000D01*
X138832000Y-101369000D01*
X138831278Y-101383703D01*
X138829118Y-101398264D01*
X138825541Y-101412543D01*
X138820582Y-101426403D01*
X138814288Y-101439710D01*
X138806720Y-101452336D01*
X138797952Y-101464159D01*
X138788066Y-101475066D01*
X138777159Y-101484952D01*
X138765336Y-101493720D01*
X138752710Y-101501288D01*
X138739403Y-101507582D01*
X138725543Y-101512541D01*
X138711264Y-101516118D01*
X138696703Y-101518278D01*
X138682000Y-101519000D01*
X137032000Y-101519000D01*
X137017297Y-101518278D01*
X137002736Y-101516118D01*
X136988457Y-101512541D01*
X136974597Y-101507582D01*
X136961290Y-101501288D01*
X136948664Y-101493720D01*
X136936841Y-101484952D01*
X136925934Y-101475066D01*
X136916048Y-101464159D01*
X136907280Y-101452336D01*
X136899712Y-101439710D01*
X136893418Y-101426403D01*
X136888459Y-101412543D01*
X136884882Y-101398264D01*
X136882722Y-101383703D01*
X136882000Y-101369000D01*
X136882000Y-101069000D01*
X136882722Y-101054297D01*
X136884882Y-101039736D01*
X136888459Y-101025457D01*
X136893418Y-101011597D01*
X136899712Y-100998290D01*
X136907280Y-100985664D01*
X136916048Y-100973841D01*
X136925934Y-100962934D01*
X136936841Y-100953048D01*
X136948664Y-100944280D01*
X136961290Y-100936712D01*
X136974597Y-100930418D01*
X136988457Y-100925459D01*
X137002736Y-100921882D01*
X137017297Y-100919722D01*
X137032000Y-100919000D01*
X138682000Y-100919000D01*
X138696703Y-100919722D01*
X138696703Y-100919722D01*
G37*
D18*
X137857000Y-101219000D03*
D11*
G36*
X138696703Y-99649722D02*
G01*
X138711264Y-99651882D01*
X138725543Y-99655459D01*
X138739403Y-99660418D01*
X138752710Y-99666712D01*
X138765336Y-99674280D01*
X138777159Y-99683048D01*
X138788066Y-99692934D01*
X138797952Y-99703841D01*
X138806720Y-99715664D01*
X138814288Y-99728290D01*
X138820582Y-99741597D01*
X138825541Y-99755457D01*
X138829118Y-99769736D01*
X138831278Y-99784297D01*
X138832000Y-99799000D01*
X138832000Y-100099000D01*
X138831278Y-100113703D01*
X138829118Y-100128264D01*
X138825541Y-100142543D01*
X138820582Y-100156403D01*
X138814288Y-100169710D01*
X138806720Y-100182336D01*
X138797952Y-100194159D01*
X138788066Y-100205066D01*
X138777159Y-100214952D01*
X138765336Y-100223720D01*
X138752710Y-100231288D01*
X138739403Y-100237582D01*
X138725543Y-100242541D01*
X138711264Y-100246118D01*
X138696703Y-100248278D01*
X138682000Y-100249000D01*
X137032000Y-100249000D01*
X137017297Y-100248278D01*
X137002736Y-100246118D01*
X136988457Y-100242541D01*
X136974597Y-100237582D01*
X136961290Y-100231288D01*
X136948664Y-100223720D01*
X136936841Y-100214952D01*
X136925934Y-100205066D01*
X136916048Y-100194159D01*
X136907280Y-100182336D01*
X136899712Y-100169710D01*
X136893418Y-100156403D01*
X136888459Y-100142543D01*
X136884882Y-100128264D01*
X136882722Y-100113703D01*
X136882000Y-100099000D01*
X136882000Y-99799000D01*
X136882722Y-99784297D01*
X136884882Y-99769736D01*
X136888459Y-99755457D01*
X136893418Y-99741597D01*
X136899712Y-99728290D01*
X136907280Y-99715664D01*
X136916048Y-99703841D01*
X136925934Y-99692934D01*
X136936841Y-99683048D01*
X136948664Y-99674280D01*
X136961290Y-99666712D01*
X136974597Y-99660418D01*
X136988457Y-99655459D01*
X137002736Y-99651882D01*
X137017297Y-99649722D01*
X137032000Y-99649000D01*
X138682000Y-99649000D01*
X138696703Y-99649722D01*
X138696703Y-99649722D01*
G37*
D18*
X137857000Y-99949000D03*
D11*
G36*
X138696703Y-98379722D02*
G01*
X138711264Y-98381882D01*
X138725543Y-98385459D01*
X138739403Y-98390418D01*
X138752710Y-98396712D01*
X138765336Y-98404280D01*
X138777159Y-98413048D01*
X138788066Y-98422934D01*
X138797952Y-98433841D01*
X138806720Y-98445664D01*
X138814288Y-98458290D01*
X138820582Y-98471597D01*
X138825541Y-98485457D01*
X138829118Y-98499736D01*
X138831278Y-98514297D01*
X138832000Y-98529000D01*
X138832000Y-98829000D01*
X138831278Y-98843703D01*
X138829118Y-98858264D01*
X138825541Y-98872543D01*
X138820582Y-98886403D01*
X138814288Y-98899710D01*
X138806720Y-98912336D01*
X138797952Y-98924159D01*
X138788066Y-98935066D01*
X138777159Y-98944952D01*
X138765336Y-98953720D01*
X138752710Y-98961288D01*
X138739403Y-98967582D01*
X138725543Y-98972541D01*
X138711264Y-98976118D01*
X138696703Y-98978278D01*
X138682000Y-98979000D01*
X137032000Y-98979000D01*
X137017297Y-98978278D01*
X137002736Y-98976118D01*
X136988457Y-98972541D01*
X136974597Y-98967582D01*
X136961290Y-98961288D01*
X136948664Y-98953720D01*
X136936841Y-98944952D01*
X136925934Y-98935066D01*
X136916048Y-98924159D01*
X136907280Y-98912336D01*
X136899712Y-98899710D01*
X136893418Y-98886403D01*
X136888459Y-98872543D01*
X136884882Y-98858264D01*
X136882722Y-98843703D01*
X136882000Y-98829000D01*
X136882000Y-98529000D01*
X136882722Y-98514297D01*
X136884882Y-98499736D01*
X136888459Y-98485457D01*
X136893418Y-98471597D01*
X136899712Y-98458290D01*
X136907280Y-98445664D01*
X136916048Y-98433841D01*
X136925934Y-98422934D01*
X136936841Y-98413048D01*
X136948664Y-98404280D01*
X136961290Y-98396712D01*
X136974597Y-98390418D01*
X136988457Y-98385459D01*
X137002736Y-98381882D01*
X137017297Y-98379722D01*
X137032000Y-98379000D01*
X138682000Y-98379000D01*
X138696703Y-98379722D01*
X138696703Y-98379722D01*
G37*
D18*
X137857000Y-98679000D03*
D11*
G36*
X138696703Y-97109722D02*
G01*
X138711264Y-97111882D01*
X138725543Y-97115459D01*
X138739403Y-97120418D01*
X138752710Y-97126712D01*
X138765336Y-97134280D01*
X138777159Y-97143048D01*
X138788066Y-97152934D01*
X138797952Y-97163841D01*
X138806720Y-97175664D01*
X138814288Y-97188290D01*
X138820582Y-97201597D01*
X138825541Y-97215457D01*
X138829118Y-97229736D01*
X138831278Y-97244297D01*
X138832000Y-97259000D01*
X138832000Y-97559000D01*
X138831278Y-97573703D01*
X138829118Y-97588264D01*
X138825541Y-97602543D01*
X138820582Y-97616403D01*
X138814288Y-97629710D01*
X138806720Y-97642336D01*
X138797952Y-97654159D01*
X138788066Y-97665066D01*
X138777159Y-97674952D01*
X138765336Y-97683720D01*
X138752710Y-97691288D01*
X138739403Y-97697582D01*
X138725543Y-97702541D01*
X138711264Y-97706118D01*
X138696703Y-97708278D01*
X138682000Y-97709000D01*
X137032000Y-97709000D01*
X137017297Y-97708278D01*
X137002736Y-97706118D01*
X136988457Y-97702541D01*
X136974597Y-97697582D01*
X136961290Y-97691288D01*
X136948664Y-97683720D01*
X136936841Y-97674952D01*
X136925934Y-97665066D01*
X136916048Y-97654159D01*
X136907280Y-97642336D01*
X136899712Y-97629710D01*
X136893418Y-97616403D01*
X136888459Y-97602543D01*
X136884882Y-97588264D01*
X136882722Y-97573703D01*
X136882000Y-97559000D01*
X136882000Y-97259000D01*
X136882722Y-97244297D01*
X136884882Y-97229736D01*
X136888459Y-97215457D01*
X136893418Y-97201597D01*
X136899712Y-97188290D01*
X136907280Y-97175664D01*
X136916048Y-97163841D01*
X136925934Y-97152934D01*
X136936841Y-97143048D01*
X136948664Y-97134280D01*
X136961290Y-97126712D01*
X136974597Y-97120418D01*
X136988457Y-97115459D01*
X137002736Y-97111882D01*
X137017297Y-97109722D01*
X137032000Y-97109000D01*
X138682000Y-97109000D01*
X138696703Y-97109722D01*
X138696703Y-97109722D01*
G37*
D18*
X137857000Y-97409000D03*
D11*
G36*
X138696703Y-95839722D02*
G01*
X138711264Y-95841882D01*
X138725543Y-95845459D01*
X138739403Y-95850418D01*
X138752710Y-95856712D01*
X138765336Y-95864280D01*
X138777159Y-95873048D01*
X138788066Y-95882934D01*
X138797952Y-95893841D01*
X138806720Y-95905664D01*
X138814288Y-95918290D01*
X138820582Y-95931597D01*
X138825541Y-95945457D01*
X138829118Y-95959736D01*
X138831278Y-95974297D01*
X138832000Y-95989000D01*
X138832000Y-96289000D01*
X138831278Y-96303703D01*
X138829118Y-96318264D01*
X138825541Y-96332543D01*
X138820582Y-96346403D01*
X138814288Y-96359710D01*
X138806720Y-96372336D01*
X138797952Y-96384159D01*
X138788066Y-96395066D01*
X138777159Y-96404952D01*
X138765336Y-96413720D01*
X138752710Y-96421288D01*
X138739403Y-96427582D01*
X138725543Y-96432541D01*
X138711264Y-96436118D01*
X138696703Y-96438278D01*
X138682000Y-96439000D01*
X137032000Y-96439000D01*
X137017297Y-96438278D01*
X137002736Y-96436118D01*
X136988457Y-96432541D01*
X136974597Y-96427582D01*
X136961290Y-96421288D01*
X136948664Y-96413720D01*
X136936841Y-96404952D01*
X136925934Y-96395066D01*
X136916048Y-96384159D01*
X136907280Y-96372336D01*
X136899712Y-96359710D01*
X136893418Y-96346403D01*
X136888459Y-96332543D01*
X136884882Y-96318264D01*
X136882722Y-96303703D01*
X136882000Y-96289000D01*
X136882000Y-95989000D01*
X136882722Y-95974297D01*
X136884882Y-95959736D01*
X136888459Y-95945457D01*
X136893418Y-95931597D01*
X136899712Y-95918290D01*
X136907280Y-95905664D01*
X136916048Y-95893841D01*
X136925934Y-95882934D01*
X136936841Y-95873048D01*
X136948664Y-95864280D01*
X136961290Y-95856712D01*
X136974597Y-95850418D01*
X136988457Y-95845459D01*
X137002736Y-95841882D01*
X137017297Y-95839722D01*
X137032000Y-95839000D01*
X138682000Y-95839000D01*
X138696703Y-95839722D01*
X138696703Y-95839722D01*
G37*
D18*
X137857000Y-96139000D03*
D11*
G36*
X138696703Y-94569722D02*
G01*
X138711264Y-94571882D01*
X138725543Y-94575459D01*
X138739403Y-94580418D01*
X138752710Y-94586712D01*
X138765336Y-94594280D01*
X138777159Y-94603048D01*
X138788066Y-94612934D01*
X138797952Y-94623841D01*
X138806720Y-94635664D01*
X138814288Y-94648290D01*
X138820582Y-94661597D01*
X138825541Y-94675457D01*
X138829118Y-94689736D01*
X138831278Y-94704297D01*
X138832000Y-94719000D01*
X138832000Y-95019000D01*
X138831278Y-95033703D01*
X138829118Y-95048264D01*
X138825541Y-95062543D01*
X138820582Y-95076403D01*
X138814288Y-95089710D01*
X138806720Y-95102336D01*
X138797952Y-95114159D01*
X138788066Y-95125066D01*
X138777159Y-95134952D01*
X138765336Y-95143720D01*
X138752710Y-95151288D01*
X138739403Y-95157582D01*
X138725543Y-95162541D01*
X138711264Y-95166118D01*
X138696703Y-95168278D01*
X138682000Y-95169000D01*
X137032000Y-95169000D01*
X137017297Y-95168278D01*
X137002736Y-95166118D01*
X136988457Y-95162541D01*
X136974597Y-95157582D01*
X136961290Y-95151288D01*
X136948664Y-95143720D01*
X136936841Y-95134952D01*
X136925934Y-95125066D01*
X136916048Y-95114159D01*
X136907280Y-95102336D01*
X136899712Y-95089710D01*
X136893418Y-95076403D01*
X136888459Y-95062543D01*
X136884882Y-95048264D01*
X136882722Y-95033703D01*
X136882000Y-95019000D01*
X136882000Y-94719000D01*
X136882722Y-94704297D01*
X136884882Y-94689736D01*
X136888459Y-94675457D01*
X136893418Y-94661597D01*
X136899712Y-94648290D01*
X136907280Y-94635664D01*
X136916048Y-94623841D01*
X136925934Y-94612934D01*
X136936841Y-94603048D01*
X136948664Y-94594280D01*
X136961290Y-94586712D01*
X136974597Y-94580418D01*
X136988457Y-94575459D01*
X137002736Y-94571882D01*
X137017297Y-94569722D01*
X137032000Y-94569000D01*
X138682000Y-94569000D01*
X138696703Y-94569722D01*
X138696703Y-94569722D01*
G37*
D18*
X137857000Y-94869000D03*
D11*
G36*
X138696703Y-93299722D02*
G01*
X138711264Y-93301882D01*
X138725543Y-93305459D01*
X138739403Y-93310418D01*
X138752710Y-93316712D01*
X138765336Y-93324280D01*
X138777159Y-93333048D01*
X138788066Y-93342934D01*
X138797952Y-93353841D01*
X138806720Y-93365664D01*
X138814288Y-93378290D01*
X138820582Y-93391597D01*
X138825541Y-93405457D01*
X138829118Y-93419736D01*
X138831278Y-93434297D01*
X138832000Y-93449000D01*
X138832000Y-93749000D01*
X138831278Y-93763703D01*
X138829118Y-93778264D01*
X138825541Y-93792543D01*
X138820582Y-93806403D01*
X138814288Y-93819710D01*
X138806720Y-93832336D01*
X138797952Y-93844159D01*
X138788066Y-93855066D01*
X138777159Y-93864952D01*
X138765336Y-93873720D01*
X138752710Y-93881288D01*
X138739403Y-93887582D01*
X138725543Y-93892541D01*
X138711264Y-93896118D01*
X138696703Y-93898278D01*
X138682000Y-93899000D01*
X137032000Y-93899000D01*
X137017297Y-93898278D01*
X137002736Y-93896118D01*
X136988457Y-93892541D01*
X136974597Y-93887582D01*
X136961290Y-93881288D01*
X136948664Y-93873720D01*
X136936841Y-93864952D01*
X136925934Y-93855066D01*
X136916048Y-93844159D01*
X136907280Y-93832336D01*
X136899712Y-93819710D01*
X136893418Y-93806403D01*
X136888459Y-93792543D01*
X136884882Y-93778264D01*
X136882722Y-93763703D01*
X136882000Y-93749000D01*
X136882000Y-93449000D01*
X136882722Y-93434297D01*
X136884882Y-93419736D01*
X136888459Y-93405457D01*
X136893418Y-93391597D01*
X136899712Y-93378290D01*
X136907280Y-93365664D01*
X136916048Y-93353841D01*
X136925934Y-93342934D01*
X136936841Y-93333048D01*
X136948664Y-93324280D01*
X136961290Y-93316712D01*
X136974597Y-93310418D01*
X136988457Y-93305459D01*
X137002736Y-93301882D01*
X137017297Y-93299722D01*
X137032000Y-93299000D01*
X138682000Y-93299000D01*
X138696703Y-93299722D01*
X138696703Y-93299722D01*
G37*
D18*
X137857000Y-93599000D03*
D19*
X148463000Y-91694000D03*
X113411000Y-105029000D03*
D20*
X116586000Y-96901000D03*
X116586000Y-95758000D03*
X117602000Y-95250000D03*
X117729000Y-96266000D03*
X115570000Y-96266000D03*
X115570000Y-97409000D03*
X118618000Y-94615000D03*
X119761000Y-94615000D03*
X120904000Y-94615000D03*
X118618000Y-95631000D03*
X119761000Y-95631000D03*
X120904000Y-95504000D03*
X122047000Y-95504000D03*
X130810000Y-90551000D03*
X131810000Y-90551000D03*
X132810000Y-90551000D03*
X133810000Y-90551000D03*
X134810000Y-90551000D03*
X130810000Y-91551000D03*
X131810000Y-91551000D03*
X132810000Y-91551000D03*
X133810000Y-91551000D03*
X134810000Y-91551000D03*
X130810000Y-92551000D03*
X131810000Y-92551000D03*
X132810000Y-92551000D03*
X133810000Y-92551000D03*
X134810000Y-92551000D03*
X130810000Y-93551000D03*
X134810000Y-93551000D03*
X131810000Y-90551000D03*
X132810000Y-90551000D03*
X133810000Y-90551000D03*
X134810000Y-90551000D03*
X135810000Y-90551000D03*
X136810000Y-90551000D03*
X137810000Y-90551000D03*
X130810000Y-91551000D03*
X131810000Y-91551000D03*
X132810000Y-91551000D03*
X133810000Y-91551000D03*
X134810000Y-91551000D03*
X135810000Y-91551000D03*
X136810000Y-91551000D03*
X137810000Y-91551000D03*
X130810000Y-92551000D03*
X131810000Y-92551000D03*
X132810000Y-92551000D03*
X133810000Y-92551000D03*
X134810000Y-92551000D03*
X135810000Y-92551000D03*
X136810000Y-92551000D03*
X137810000Y-92551000D03*
X130810000Y-93551000D03*
X134810000Y-93551000D03*
X135810000Y-93551000D03*
X131810000Y-90551000D03*
X132810000Y-90551000D03*
X133810000Y-90551000D03*
X134810000Y-90551000D03*
X135810000Y-90551000D03*
X136810000Y-90551000D03*
X137810000Y-90551000D03*
X138810000Y-90551000D03*
X130810000Y-91551000D03*
X131810000Y-91551000D03*
X132810000Y-91551000D03*
X133810000Y-91551000D03*
X134810000Y-91551000D03*
X135810000Y-91551000D03*
X136810000Y-91551000D03*
X137810000Y-91551000D03*
X138810000Y-91551000D03*
X130810000Y-92551000D03*
X131810000Y-92551000D03*
X132810000Y-92551000D03*
X133810000Y-92551000D03*
X134810000Y-92551000D03*
X135810000Y-92551000D03*
X136810000Y-92551000D03*
X137810000Y-92551000D03*
X138810000Y-92551000D03*
X130810000Y-93551000D03*
X134810000Y-93551000D03*
X135810000Y-93551000D03*
X130810000Y-102743000D03*
X134810000Y-102743000D03*
X139810000Y-102743000D03*
X140810000Y-102743000D03*
X130810000Y-103743000D03*
X131810000Y-103743000D03*
X132810000Y-103743000D03*
X133810000Y-103743000D03*
X134810000Y-103743000D03*
X137810000Y-103743000D03*
X138810000Y-103743000D03*
X139810000Y-103743000D03*
X140810000Y-103743000D03*
X130810000Y-104743000D03*
X131810000Y-104743000D03*
X132810000Y-104743000D03*
X133810000Y-104743000D03*
X134810000Y-104743000D03*
X137810000Y-104743000D03*
X138810000Y-104743000D03*
X139810000Y-104743000D03*
X140810000Y-104743000D03*
X130810000Y-105743000D03*
X131810000Y-105743000D03*
X132810000Y-105743000D03*
X133810000Y-105743000D03*
X134810000Y-105743000D03*
X137810000Y-105743000D03*
X138810000Y-105743000D03*
X139810000Y-105743000D03*
X140810000Y-105743000D03*
X143510000Y-92964000D03*
D21*
X150749000Y-102108000D03*
D20*
X144780000Y-101346000D03*
X147788000Y-101687000D03*
X148844000Y-101727000D03*
X148844000Y-102743000D03*
X148844000Y-103886000D03*
X148844000Y-105029000D03*
X147955000Y-105029000D03*
X144653000Y-105029000D03*
X143510000Y-105029000D03*
X143510000Y-104013000D03*
X143510000Y-102870000D03*
X143510000Y-101727000D03*
X144145000Y-102362000D03*
X144018000Y-103505000D03*
X144018000Y-104521000D03*
X146177000Y-105410000D03*
X145288000Y-105664000D03*
X147320000Y-105664000D03*
X148336000Y-104394000D03*
X148209000Y-103251000D03*
X148082000Y-102362000D03*
X146304000Y-101219000D03*
X144018000Y-97282000D03*
X148018000Y-97282000D03*
X144018000Y-98282000D03*
X148018000Y-98282000D03*
X144018000Y-99282000D03*
X145018000Y-100282000D03*
X146018000Y-100282000D03*
X147018000Y-100282000D03*
X145034000Y-96393000D03*
X146050000Y-96393000D03*
X147066000Y-96393000D03*
X148717000Y-96901000D03*
X145034000Y-95631000D03*
X146050000Y-95631000D03*
X147066000Y-95631000D03*
X148336000Y-95631000D03*
X148082000Y-96393000D03*
D21*
X134620000Y-96139000D03*
X134747000Y-99949000D03*
X136271000Y-99949000D03*
X136271000Y-97409000D03*
D22*
X124067370Y-94051000D02*
X127806370Y-97790000D01*
X122936000Y-94051000D02*
X124067370Y-94051000D01*
X118429320Y-94051000D02*
X122936000Y-94051000D01*
X113538000Y-96821000D02*
X115659320Y-96821000D01*
X115659320Y-96821000D02*
X118429320Y-94051000D01*
D23*
X143510000Y-91313000D02*
X143637000Y-91186000D01*
X143510000Y-92964000D02*
X143510000Y-91313000D01*
D24*
X150749000Y-101092000D02*
X150749000Y-102108000D01*
X150749000Y-102108000D02*
X150749000Y-103248000D01*
D22*
X146177000Y-103298000D02*
X144700000Y-103298000D01*
X144700000Y-103298000D02*
X143446500Y-102044500D01*
D25*
X146177000Y-103298000D02*
X146177000Y-105029000D01*
X147196000Y-106048000D02*
X150749000Y-106048000D01*
X146177000Y-105029000D02*
X147196000Y-106048000D01*
X149358000Y-98292000D02*
X150749000Y-98292000D01*
X146177000Y-103298000D02*
X147788000Y-101687000D01*
X148717000Y-98933000D02*
X149358000Y-98292000D01*
X148717000Y-100758000D02*
X148717000Y-98933000D01*
D22*
X143446500Y-102044500D02*
X142748000Y-101346000D01*
D25*
X147788000Y-101687000D02*
X148717000Y-100758000D01*
D22*
X146177000Y-98298000D02*
X146177000Y-97155000D01*
X146177000Y-97155000D02*
X144018000Y-94996000D01*
X144018000Y-94996000D02*
X141859000Y-94996000D01*
D24*
X132907000Y-96139000D02*
X134620000Y-96139000D01*
X134620000Y-96139000D02*
X137857000Y-96139000D01*
X132907000Y-99949000D02*
X134747000Y-99949000D01*
X137857000Y-99949000D02*
X136271000Y-99949000D01*
D25*
X137857000Y-97409000D02*
X136271000Y-97409000D01*
D26*
G36*
X142621000Y-102743000D02*
G01*
X141645000Y-102743000D01*
X141645000Y-102660760D01*
X141612911Y-102499440D01*
X141549967Y-102347479D01*
X141458587Y-102210719D01*
X141342281Y-102094413D01*
X141205521Y-102003033D01*
X141053560Y-101940089D01*
X140892240Y-101908000D01*
X140783203Y-101908000D01*
X140709483Y-101686839D01*
X140699333Y-101664106D01*
X140684943Y-101643789D01*
X140666866Y-101626671D01*
X140645796Y-101613408D01*
X140622544Y-101604510D01*
X140589000Y-101600000D01*
X138947596Y-101600000D01*
X138835745Y-101566071D01*
X138682000Y-101550928D01*
X137032000Y-101550928D01*
X136878255Y-101566071D01*
X136766404Y-101600000D01*
X133997596Y-101600000D01*
X133885745Y-101566071D01*
X133732000Y-101550928D01*
X132082000Y-101550928D01*
X131928255Y-101566071D01*
X131816404Y-101600000D01*
X129286000Y-101600000D01*
X129261224Y-101602440D01*
X129237399Y-101609667D01*
X129215443Y-101621403D01*
X129196197Y-101637197D01*
X129180403Y-101656443D01*
X129168667Y-101678399D01*
X129161440Y-101702224D01*
X129159000Y-101727000D01*
X129159000Y-106045000D01*
X126365000Y-106045000D01*
X126365000Y-100838000D01*
X131816404Y-100838000D01*
X131928255Y-100871929D01*
X132082000Y-100887072D01*
X132520070Y-100887072D01*
X132709006Y-100944385D01*
X132857392Y-100959000D01*
X134519377Y-100959000D01*
X134645061Y-100984000D01*
X134848939Y-100984000D01*
X135048898Y-100944226D01*
X135237256Y-100866205D01*
X135279468Y-100838000D01*
X135738532Y-100838000D01*
X135780744Y-100866205D01*
X135969102Y-100944226D01*
X136169061Y-100984000D01*
X136372939Y-100984000D01*
X136498623Y-100959000D01*
X137906608Y-100959000D01*
X138054994Y-100944385D01*
X138243930Y-100887072D01*
X138682000Y-100887072D01*
X138835745Y-100871929D01*
X138947596Y-100838000D01*
X139573000Y-100838000D01*
X139597776Y-100835560D01*
X139621601Y-100828333D01*
X139643557Y-100816597D01*
X139662803Y-100800803D01*
X139678597Y-100781557D01*
X139690333Y-100759601D01*
X139697560Y-100735776D01*
X139700000Y-100711000D01*
X139700000Y-99568000D01*
X142621000Y-99568000D01*
X142621000Y-102743000D01*
X142621000Y-102743000D01*
G37*
X142621000Y-102743000D02*
X141645000Y-102743000D01*
X141645000Y-102660760D01*
X141612911Y-102499440D01*
X141549967Y-102347479D01*
X141458587Y-102210719D01*
X141342281Y-102094413D01*
X141205521Y-102003033D01*
X141053560Y-101940089D01*
X140892240Y-101908000D01*
X140783203Y-101908000D01*
X140709483Y-101686839D01*
X140699333Y-101664106D01*
X140684943Y-101643789D01*
X140666866Y-101626671D01*
X140645796Y-101613408D01*
X140622544Y-101604510D01*
X140589000Y-101600000D01*
X138947596Y-101600000D01*
X138835745Y-101566071D01*
X138682000Y-101550928D01*
X137032000Y-101550928D01*
X136878255Y-101566071D01*
X136766404Y-101600000D01*
X133997596Y-101600000D01*
X133885745Y-101566071D01*
X133732000Y-101550928D01*
X132082000Y-101550928D01*
X131928255Y-101566071D01*
X131816404Y-101600000D01*
X129286000Y-101600000D01*
X129261224Y-101602440D01*
X129237399Y-101609667D01*
X129215443Y-101621403D01*
X129196197Y-101637197D01*
X129180403Y-101656443D01*
X129168667Y-101678399D01*
X129161440Y-101702224D01*
X129159000Y-101727000D01*
X129159000Y-106045000D01*
X126365000Y-106045000D01*
X126365000Y-100838000D01*
X131816404Y-100838000D01*
X131928255Y-100871929D01*
X132082000Y-100887072D01*
X132520070Y-100887072D01*
X132709006Y-100944385D01*
X132857392Y-100959000D01*
X134519377Y-100959000D01*
X134645061Y-100984000D01*
X134848939Y-100984000D01*
X135048898Y-100944226D01*
X135237256Y-100866205D01*
X135279468Y-100838000D01*
X135738532Y-100838000D01*
X135780744Y-100866205D01*
X135969102Y-100944226D01*
X136169061Y-100984000D01*
X136372939Y-100984000D01*
X136498623Y-100959000D01*
X137906608Y-100959000D01*
X138054994Y-100944385D01*
X138243930Y-100887072D01*
X138682000Y-100887072D01*
X138835745Y-100871929D01*
X138947596Y-100838000D01*
X139573000Y-100838000D01*
X139597776Y-100835560D01*
X139621601Y-100828333D01*
X139643557Y-100816597D01*
X139662803Y-100800803D01*
X139678597Y-100781557D01*
X139690333Y-100759601D01*
X139697560Y-100735776D01*
X139700000Y-100711000D01*
X139700000Y-99568000D01*
X142621000Y-99568000D01*
X142621000Y-102743000D01*
G36*
X129413000Y-94361000D02*
G01*
X129415440Y-94385776D01*
X129422667Y-94409601D01*
X129434403Y-94431557D01*
X129450197Y-94450803D01*
X129469443Y-94466597D01*
X129491399Y-94478333D01*
X129515224Y-94485560D01*
X129540000Y-94488000D01*
X131816404Y-94488000D01*
X131928255Y-94521929D01*
X132082000Y-94537072D01*
X133732000Y-94537072D01*
X133885745Y-94521929D01*
X133997596Y-94488000D01*
X136766404Y-94488000D01*
X136878255Y-94521929D01*
X137032000Y-94537072D01*
X138682000Y-94537072D01*
X138835745Y-94521929D01*
X138947596Y-94488000D01*
X139827000Y-94488000D01*
X139851776Y-94485560D01*
X139875601Y-94478333D01*
X139897557Y-94466597D01*
X139916803Y-94450803D01*
X141149606Y-93218000D01*
X142113000Y-93218000D01*
X142113000Y-96393000D01*
X141022606Y-96393000D01*
X140319002Y-95689396D01*
X140201483Y-95336839D01*
X140191333Y-95314106D01*
X140176943Y-95293789D01*
X140158866Y-95276671D01*
X140137796Y-95263408D01*
X140114544Y-95254510D01*
X140081000Y-95250000D01*
X138947596Y-95250000D01*
X138835745Y-95216071D01*
X138682000Y-95200928D01*
X138243930Y-95200928D01*
X138054994Y-95143615D01*
X137906608Y-95129000D01*
X134847623Y-95129000D01*
X134721939Y-95104000D01*
X134518061Y-95104000D01*
X134392377Y-95129000D01*
X132857392Y-95129000D01*
X132709006Y-95143615D01*
X132520070Y-95200928D01*
X132082000Y-95200928D01*
X131928255Y-95216071D01*
X131816404Y-95250000D01*
X128775983Y-95250000D01*
X128775560Y-95245708D01*
X128768333Y-95221883D01*
X128756597Y-95199927D01*
X128732612Y-95173178D01*
X126930325Y-93661582D01*
X126569834Y-90297000D01*
X129413000Y-90297000D01*
X129413000Y-94361000D01*
X129413000Y-94361000D01*
G37*
X129413000Y-94361000D02*
X129415440Y-94385776D01*
X129422667Y-94409601D01*
X129434403Y-94431557D01*
X129450197Y-94450803D01*
X129469443Y-94466597D01*
X129491399Y-94478333D01*
X129515224Y-94485560D01*
X129540000Y-94488000D01*
X131816404Y-94488000D01*
X131928255Y-94521929D01*
X132082000Y-94537072D01*
X133732000Y-94537072D01*
X133885745Y-94521929D01*
X133997596Y-94488000D01*
X136766404Y-94488000D01*
X136878255Y-94521929D01*
X137032000Y-94537072D01*
X138682000Y-94537072D01*
X138835745Y-94521929D01*
X138947596Y-94488000D01*
X139827000Y-94488000D01*
X139851776Y-94485560D01*
X139875601Y-94478333D01*
X139897557Y-94466597D01*
X139916803Y-94450803D01*
X141149606Y-93218000D01*
X142113000Y-93218000D01*
X142113000Y-96393000D01*
X141022606Y-96393000D01*
X140319002Y-95689396D01*
X140201483Y-95336839D01*
X140191333Y-95314106D01*
X140176943Y-95293789D01*
X140158866Y-95276671D01*
X140137796Y-95263408D01*
X140114544Y-95254510D01*
X140081000Y-95250000D01*
X138947596Y-95250000D01*
X138835745Y-95216071D01*
X138682000Y-95200928D01*
X138243930Y-95200928D01*
X138054994Y-95143615D01*
X137906608Y-95129000D01*
X134847623Y-95129000D01*
X134721939Y-95104000D01*
X134518061Y-95104000D01*
X134392377Y-95129000D01*
X132857392Y-95129000D01*
X132709006Y-95143615D01*
X132520070Y-95200928D01*
X132082000Y-95200928D01*
X131928255Y-95216071D01*
X131816404Y-95250000D01*
X128775983Y-95250000D01*
X128775560Y-95245708D01*
X128768333Y-95221883D01*
X128756597Y-95199927D01*
X128732612Y-95173178D01*
X126930325Y-93661582D01*
X126569834Y-90297000D01*
X129413000Y-90297000D01*
X129413000Y-94361000D01*
G36*
X131388204Y-97014592D02*
G01*
X131411456Y-97023490D01*
X131445000Y-97028000D01*
X131816404Y-97028000D01*
X131928255Y-97061929D01*
X132082000Y-97077072D01*
X132520070Y-97077072D01*
X132709006Y-97134385D01*
X132857392Y-97149000D01*
X134392377Y-97149000D01*
X134518061Y-97174000D01*
X134721939Y-97174000D01*
X134840240Y-97150469D01*
X135012117Y-97193438D01*
X135128870Y-98185839D01*
X135134188Y-98210160D01*
X135144150Y-98232977D01*
X135158371Y-98253412D01*
X135176305Y-98270680D01*
X135197264Y-98284117D01*
X135220441Y-98293208D01*
X135244947Y-98297601D01*
X135259095Y-98297934D01*
X135553487Y-98288437D01*
X135637377Y-98357284D01*
X135834553Y-98462676D01*
X136048501Y-98527577D01*
X136215248Y-98544000D01*
X137912752Y-98544000D01*
X138079499Y-98527577D01*
X138293447Y-98462676D01*
X138490623Y-98357284D01*
X138503066Y-98347072D01*
X138682000Y-98347072D01*
X138835745Y-98331929D01*
X138983582Y-98287084D01*
X139119829Y-98214258D01*
X139171659Y-98171722D01*
X139196095Y-98170934D01*
X139220780Y-98167696D01*
X139244358Y-98159705D01*
X139265925Y-98147267D01*
X139281803Y-98133803D01*
X140133606Y-97282000D01*
X142187394Y-97282000D01*
X142621000Y-97715606D01*
X142621000Y-98473510D01*
X142449674Y-98559173D01*
X141967829Y-98679634D01*
X136209126Y-98914000D01*
X136169061Y-98914000D01*
X136158755Y-98916050D01*
X135065263Y-98960553D01*
X135048898Y-98953774D01*
X134848939Y-98914000D01*
X134645061Y-98914000D01*
X134519377Y-98939000D01*
X132857392Y-98939000D01*
X132709006Y-98953615D01*
X132520070Y-99010928D01*
X132082000Y-99010928D01*
X131928255Y-99026071D01*
X131780418Y-99070916D01*
X131733189Y-99096160D01*
X131058836Y-99123605D01*
X131050932Y-99124174D01*
X129215947Y-99314000D01*
X126619000Y-99314000D01*
X126619000Y-97080606D01*
X126798606Y-96901000D01*
X131161020Y-96901000D01*
X131388204Y-97014592D01*
X131388204Y-97014592D01*
G37*
X131388204Y-97014592D02*
X131411456Y-97023490D01*
X131445000Y-97028000D01*
X131816404Y-97028000D01*
X131928255Y-97061929D01*
X132082000Y-97077072D01*
X132520070Y-97077072D01*
X132709006Y-97134385D01*
X132857392Y-97149000D01*
X134392377Y-97149000D01*
X134518061Y-97174000D01*
X134721939Y-97174000D01*
X134840240Y-97150469D01*
X135012117Y-97193438D01*
X135128870Y-98185839D01*
X135134188Y-98210160D01*
X135144150Y-98232977D01*
X135158371Y-98253412D01*
X135176305Y-98270680D01*
X135197264Y-98284117D01*
X135220441Y-98293208D01*
X135244947Y-98297601D01*
X135259095Y-98297934D01*
X135553487Y-98288437D01*
X135637377Y-98357284D01*
X135834553Y-98462676D01*
X136048501Y-98527577D01*
X136215248Y-98544000D01*
X137912752Y-98544000D01*
X138079499Y-98527577D01*
X138293447Y-98462676D01*
X138490623Y-98357284D01*
X138503066Y-98347072D01*
X138682000Y-98347072D01*
X138835745Y-98331929D01*
X138983582Y-98287084D01*
X139119829Y-98214258D01*
X139171659Y-98171722D01*
X139196095Y-98170934D01*
X139220780Y-98167696D01*
X139244358Y-98159705D01*
X139265925Y-98147267D01*
X139281803Y-98133803D01*
X140133606Y-97282000D01*
X142187394Y-97282000D01*
X142621000Y-97715606D01*
X142621000Y-98473510D01*
X142449674Y-98559173D01*
X141967829Y-98679634D01*
X136209126Y-98914000D01*
X136169061Y-98914000D01*
X136158755Y-98916050D01*
X135065263Y-98960553D01*
X135048898Y-98953774D01*
X134848939Y-98914000D01*
X134645061Y-98914000D01*
X134519377Y-98939000D01*
X132857392Y-98939000D01*
X132709006Y-98953615D01*
X132520070Y-99010928D01*
X132082000Y-99010928D01*
X131928255Y-99026071D01*
X131780418Y-99070916D01*
X131733189Y-99096160D01*
X131058836Y-99123605D01*
X131050932Y-99124174D01*
X129215947Y-99314000D01*
X126619000Y-99314000D01*
X126619000Y-97080606D01*
X126798606Y-96901000D01*
X131161020Y-96901000D01*
X131388204Y-97014592D01*
G36*
X144622479Y-101021967D02*
G01*
X144774440Y-101084911D01*
X144935760Y-101117000D01*
X145100240Y-101117000D01*
X145261560Y-101084911D01*
X145413521Y-101021967D01*
X145498778Y-100965000D01*
X145537222Y-100965000D01*
X145622479Y-101021967D01*
X145774440Y-101084911D01*
X145935760Y-101117000D01*
X146100240Y-101117000D01*
X146261560Y-101084911D01*
X146413521Y-101021967D01*
X146498778Y-100965000D01*
X146537222Y-100965000D01*
X146622479Y-101021967D01*
X146774440Y-101084911D01*
X146935760Y-101117000D01*
X147100240Y-101117000D01*
X147261560Y-101084911D01*
X147413521Y-101021967D01*
X147498778Y-100965000D01*
X148971000Y-100965000D01*
X148971000Y-106045000D01*
X143002000Y-106045000D01*
X143002000Y-100965000D01*
X144537222Y-100965000D01*
X144622479Y-101021967D01*
X144622479Y-101021967D01*
G37*
X144622479Y-101021967D02*
X144774440Y-101084911D01*
X144935760Y-101117000D01*
X145100240Y-101117000D01*
X145261560Y-101084911D01*
X145413521Y-101021967D01*
X145498778Y-100965000D01*
X145537222Y-100965000D01*
X145622479Y-101021967D01*
X145774440Y-101084911D01*
X145935760Y-101117000D01*
X146100240Y-101117000D01*
X146261560Y-101084911D01*
X146413521Y-101021967D01*
X146498778Y-100965000D01*
X146537222Y-100965000D01*
X146622479Y-101021967D01*
X146774440Y-101084911D01*
X146935760Y-101117000D01*
X147100240Y-101117000D01*
X147261560Y-101084911D01*
X147413521Y-101021967D01*
X147498778Y-100965000D01*
X148971000Y-100965000D01*
X148971000Y-106045000D01*
X143002000Y-106045000D01*
X143002000Y-100965000D01*
X144537222Y-100965000D01*
X144622479Y-101021967D01*
G36*
X148590000Y-96647000D02*
G01*
X148592440Y-96671776D01*
X148599667Y-96695601D01*
X148611403Y-96717557D01*
X148627197Y-96736803D01*
X148646443Y-96752597D01*
X148668399Y-96764333D01*
X148692224Y-96771560D01*
X148717000Y-96774000D01*
X148844000Y-96774000D01*
X148844000Y-97279777D01*
X148724377Y-97343716D01*
X148551551Y-97485551D01*
X148516004Y-97528865D01*
X147953860Y-98091009D01*
X147910552Y-98126551D01*
X147768717Y-98299377D01*
X147712384Y-98404770D01*
X147663324Y-98496554D01*
X147598423Y-98710502D01*
X147576509Y-98933000D01*
X147582000Y-98988751D01*
X147582000Y-99949000D01*
X144370345Y-99949000D01*
X144183510Y-99762165D01*
X143939881Y-99562224D01*
X143662556Y-99413991D01*
X143674536Y-99102511D01*
X143673050Y-99077659D01*
X143666744Y-99053575D01*
X143655860Y-99031183D01*
X143637433Y-99007827D01*
X143383000Y-98753394D01*
X143383000Y-95631000D01*
X148590000Y-95631000D01*
X148590000Y-96647000D01*
X148590000Y-96647000D01*
G37*
X148590000Y-96647000D02*
X148592440Y-96671776D01*
X148599667Y-96695601D01*
X148611403Y-96717557D01*
X148627197Y-96736803D01*
X148646443Y-96752597D01*
X148668399Y-96764333D01*
X148692224Y-96771560D01*
X148717000Y-96774000D01*
X148844000Y-96774000D01*
X148844000Y-97279777D01*
X148724377Y-97343716D01*
X148551551Y-97485551D01*
X148516004Y-97528865D01*
X147953860Y-98091009D01*
X147910552Y-98126551D01*
X147768717Y-98299377D01*
X147712384Y-98404770D01*
X147663324Y-98496554D01*
X147598423Y-98710502D01*
X147576509Y-98933000D01*
X147582000Y-98988751D01*
X147582000Y-99949000D01*
X144370345Y-99949000D01*
X144183510Y-99762165D01*
X143939881Y-99562224D01*
X143662556Y-99413991D01*
X143674536Y-99102511D01*
X143673050Y-99077659D01*
X143666744Y-99053575D01*
X143655860Y-99031183D01*
X143637433Y-99007827D01*
X143383000Y-98753394D01*
X143383000Y-95631000D01*
X148590000Y-95631000D01*
X148590000Y-96647000D01*
G36*
X131943952Y-88645677D02*
G01*
X131953000Y-88646000D01*
X139969809Y-88646000D01*
X140207266Y-90426925D01*
X139958485Y-93287909D01*
X139520394Y-93726000D01*
X130725333Y-93726000D01*
X130302000Y-93408500D01*
X130302000Y-88544000D01*
X130520471Y-88544000D01*
X131943952Y-88645677D01*
X131943952Y-88645677D01*
G37*
X131943952Y-88645677D02*
X131953000Y-88646000D01*
X139969809Y-88646000D01*
X140207266Y-90426925D01*
X139958485Y-93287909D01*
X139520394Y-93726000D01*
X130725333Y-93726000D01*
X130302000Y-93408500D01*
X130302000Y-88544000D01*
X130520471Y-88544000D01*
X131943952Y-88645677D01*
G36*
X140365034Y-102896288D02*
G01*
X140905480Y-103643527D01*
X140846102Y-106045000D01*
X138557000Y-106045000D01*
X138555615Y-106045008D01*
X132079348Y-106115648D01*
X130735606Y-106115648D01*
X130429000Y-105809042D01*
X130429000Y-102739254D01*
X130735606Y-102432648D01*
X139901394Y-102432648D01*
X140365034Y-102896288D01*
X140365034Y-102896288D01*
G37*
X140365034Y-102896288D02*
X140905480Y-103643527D01*
X140846102Y-106045000D01*
X138557000Y-106045000D01*
X138555615Y-106045008D01*
X132079348Y-106115648D01*
X130735606Y-106115648D01*
X130429000Y-105809042D01*
X130429000Y-102739254D01*
X130735606Y-102432648D01*
X139901394Y-102432648D01*
X140365034Y-102896288D01*
G36*
X130048000Y-89792863D02*
G01*
X129989013Y-89720987D01*
X129892787Y-89642017D01*
X129783004Y-89583336D01*
X129663882Y-89547201D01*
X129540000Y-89535000D01*
X126428500Y-89535000D01*
X126360851Y-89538614D01*
X126238974Y-89563943D01*
X126124380Y-89612563D01*
X126021473Y-89682605D01*
X125934208Y-89771377D01*
X125865938Y-89875468D01*
X125819287Y-89990878D01*
X125796048Y-90113171D01*
X125797114Y-90237649D01*
X126099964Y-93064249D01*
X125651207Y-92615492D01*
X125584347Y-92534023D01*
X125259251Y-92267223D01*
X124888352Y-92068974D01*
X124485903Y-91946892D01*
X124172252Y-91916000D01*
X124172242Y-91916000D01*
X124067370Y-91905671D01*
X123962498Y-91916000D01*
X118534194Y-91916000D01*
X118429320Y-91905671D01*
X118324445Y-91916000D01*
X118324438Y-91916000D01*
X118048321Y-91943195D01*
X118010786Y-91946892D01*
X117662942Y-92052410D01*
X117608338Y-92068974D01*
X117237439Y-92267223D01*
X117237437Y-92267224D01*
X117237438Y-92267224D01*
X116993810Y-92467164D01*
X116993807Y-92467167D01*
X116912343Y-92534023D01*
X116845487Y-92615487D01*
X114774975Y-94686000D01*
X113327721Y-94686000D01*
X113224349Y-94706562D01*
X113119467Y-94716892D01*
X113018616Y-94747485D01*
X112915244Y-94768047D01*
X112817869Y-94808381D01*
X112717018Y-94838974D01*
X112624073Y-94888654D01*
X112526698Y-94928988D01*
X112439064Y-94987543D01*
X112346119Y-95037223D01*
X112264653Y-95104081D01*
X112177017Y-95162637D01*
X112102487Y-95237167D01*
X112021023Y-95304023D01*
X111954167Y-95385487D01*
X111879637Y-95460017D01*
X111821081Y-95547653D01*
X111754223Y-95629119D01*
X111704543Y-95722064D01*
X111645988Y-95809698D01*
X111605654Y-95907073D01*
X111555974Y-96000018D01*
X111525381Y-96100869D01*
X111485047Y-96198244D01*
X111464485Y-96301616D01*
X111433892Y-96402467D01*
X111423562Y-96507349D01*
X111403000Y-96610721D01*
X111403000Y-96716118D01*
X111392670Y-96821000D01*
X111403000Y-96925882D01*
X111403000Y-97031279D01*
X111423562Y-97134651D01*
X111433892Y-97239533D01*
X111464485Y-97340384D01*
X111485047Y-97443756D01*
X111525381Y-97541131D01*
X111555974Y-97641982D01*
X111605654Y-97734927D01*
X111645988Y-97832302D01*
X111704543Y-97919936D01*
X111754223Y-98012881D01*
X111821081Y-98094347D01*
X111879637Y-98181983D01*
X111954167Y-98256513D01*
X112021023Y-98337977D01*
X112102487Y-98404833D01*
X112177017Y-98479363D01*
X112264653Y-98537919D01*
X112346119Y-98604777D01*
X112439064Y-98654457D01*
X112526698Y-98713012D01*
X112624073Y-98753346D01*
X112717018Y-98803026D01*
X112817869Y-98833619D01*
X112915244Y-98873953D01*
X113018616Y-98894515D01*
X113119467Y-98925108D01*
X113224349Y-98935438D01*
X113327721Y-98956000D01*
X115554448Y-98956000D01*
X115659320Y-98966329D01*
X115764192Y-98956000D01*
X115764202Y-98956000D01*
X116077853Y-98925108D01*
X116480302Y-98803026D01*
X116851201Y-98604777D01*
X117176297Y-98337977D01*
X117243157Y-98256508D01*
X119224399Y-96275267D01*
X119228719Y-96279587D01*
X119365479Y-96370967D01*
X119517440Y-96433911D01*
X119678760Y-96466000D01*
X119843240Y-96466000D01*
X120004560Y-96433911D01*
X120156521Y-96370967D01*
X120293281Y-96279587D01*
X120386868Y-96186000D01*
X120421725Y-96186000D01*
X120508479Y-96243967D01*
X120660440Y-96306911D01*
X120821760Y-96339000D01*
X120986240Y-96339000D01*
X121147560Y-96306911D01*
X121299521Y-96243967D01*
X121386275Y-96186000D01*
X121564725Y-96186000D01*
X121651479Y-96243967D01*
X121803440Y-96306911D01*
X121964760Y-96339000D01*
X122129240Y-96339000D01*
X122290560Y-96306911D01*
X122442521Y-96243967D01*
X122529275Y-96186000D01*
X123183025Y-96186000D01*
X125857000Y-98859976D01*
X125857000Y-99822000D01*
X125869201Y-99945882D01*
X125905336Y-100065004D01*
X125949927Y-100148426D01*
X125885213Y-100183017D01*
X125788987Y-100261987D01*
X125710017Y-100358213D01*
X125651336Y-100467996D01*
X125615201Y-100587118D01*
X125603000Y-100711000D01*
X125603000Y-106172000D01*
X125615201Y-106295882D01*
X125651336Y-106415004D01*
X125710017Y-106524787D01*
X125788987Y-106621013D01*
X125885213Y-106699983D01*
X125994996Y-106758664D01*
X126114118Y-106794799D01*
X126238000Y-106807000D01*
X129286000Y-106807000D01*
X129409882Y-106794799D01*
X129529004Y-106758664D01*
X129638787Y-106699983D01*
X129735013Y-106621013D01*
X129813983Y-106524787D01*
X129872664Y-106415004D01*
X129908799Y-106295882D01*
X129921000Y-106172000D01*
X129921000Y-102362000D01*
X130447042Y-102362000D01*
X130212197Y-102596845D01*
X130196403Y-102616091D01*
X130184667Y-102638047D01*
X130177440Y-102661872D01*
X130175000Y-102686648D01*
X130175000Y-105861648D01*
X130177440Y-105886424D01*
X130184667Y-105910249D01*
X130196403Y-105932205D01*
X130212197Y-105951451D01*
X130593197Y-106332451D01*
X130612443Y-106348245D01*
X130634399Y-106359981D01*
X130658224Y-106367208D01*
X130683000Y-106369648D01*
X132080000Y-106369648D01*
X132081385Y-106369640D01*
X138557652Y-106299000D01*
X140970000Y-106299000D01*
X140991690Y-106297134D01*
X141015686Y-106290498D01*
X141037926Y-106279308D01*
X141057555Y-106263995D01*
X141073820Y-106245146D01*
X141086096Y-106223486D01*
X141093909Y-106199848D01*
X141096961Y-106175139D01*
X141160461Y-103606963D01*
X141157055Y-103574443D01*
X141148948Y-103550903D01*
X141136406Y-103529397D01*
X140867312Y-103157338D01*
X141028987Y-103319013D01*
X141125213Y-103397983D01*
X141234996Y-103456664D01*
X141354118Y-103492799D01*
X141478000Y-103505000D01*
X141887655Y-103505000D01*
X142240000Y-103857345D01*
X142240000Y-106172000D01*
X142252201Y-106295882D01*
X142288336Y-106415004D01*
X142347017Y-106524787D01*
X142425987Y-106621013D01*
X142522213Y-106699983D01*
X142631996Y-106758664D01*
X142751118Y-106794799D01*
X142875000Y-106807000D01*
X146349867Y-106807000D01*
X146354013Y-106811146D01*
X146389551Y-106854449D01*
X146432854Y-106889987D01*
X146432856Y-106889989D01*
X146562377Y-106996284D01*
X146759553Y-107101676D01*
X146973501Y-107166577D01*
X147196000Y-107188491D01*
X147251752Y-107183000D01*
X149671015Y-107183000D01*
X149784150Y-107243472D01*
X149950746Y-107294008D01*
X150124000Y-107311072D01*
X151374000Y-107311072D01*
X151547254Y-107294008D01*
X151713850Y-107243472D01*
X151867001Y-107161611D01*
X151867001Y-108057618D01*
X151491620Y-108433000D01*
X123537808Y-108433000D01*
X123752179Y-108318417D01*
X123981345Y-108130345D01*
X124169417Y-107901179D01*
X124309166Y-107639725D01*
X124395224Y-107356032D01*
X124424282Y-107061000D01*
X124395224Y-106765968D01*
X124309166Y-106482275D01*
X124169417Y-106220821D01*
X123981345Y-105991655D01*
X123752179Y-105803583D01*
X123728638Y-105791000D01*
X123752179Y-105778417D01*
X123981345Y-105590345D01*
X124169417Y-105361179D01*
X124309166Y-105099725D01*
X124395224Y-104816032D01*
X124424282Y-104521000D01*
X124395224Y-104225968D01*
X124309166Y-103942275D01*
X124169417Y-103680821D01*
X123981345Y-103451655D01*
X123752179Y-103263583D01*
X123728638Y-103251000D01*
X123752179Y-103238417D01*
X123981345Y-103050345D01*
X124169417Y-102821179D01*
X124309166Y-102559725D01*
X124395224Y-102276032D01*
X124424282Y-101981000D01*
X124395224Y-101685968D01*
X124309166Y-101402275D01*
X124169417Y-101140821D01*
X123981345Y-100911655D01*
X123752179Y-100723583D01*
X123490725Y-100583834D01*
X123207032Y-100497776D01*
X122985936Y-100476000D01*
X122378064Y-100476000D01*
X122156968Y-100497776D01*
X121873275Y-100583834D01*
X121611821Y-100723583D01*
X121382655Y-100911655D01*
X121194583Y-101140821D01*
X121054834Y-101402275D01*
X120968776Y-101685968D01*
X120939718Y-101981000D01*
X120968776Y-102276032D01*
X121054834Y-102559725D01*
X121194583Y-102821179D01*
X121382655Y-103050345D01*
X121611821Y-103238417D01*
X121635362Y-103251000D01*
X121611821Y-103263583D01*
X121382655Y-103451655D01*
X121194583Y-103680821D01*
X121054834Y-103942275D01*
X120968776Y-104225968D01*
X120939718Y-104521000D01*
X120968776Y-104816032D01*
X121054834Y-105099725D01*
X121194583Y-105361179D01*
X121382655Y-105590345D01*
X121611821Y-105778417D01*
X121635362Y-105791000D01*
X121611821Y-105803583D01*
X121382655Y-105991655D01*
X121194583Y-106220821D01*
X121054834Y-106482275D01*
X120968776Y-106765968D01*
X120939718Y-107061000D01*
X120968776Y-107356032D01*
X121054834Y-107639725D01*
X121194583Y-107901179D01*
X121382655Y-108130345D01*
X121611821Y-108318417D01*
X121826192Y-108433000D01*
X111070832Y-108433000D01*
X110388000Y-107977779D01*
X110388000Y-88750515D01*
X110553212Y-88544000D01*
X130048000Y-88544000D01*
X130048000Y-89792863D01*
X130048000Y-89792863D01*
G37*
X130048000Y-89792863D02*
X129989013Y-89720987D01*
X129892787Y-89642017D01*
X129783004Y-89583336D01*
X129663882Y-89547201D01*
X129540000Y-89535000D01*
X126428500Y-89535000D01*
X126360851Y-89538614D01*
X126238974Y-89563943D01*
X126124380Y-89612563D01*
X126021473Y-89682605D01*
X125934208Y-89771377D01*
X125865938Y-89875468D01*
X125819287Y-89990878D01*
X125796048Y-90113171D01*
X125797114Y-90237649D01*
X126099964Y-93064249D01*
X125651207Y-92615492D01*
X125584347Y-92534023D01*
X125259251Y-92267223D01*
X124888352Y-92068974D01*
X124485903Y-91946892D01*
X124172252Y-91916000D01*
X124172242Y-91916000D01*
X124067370Y-91905671D01*
X123962498Y-91916000D01*
X118534194Y-91916000D01*
X118429320Y-91905671D01*
X118324445Y-91916000D01*
X118324438Y-91916000D01*
X118048321Y-91943195D01*
X118010786Y-91946892D01*
X117662942Y-92052410D01*
X117608338Y-92068974D01*
X117237439Y-92267223D01*
X117237437Y-92267224D01*
X117237438Y-92267224D01*
X116993810Y-92467164D01*
X116993807Y-92467167D01*
X116912343Y-92534023D01*
X116845487Y-92615487D01*
X114774975Y-94686000D01*
X113327721Y-94686000D01*
X113224349Y-94706562D01*
X113119467Y-94716892D01*
X113018616Y-94747485D01*
X112915244Y-94768047D01*
X112817869Y-94808381D01*
X112717018Y-94838974D01*
X112624073Y-94888654D01*
X112526698Y-94928988D01*
X112439064Y-94987543D01*
X112346119Y-95037223D01*
X112264653Y-95104081D01*
X112177017Y-95162637D01*
X112102487Y-95237167D01*
X112021023Y-95304023D01*
X111954167Y-95385487D01*
X111879637Y-95460017D01*
X111821081Y-95547653D01*
X111754223Y-95629119D01*
X111704543Y-95722064D01*
X111645988Y-95809698D01*
X111605654Y-95907073D01*
X111555974Y-96000018D01*
X111525381Y-96100869D01*
X111485047Y-96198244D01*
X111464485Y-96301616D01*
X111433892Y-96402467D01*
X111423562Y-96507349D01*
X111403000Y-96610721D01*
X111403000Y-96716118D01*
X111392670Y-96821000D01*
X111403000Y-96925882D01*
X111403000Y-97031279D01*
X111423562Y-97134651D01*
X111433892Y-97239533D01*
X111464485Y-97340384D01*
X111485047Y-97443756D01*
X111525381Y-97541131D01*
X111555974Y-97641982D01*
X111605654Y-97734927D01*
X111645988Y-97832302D01*
X111704543Y-97919936D01*
X111754223Y-98012881D01*
X111821081Y-98094347D01*
X111879637Y-98181983D01*
X111954167Y-98256513D01*
X112021023Y-98337977D01*
X112102487Y-98404833D01*
X112177017Y-98479363D01*
X112264653Y-98537919D01*
X112346119Y-98604777D01*
X112439064Y-98654457D01*
X112526698Y-98713012D01*
X112624073Y-98753346D01*
X112717018Y-98803026D01*
X112817869Y-98833619D01*
X112915244Y-98873953D01*
X113018616Y-98894515D01*
X113119467Y-98925108D01*
X113224349Y-98935438D01*
X113327721Y-98956000D01*
X115554448Y-98956000D01*
X115659320Y-98966329D01*
X115764192Y-98956000D01*
X115764202Y-98956000D01*
X116077853Y-98925108D01*
X116480302Y-98803026D01*
X116851201Y-98604777D01*
X117176297Y-98337977D01*
X117243157Y-98256508D01*
X119224399Y-96275267D01*
X119228719Y-96279587D01*
X119365479Y-96370967D01*
X119517440Y-96433911D01*
X119678760Y-96466000D01*
X119843240Y-96466000D01*
X120004560Y-96433911D01*
X120156521Y-96370967D01*
X120293281Y-96279587D01*
X120386868Y-96186000D01*
X120421725Y-96186000D01*
X120508479Y-96243967D01*
X120660440Y-96306911D01*
X120821760Y-96339000D01*
X120986240Y-96339000D01*
X121147560Y-96306911D01*
X121299521Y-96243967D01*
X121386275Y-96186000D01*
X121564725Y-96186000D01*
X121651479Y-96243967D01*
X121803440Y-96306911D01*
X121964760Y-96339000D01*
X122129240Y-96339000D01*
X122290560Y-96306911D01*
X122442521Y-96243967D01*
X122529275Y-96186000D01*
X123183025Y-96186000D01*
X125857000Y-98859976D01*
X125857000Y-99822000D01*
X125869201Y-99945882D01*
X125905336Y-100065004D01*
X125949927Y-100148426D01*
X125885213Y-100183017D01*
X125788987Y-100261987D01*
X125710017Y-100358213D01*
X125651336Y-100467996D01*
X125615201Y-100587118D01*
X125603000Y-100711000D01*
X125603000Y-106172000D01*
X125615201Y-106295882D01*
X125651336Y-106415004D01*
X125710017Y-106524787D01*
X125788987Y-106621013D01*
X125885213Y-106699983D01*
X125994996Y-106758664D01*
X126114118Y-106794799D01*
X126238000Y-106807000D01*
X129286000Y-106807000D01*
X129409882Y-106794799D01*
X129529004Y-106758664D01*
X129638787Y-106699983D01*
X129735013Y-106621013D01*
X129813983Y-106524787D01*
X129872664Y-106415004D01*
X129908799Y-106295882D01*
X129921000Y-106172000D01*
X129921000Y-102362000D01*
X130447042Y-102362000D01*
X130212197Y-102596845D01*
X130196403Y-102616091D01*
X130184667Y-102638047D01*
X130177440Y-102661872D01*
X130175000Y-102686648D01*
X130175000Y-105861648D01*
X130177440Y-105886424D01*
X130184667Y-105910249D01*
X130196403Y-105932205D01*
X130212197Y-105951451D01*
X130593197Y-106332451D01*
X130612443Y-106348245D01*
X130634399Y-106359981D01*
X130658224Y-106367208D01*
X130683000Y-106369648D01*
X132080000Y-106369648D01*
X132081385Y-106369640D01*
X138557652Y-106299000D01*
X140970000Y-106299000D01*
X140991690Y-106297134D01*
X141015686Y-106290498D01*
X141037926Y-106279308D01*
X141057555Y-106263995D01*
X141073820Y-106245146D01*
X141086096Y-106223486D01*
X141093909Y-106199848D01*
X141096961Y-106175139D01*
X141160461Y-103606963D01*
X141157055Y-103574443D01*
X141148948Y-103550903D01*
X141136406Y-103529397D01*
X140867312Y-103157338D01*
X141028987Y-103319013D01*
X141125213Y-103397983D01*
X141234996Y-103456664D01*
X141354118Y-103492799D01*
X141478000Y-103505000D01*
X141887655Y-103505000D01*
X142240000Y-103857345D01*
X142240000Y-106172000D01*
X142252201Y-106295882D01*
X142288336Y-106415004D01*
X142347017Y-106524787D01*
X142425987Y-106621013D01*
X142522213Y-106699983D01*
X142631996Y-106758664D01*
X142751118Y-106794799D01*
X142875000Y-106807000D01*
X146349867Y-106807000D01*
X146354013Y-106811146D01*
X146389551Y-106854449D01*
X146432854Y-106889987D01*
X146432856Y-106889989D01*
X146562377Y-106996284D01*
X146759553Y-107101676D01*
X146973501Y-107166577D01*
X147196000Y-107188491D01*
X147251752Y-107183000D01*
X149671015Y-107183000D01*
X149784150Y-107243472D01*
X149950746Y-107294008D01*
X150124000Y-107311072D01*
X151374000Y-107311072D01*
X151547254Y-107294008D01*
X151713850Y-107243472D01*
X151867001Y-107161611D01*
X151867001Y-108057618D01*
X151491620Y-108433000D01*
X123537808Y-108433000D01*
X123752179Y-108318417D01*
X123981345Y-108130345D01*
X124169417Y-107901179D01*
X124309166Y-107639725D01*
X124395224Y-107356032D01*
X124424282Y-107061000D01*
X124395224Y-106765968D01*
X124309166Y-106482275D01*
X124169417Y-106220821D01*
X123981345Y-105991655D01*
X123752179Y-105803583D01*
X123728638Y-105791000D01*
X123752179Y-105778417D01*
X123981345Y-105590345D01*
X124169417Y-105361179D01*
X124309166Y-105099725D01*
X124395224Y-104816032D01*
X124424282Y-104521000D01*
X124395224Y-104225968D01*
X124309166Y-103942275D01*
X124169417Y-103680821D01*
X123981345Y-103451655D01*
X123752179Y-103263583D01*
X123728638Y-103251000D01*
X123752179Y-103238417D01*
X123981345Y-103050345D01*
X124169417Y-102821179D01*
X124309166Y-102559725D01*
X124395224Y-102276032D01*
X124424282Y-101981000D01*
X124395224Y-101685968D01*
X124309166Y-101402275D01*
X124169417Y-101140821D01*
X123981345Y-100911655D01*
X123752179Y-100723583D01*
X123490725Y-100583834D01*
X123207032Y-100497776D01*
X122985936Y-100476000D01*
X122378064Y-100476000D01*
X122156968Y-100497776D01*
X121873275Y-100583834D01*
X121611821Y-100723583D01*
X121382655Y-100911655D01*
X121194583Y-101140821D01*
X121054834Y-101402275D01*
X120968776Y-101685968D01*
X120939718Y-101981000D01*
X120968776Y-102276032D01*
X121054834Y-102559725D01*
X121194583Y-102821179D01*
X121382655Y-103050345D01*
X121611821Y-103238417D01*
X121635362Y-103251000D01*
X121611821Y-103263583D01*
X121382655Y-103451655D01*
X121194583Y-103680821D01*
X121054834Y-103942275D01*
X120968776Y-104225968D01*
X120939718Y-104521000D01*
X120968776Y-104816032D01*
X121054834Y-105099725D01*
X121194583Y-105361179D01*
X121382655Y-105590345D01*
X121611821Y-105778417D01*
X121635362Y-105791000D01*
X121611821Y-105803583D01*
X121382655Y-105991655D01*
X121194583Y-106220821D01*
X121054834Y-106482275D01*
X120968776Y-106765968D01*
X120939718Y-107061000D01*
X120968776Y-107356032D01*
X121054834Y-107639725D01*
X121194583Y-107901179D01*
X121382655Y-108130345D01*
X121611821Y-108318417D01*
X121826192Y-108433000D01*
X111070832Y-108433000D01*
X110388000Y-107977779D01*
X110388000Y-88750515D01*
X110553212Y-88544000D01*
X130048000Y-88544000D01*
X130048000Y-89792863D01*
G36*
X151790396Y-88574135D02*
G01*
X151867000Y-88701808D01*
X151867000Y-97178389D01*
X151713850Y-97096528D01*
X151547254Y-97045992D01*
X151374000Y-97028928D01*
X150124000Y-97028928D01*
X149950746Y-97045992D01*
X149784150Y-97096528D01*
X149671015Y-97157000D01*
X149606000Y-97157000D01*
X149606000Y-96647000D01*
X149593799Y-96523118D01*
X149557664Y-96403996D01*
X149498983Y-96294213D01*
X149420013Y-96197987D01*
X149352000Y-96142171D01*
X149352000Y-95504000D01*
X149339799Y-95380118D01*
X149303664Y-95260996D01*
X149244983Y-95151213D01*
X149166013Y-95054987D01*
X149069787Y-94976017D01*
X148960004Y-94917336D01*
X148840882Y-94881201D01*
X148717000Y-94869000D01*
X148678328Y-94869000D01*
X148579560Y-94828089D01*
X148418240Y-94796000D01*
X148253760Y-94796000D01*
X148092440Y-94828089D01*
X147993672Y-94869000D01*
X147408328Y-94869000D01*
X147309560Y-94828089D01*
X147148240Y-94796000D01*
X146983760Y-94796000D01*
X146861638Y-94820292D01*
X145601837Y-93560492D01*
X145534977Y-93479023D01*
X145209881Y-93212223D01*
X144838982Y-93013974D01*
X144436533Y-92891892D01*
X144395000Y-92887801D01*
X144395000Y-92345245D01*
X144519886Y-92261799D01*
X144712799Y-92068886D01*
X144864371Y-91842043D01*
X144968775Y-91589989D01*
X145022000Y-91322411D01*
X145022000Y-91049589D01*
X144968775Y-90782011D01*
X144864371Y-90529957D01*
X144712799Y-90303114D01*
X144519886Y-90110201D01*
X144293043Y-89958629D01*
X144040989Y-89854225D01*
X143773411Y-89801000D01*
X143500589Y-89801000D01*
X143233011Y-89854225D01*
X142980957Y-89958629D01*
X142754114Y-90110201D01*
X142561201Y-90303114D01*
X142409629Y-90529957D01*
X142305225Y-90782011D01*
X142252000Y-91049589D01*
X142252000Y-91322411D01*
X142305225Y-91589989D01*
X142409629Y-91842043D01*
X142561201Y-92068886D01*
X142625001Y-92132686D01*
X142625000Y-92589454D01*
X142592787Y-92563017D01*
X142483004Y-92504336D01*
X142363882Y-92468201D01*
X142240000Y-92456000D01*
X141097000Y-92456000D01*
X140973118Y-92468201D01*
X140853996Y-92504336D01*
X140744213Y-92563017D01*
X140647987Y-92641987D01*
X140233575Y-93056399D01*
X140461523Y-90435002D01*
X140460886Y-90407215D01*
X140212457Y-88544000D01*
X148910343Y-88544000D01*
X151790396Y-88574135D01*
X151790396Y-88574135D01*
G37*
X151790396Y-88574135D02*
X151867000Y-88701808D01*
X151867000Y-97178389D01*
X151713850Y-97096528D01*
X151547254Y-97045992D01*
X151374000Y-97028928D01*
X150124000Y-97028928D01*
X149950746Y-97045992D01*
X149784150Y-97096528D01*
X149671015Y-97157000D01*
X149606000Y-97157000D01*
X149606000Y-96647000D01*
X149593799Y-96523118D01*
X149557664Y-96403996D01*
X149498983Y-96294213D01*
X149420013Y-96197987D01*
X149352000Y-96142171D01*
X149352000Y-95504000D01*
X149339799Y-95380118D01*
X149303664Y-95260996D01*
X149244983Y-95151213D01*
X149166013Y-95054987D01*
X149069787Y-94976017D01*
X148960004Y-94917336D01*
X148840882Y-94881201D01*
X148717000Y-94869000D01*
X148678328Y-94869000D01*
X148579560Y-94828089D01*
X148418240Y-94796000D01*
X148253760Y-94796000D01*
X148092440Y-94828089D01*
X147993672Y-94869000D01*
X147408328Y-94869000D01*
X147309560Y-94828089D01*
X147148240Y-94796000D01*
X146983760Y-94796000D01*
X146861638Y-94820292D01*
X145601837Y-93560492D01*
X145534977Y-93479023D01*
X145209881Y-93212223D01*
X144838982Y-93013974D01*
X144436533Y-92891892D01*
X144395000Y-92887801D01*
X144395000Y-92345245D01*
X144519886Y-92261799D01*
X144712799Y-92068886D01*
X144864371Y-91842043D01*
X144968775Y-91589989D01*
X145022000Y-91322411D01*
X145022000Y-91049589D01*
X144968775Y-90782011D01*
X144864371Y-90529957D01*
X144712799Y-90303114D01*
X144519886Y-90110201D01*
X144293043Y-89958629D01*
X144040989Y-89854225D01*
X143773411Y-89801000D01*
X143500589Y-89801000D01*
X143233011Y-89854225D01*
X142980957Y-89958629D01*
X142754114Y-90110201D01*
X142561201Y-90303114D01*
X142409629Y-90529957D01*
X142305225Y-90782011D01*
X142252000Y-91049589D01*
X142252000Y-91322411D01*
X142305225Y-91589989D01*
X142409629Y-91842043D01*
X142561201Y-92068886D01*
X142625001Y-92132686D01*
X142625000Y-92589454D01*
X142592787Y-92563017D01*
X142483004Y-92504336D01*
X142363882Y-92468201D01*
X142240000Y-92456000D01*
X141097000Y-92456000D01*
X140973118Y-92468201D01*
X140853996Y-92504336D01*
X140744213Y-92563017D01*
X140647987Y-92641987D01*
X140233575Y-93056399D01*
X140461523Y-90435002D01*
X140460886Y-90407215D01*
X140212457Y-88544000D01*
X148910343Y-88544000D01*
X151790396Y-88574135D01*
G36*
X130302000Y-93726000D02*
G01*
X130175000Y-93726000D01*
X130175000Y-93630750D01*
X130302000Y-93726000D01*
X130302000Y-93726000D01*
G37*
X130302000Y-93726000D02*
X130175000Y-93726000D01*
X130175000Y-93630750D01*
X130302000Y-93726000D01*
M02*
