G04 #@! TF.GenerationSoftware,KiCad,Pcbnew,5.1.2-f72e74a~84~ubuntu18.04.1*
G04 #@! TF.CreationDate,2020-01-10T04:29:40+01:00*
G04 #@! TF.ProjectId,BridgeElectrobot,42726964-6765-4456-9c65-6374726f626f,1.0*
G04 #@! TF.SameCoordinates,Original*
G04 #@! TF.FileFunction,Legend,Top*
G04 #@! TF.FilePolarity,Positive*
%FSLAX46Y46*%
G04 Gerber Fmt 4.6, Leading zero omitted, Abs format (unit mm)*
G04 Created by KiCad (PCBNEW 5.1.2-f72e74a~84~ubuntu18.04.1) date 2020-01-10 04:29:40*
%MOMM*%
%LPD*%
G04 APERTURE LIST*
%ADD10C,0.300000*%
%ADD11C,0.150000*%
%ADD12C,0.120000*%
G04 APERTURE END LIST*
D10*
X131418000Y-93599000D02*
G75*
G03X131418000Y-93599000I-100000J0D01*
G01*
D11*
X126897952Y-88828571D02*
X127040809Y-88876190D01*
X127088428Y-88923809D01*
X127136047Y-89019047D01*
X127136047Y-89161904D01*
X127088428Y-89257142D01*
X127040809Y-89304761D01*
X126945571Y-89352380D01*
X126564619Y-89352380D01*
X126564619Y-88352380D01*
X126897952Y-88352380D01*
X126993190Y-88400000D01*
X127040809Y-88447619D01*
X127088428Y-88542857D01*
X127088428Y-88638095D01*
X127040809Y-88733333D01*
X126993190Y-88780952D01*
X126897952Y-88828571D01*
X126564619Y-88828571D01*
X128136047Y-89352380D02*
X127802714Y-88876190D01*
X127564619Y-89352380D02*
X127564619Y-88352380D01*
X127945571Y-88352380D01*
X128040809Y-88400000D01*
X128088428Y-88447619D01*
X128136047Y-88542857D01*
X128136047Y-88685714D01*
X128088428Y-88780952D01*
X128040809Y-88828571D01*
X127945571Y-88876190D01*
X127564619Y-88876190D01*
X128564619Y-89352380D02*
X128564619Y-88352380D01*
X129040809Y-89352380D02*
X129040809Y-88352380D01*
X129278904Y-88352380D01*
X129421761Y-88400000D01*
X129517000Y-88495238D01*
X129564619Y-88590476D01*
X129612238Y-88780952D01*
X129612238Y-88923809D01*
X129564619Y-89114285D01*
X129517000Y-89209523D01*
X129421761Y-89304761D01*
X129278904Y-89352380D01*
X129040809Y-89352380D01*
X130564619Y-88400000D02*
X130469380Y-88352380D01*
X130326523Y-88352380D01*
X130183666Y-88400000D01*
X130088428Y-88495238D01*
X130040809Y-88590476D01*
X129993190Y-88780952D01*
X129993190Y-88923809D01*
X130040809Y-89114285D01*
X130088428Y-89209523D01*
X130183666Y-89304761D01*
X130326523Y-89352380D01*
X130421761Y-89352380D01*
X130564619Y-89304761D01*
X130612238Y-89257142D01*
X130612238Y-88923809D01*
X130421761Y-88923809D01*
X131040809Y-88828571D02*
X131374142Y-88828571D01*
X131517000Y-89352380D02*
X131040809Y-89352380D01*
X131040809Y-88352380D01*
X131517000Y-88352380D01*
X132707476Y-88828571D02*
X133040809Y-88828571D01*
X133183666Y-89352380D02*
X132707476Y-89352380D01*
X132707476Y-88352380D01*
X133183666Y-88352380D01*
X134088428Y-89352380D02*
X133612238Y-89352380D01*
X133612238Y-88352380D01*
X134421761Y-88828571D02*
X134755095Y-88828571D01*
X134897952Y-89352380D02*
X134421761Y-89352380D01*
X134421761Y-88352380D01*
X134897952Y-88352380D01*
X135897952Y-89257142D02*
X135850333Y-89304761D01*
X135707476Y-89352380D01*
X135612238Y-89352380D01*
X135469380Y-89304761D01*
X135374142Y-89209523D01*
X135326523Y-89114285D01*
X135278904Y-88923809D01*
X135278904Y-88780952D01*
X135326523Y-88590476D01*
X135374142Y-88495238D01*
X135469380Y-88400000D01*
X135612238Y-88352380D01*
X135707476Y-88352380D01*
X135850333Y-88400000D01*
X135897952Y-88447619D01*
X136183666Y-88352380D02*
X136755095Y-88352380D01*
X136469380Y-89352380D02*
X136469380Y-88352380D01*
X137659857Y-89352380D02*
X137326523Y-88876190D01*
X137088428Y-89352380D02*
X137088428Y-88352380D01*
X137469380Y-88352380D01*
X137564619Y-88400000D01*
X137612238Y-88447619D01*
X137659857Y-88542857D01*
X137659857Y-88685714D01*
X137612238Y-88780952D01*
X137564619Y-88828571D01*
X137469380Y-88876190D01*
X137088428Y-88876190D01*
X138278904Y-88352380D02*
X138469380Y-88352380D01*
X138564619Y-88400000D01*
X138659857Y-88495238D01*
X138707476Y-88685714D01*
X138707476Y-89019047D01*
X138659857Y-89209523D01*
X138564619Y-89304761D01*
X138469380Y-89352380D01*
X138278904Y-89352380D01*
X138183666Y-89304761D01*
X138088428Y-89209523D01*
X138040809Y-89019047D01*
X138040809Y-88685714D01*
X138088428Y-88495238D01*
X138183666Y-88400000D01*
X138278904Y-88352380D01*
X139469380Y-88828571D02*
X139612238Y-88876190D01*
X139659857Y-88923809D01*
X139707476Y-89019047D01*
X139707476Y-89161904D01*
X139659857Y-89257142D01*
X139612238Y-89304761D01*
X139517000Y-89352380D01*
X139136047Y-89352380D01*
X139136047Y-88352380D01*
X139469380Y-88352380D01*
X139564619Y-88400000D01*
X139612238Y-88447619D01*
X139659857Y-88542857D01*
X139659857Y-88638095D01*
X139612238Y-88733333D01*
X139564619Y-88780952D01*
X139469380Y-88828571D01*
X139136047Y-88828571D01*
X140326523Y-88352380D02*
X140517000Y-88352380D01*
X140612238Y-88400000D01*
X140707476Y-88495238D01*
X140755095Y-88685714D01*
X140755095Y-89019047D01*
X140707476Y-89209523D01*
X140612238Y-89304761D01*
X140517000Y-89352380D01*
X140326523Y-89352380D01*
X140231285Y-89304761D01*
X140136047Y-89209523D01*
X140088428Y-89019047D01*
X140088428Y-88685714D01*
X140136047Y-88495238D01*
X140231285Y-88400000D01*
X140326523Y-88352380D01*
X141040809Y-88352380D02*
X141612238Y-88352380D01*
X141326523Y-89352380D02*
X141326523Y-88352380D01*
X142564619Y-88352380D02*
X142897952Y-89352380D01*
X143231285Y-88352380D01*
X144088428Y-89352380D02*
X143517000Y-89352380D01*
X143802714Y-89352380D02*
X143802714Y-88352380D01*
X143707476Y-88495238D01*
X143612238Y-88590476D01*
X143517000Y-88638095D01*
X144517000Y-89257142D02*
X144564619Y-89304761D01*
X144517000Y-89352380D01*
X144469380Y-89304761D01*
X144517000Y-89257142D01*
X144517000Y-89352380D01*
X145183666Y-88352380D02*
X145278904Y-88352380D01*
X145374142Y-88400000D01*
X145421761Y-88447619D01*
X145469380Y-88542857D01*
X145517000Y-88733333D01*
X145517000Y-88971428D01*
X145469380Y-89161904D01*
X145421761Y-89257142D01*
X145374142Y-89304761D01*
X145278904Y-89352380D01*
X145183666Y-89352380D01*
X145088428Y-89304761D01*
X145040809Y-89257142D01*
X144993190Y-89161904D01*
X144945571Y-88971428D01*
X144945571Y-88733333D01*
X144993190Y-88542857D01*
X145040809Y-88447619D01*
X145088428Y-88400000D01*
X145183666Y-88352380D01*
D12*
X127056000Y-92301000D02*
G75*
G03X127056000Y-92301000I-4120000J0D01*
G01*
X151884000Y-106933000D02*
X151884000Y-103048000D01*
X149614000Y-106933000D02*
X151884000Y-106933000D01*
X149614000Y-103048000D02*
X149614000Y-106933000D01*
X149614000Y-98092000D02*
X149614000Y-101977000D01*
X149614000Y-101977000D02*
X151884000Y-101977000D01*
X151884000Y-101977000D02*
X151884000Y-98092000D01*
X125712000Y-98061000D02*
X119692000Y-98061000D01*
X119692000Y-98061000D02*
X119692000Y-108441000D01*
X119692000Y-108441000D02*
X125712000Y-108441000D01*
X125712000Y-108441000D02*
X125712000Y-98061000D01*
X124682000Y-97771000D02*
X120682000Y-97771000D01*
X119692000Y-99441000D02*
X120692000Y-99441000D01*
X120692000Y-99441000D02*
X120692000Y-107061000D01*
X120692000Y-107061000D02*
X119692000Y-107061000D01*
X120692000Y-99441000D02*
X121222000Y-99691000D01*
X121222000Y-99691000D02*
X121222000Y-106811000D01*
X121222000Y-106811000D02*
X120692000Y-107061000D01*
X119692000Y-99691000D02*
X120692000Y-99691000D01*
X119692000Y-106811000D02*
X120692000Y-106811000D01*
X125712000Y-98641000D02*
X125112000Y-98641000D01*
X125112000Y-98641000D02*
X125112000Y-100241000D01*
X125112000Y-100241000D02*
X125712000Y-100241000D01*
X125712000Y-101181000D02*
X125112000Y-101181000D01*
X125112000Y-101181000D02*
X125112000Y-102781000D01*
X125112000Y-102781000D02*
X125712000Y-102781000D01*
X125712000Y-103721000D02*
X125112000Y-103721000D01*
X125112000Y-103721000D02*
X125112000Y-105321000D01*
X125112000Y-105321000D02*
X125712000Y-105321000D01*
X125712000Y-106261000D02*
X125112000Y-106261000D01*
X125112000Y-106261000D02*
X125112000Y-107861000D01*
X125112000Y-107861000D02*
X125712000Y-107861000D01*
X114948000Y-89111000D02*
X112128000Y-89111000D01*
X112128000Y-89111000D02*
X110828000Y-90811000D01*
X114948000Y-89111000D02*
X116248000Y-90811000D01*
X110828000Y-90811000D02*
X110828000Y-99531000D01*
X116248000Y-99531000D02*
X110828000Y-99531000D01*
X116248000Y-90811000D02*
X116248000Y-99531000D01*
X147587000Y-95588000D02*
X144767000Y-95588000D01*
X144767000Y-95588000D02*
X143467000Y-97288000D01*
X147587000Y-95588000D02*
X148887000Y-97288000D01*
X143467000Y-97288000D02*
X143467000Y-106008000D01*
X148887000Y-106008000D02*
X143467000Y-106008000D01*
X148887000Y-97288000D02*
X148887000Y-106008000D01*
X144587000Y-91186000D02*
G75*
G03X144587000Y-91186000I-950000J0D01*
G01*
X135382000Y-103104000D02*
X137332000Y-103104000D01*
X135382000Y-103104000D02*
X133432000Y-103104000D01*
X135382000Y-92984000D02*
X137332000Y-92984000D01*
X135382000Y-92984000D02*
X131932000Y-92984000D01*
D11*
X118705333Y-89074142D02*
X118657714Y-89121761D01*
X118514857Y-89169380D01*
X118419619Y-89169380D01*
X118276761Y-89121761D01*
X118181523Y-89026523D01*
X118133904Y-88931285D01*
X118086285Y-88740809D01*
X118086285Y-88597952D01*
X118133904Y-88407476D01*
X118181523Y-88312238D01*
X118276761Y-88217000D01*
X118419619Y-88169380D01*
X118514857Y-88169380D01*
X118657714Y-88217000D01*
X118705333Y-88264619D01*
X119657714Y-89169380D02*
X119086285Y-89169380D01*
X119372000Y-89169380D02*
X119372000Y-88169380D01*
X119276761Y-88312238D01*
X119181523Y-88407476D01*
X119086285Y-88455095D01*
X149883904Y-108021380D02*
X149883904Y-107021380D01*
X150122000Y-107021380D01*
X150264857Y-107069000D01*
X150360095Y-107164238D01*
X150407714Y-107259476D01*
X150455333Y-107449952D01*
X150455333Y-107592809D01*
X150407714Y-107783285D01*
X150360095Y-107878523D01*
X150264857Y-107973761D01*
X150122000Y-108021380D01*
X149883904Y-108021380D01*
X151407714Y-108021380D02*
X150836285Y-108021380D01*
X151122000Y-108021380D02*
X151122000Y-107021380D01*
X151026761Y-107164238D01*
X150931523Y-107259476D01*
X150836285Y-107307095D01*
X149883904Y-97099380D02*
X149883904Y-96099380D01*
X150122000Y-96099380D01*
X150264857Y-96147000D01*
X150360095Y-96242238D01*
X150407714Y-96337476D01*
X150455333Y-96527952D01*
X150455333Y-96670809D01*
X150407714Y-96861285D01*
X150360095Y-96956523D01*
X150264857Y-97051761D01*
X150122000Y-97099380D01*
X149883904Y-97099380D01*
X150836285Y-96194619D02*
X150883904Y-96147000D01*
X150979142Y-96099380D01*
X151217238Y-96099380D01*
X151312476Y-96147000D01*
X151360095Y-96194619D01*
X151407714Y-96289857D01*
X151407714Y-96385095D01*
X151360095Y-96527952D01*
X150788666Y-97099380D01*
X151407714Y-97099380D01*
X118030666Y-107656380D02*
X118030666Y-108370666D01*
X117983047Y-108513523D01*
X117887809Y-108608761D01*
X117744952Y-108656380D01*
X117649714Y-108656380D01*
X119030666Y-108656380D02*
X118459238Y-108656380D01*
X118744952Y-108656380D02*
X118744952Y-107656380D01*
X118649714Y-107799238D01*
X118554476Y-107894476D01*
X118459238Y-107942095D01*
X115617666Y-100163380D02*
X115617666Y-100877666D01*
X115570047Y-101020523D01*
X115474809Y-101115761D01*
X115331952Y-101163380D01*
X115236714Y-101163380D01*
X116046238Y-100258619D02*
X116093857Y-100211000D01*
X116189095Y-100163380D01*
X116427190Y-100163380D01*
X116522428Y-100211000D01*
X116570047Y-100258619D01*
X116617666Y-100353857D01*
X116617666Y-100449095D01*
X116570047Y-100591952D01*
X115998619Y-101163380D01*
X116617666Y-101163380D01*
X113645142Y-101392428D02*
X113645142Y-100249571D01*
X114216571Y-100821000D02*
X113073714Y-100821000D01*
X116141571Y-89388142D02*
X117284428Y-89388142D01*
X143811666Y-106640380D02*
X143811666Y-107354666D01*
X143764047Y-107497523D01*
X143668809Y-107592761D01*
X143525952Y-107640380D01*
X143430714Y-107640380D01*
X144192619Y-106640380D02*
X144811666Y-106640380D01*
X144478333Y-107021333D01*
X144621190Y-107021333D01*
X144716428Y-107068952D01*
X144764047Y-107116571D01*
X144811666Y-107211809D01*
X144811666Y-107449904D01*
X144764047Y-107545142D01*
X144716428Y-107592761D01*
X144621190Y-107640380D01*
X144335476Y-107640380D01*
X144240238Y-107592761D01*
X144192619Y-107545142D01*
X149332142Y-96456428D02*
X149332142Y-95313571D01*
X146284142Y-107869428D02*
X146284142Y-106726571D01*
X146855571Y-107298000D02*
X145712714Y-107298000D01*
X142373476Y-93668904D02*
X142830619Y-93668904D01*
X142602047Y-94468904D02*
X142602047Y-93668904D01*
X143097285Y-94468904D02*
X143097285Y-93668904D01*
X143402047Y-93668904D01*
X143478238Y-93707000D01*
X143516333Y-93745095D01*
X143554428Y-93821285D01*
X143554428Y-93935571D01*
X143516333Y-94011761D01*
X143478238Y-94049857D01*
X143402047Y-94087952D01*
X143097285Y-94087952D01*
X144316333Y-94468904D02*
X143859190Y-94468904D01*
X144087761Y-94468904D02*
X144087761Y-93668904D01*
X144011571Y-93783190D01*
X143935380Y-93859380D01*
X143859190Y-93897476D01*
X134620095Y-91596380D02*
X134620095Y-92405904D01*
X134667714Y-92501142D01*
X134715333Y-92548761D01*
X134810571Y-92596380D01*
X135001047Y-92596380D01*
X135096285Y-92548761D01*
X135143904Y-92501142D01*
X135191523Y-92405904D01*
X135191523Y-91596380D01*
X136191523Y-92596380D02*
X135620095Y-92596380D01*
X135905809Y-92596380D02*
X135905809Y-91596380D01*
X135810571Y-91739238D01*
X135715333Y-91834476D01*
X135620095Y-91882095D01*
M02*
