M48
; DRILL file {KiCad 5.1.2-f72e74a~84~ubuntu18.04.1} date ven. 10 janv. 2020 04:29:44 CET
; FORMAT={-:-/ absolute / inch / decimal}
; #@! TF.CreationDate,2020-01-10T04:29:44+01:00
; #@! TF.GenerationSoftware,Kicad,Pcbnew,5.1.2-f72e74a~84~ubuntu18.04.1
; #@! TF.FileFunction,Plated,1,2,PTH
FMAT,2
INCH
T1C0.0118
T2C0.0157
T3C0.0315
T4C0.0472
T5C0.0709
T6C0.1260
%
G90
G05
T1
X4.55Y-3.79
X4.55Y-3.835
X4.59Y-3.77
X4.59Y-3.815
X4.63Y-3.75
X4.635Y-3.79
X4.67Y-3.725
X4.67Y-3.765
X4.715Y-3.725
X4.715Y-3.765
X4.76Y-3.725
X4.76Y-3.76
X4.805Y-3.76
X5.15Y-3.565
X5.15Y-3.6044
X5.15Y-3.6044
X5.15Y-3.6044
X5.15Y-3.6437
X5.15Y-3.6437
X5.15Y-3.6437
X5.15Y-3.6831
X5.15Y-3.6831
X5.15Y-3.6831
X5.15Y-4.045
X5.15Y-4.0844
X5.15Y-4.1237
X5.15Y-4.1631
X5.1894Y-3.565
X5.1894Y-3.565
X5.1894Y-3.565
X5.1894Y-3.6044
X5.1894Y-3.6044
X5.1894Y-3.6044
X5.1894Y-3.6437
X5.1894Y-3.6437
X5.1894Y-3.6437
X5.1894Y-4.0844
X5.1894Y-4.1237
X5.1894Y-4.1631
X5.2287Y-3.565
X5.2287Y-3.565
X5.2287Y-3.565
X5.2287Y-3.6044
X5.2287Y-3.6044
X5.2287Y-3.6044
X5.2287Y-3.6437
X5.2287Y-3.6437
X5.2287Y-3.6437
X5.2287Y-4.0844
X5.2287Y-4.1237
X5.2287Y-4.1631
X5.2681Y-3.565
X5.2681Y-3.565
X5.2681Y-3.565
X5.2681Y-3.6044
X5.2681Y-3.6044
X5.2681Y-3.6044
X5.2681Y-3.6437
X5.2681Y-3.6437
X5.2681Y-3.6437
X5.2681Y-4.0844
X5.2681Y-4.1237
X5.2681Y-4.1631
X5.3075Y-3.565
X5.3075Y-3.565
X5.3075Y-3.565
X5.3075Y-3.6044
X5.3075Y-3.6044
X5.3075Y-3.6044
X5.3075Y-3.6437
X5.3075Y-3.6437
X5.3075Y-3.6437
X5.3075Y-3.6831
X5.3075Y-3.6831
X5.3075Y-3.6831
X5.3075Y-4.045
X5.3075Y-4.0844
X5.3075Y-4.1237
X5.3075Y-4.1631
X5.3469Y-3.565
X5.3469Y-3.565
X5.3469Y-3.6044
X5.3469Y-3.6044
X5.3469Y-3.6437
X5.3469Y-3.6437
X5.3469Y-3.6831
X5.3469Y-3.6831
X5.3862Y-3.565
X5.3862Y-3.565
X5.3862Y-3.6044
X5.3862Y-3.6044
X5.3862Y-3.6437
X5.3862Y-3.6437
X5.4256Y-3.565
X5.4256Y-3.565
X5.4256Y-3.6044
X5.4256Y-3.6044
X5.4256Y-3.6437
X5.4256Y-3.6437
X5.4256Y-4.0844
X5.4256Y-4.1237
X5.4256Y-4.1631
X5.465Y-3.565
X5.465Y-3.6044
X5.465Y-3.6437
X5.465Y-4.0844
X5.465Y-4.1237
X5.465Y-4.1631
X5.5043Y-4.045
X5.5043Y-4.0844
X5.5043Y-4.1237
X5.5043Y-4.1631
X5.5437Y-4.045
X5.5437Y-4.0844
X5.5437Y-4.1237
X5.5437Y-4.1631
X5.65Y-3.66
X5.65Y-4.005
X5.65Y-4.05
X5.65Y-4.095
X5.65Y-4.135
X5.67Y-3.83
X5.67Y-3.8694
X5.67Y-3.9087
X5.67Y-4.075
X5.67Y-4.115
X5.675Y-4.03
X5.695Y-4.135
X5.7Y-3.99
X5.7094Y-3.9481
X5.71Y-3.765
X5.71Y-3.795
X5.72Y-4.16
X5.7487Y-3.9481
X5.75Y-3.765
X5.75Y-3.795
X5.755Y-4.15
X5.76Y-3.985
X5.7881Y-3.9481
X5.79Y-3.765
X5.79Y-3.795
X5.8Y-4.16
X5.8184Y-4.0034
X5.825Y-4.135
X5.8275Y-3.83
X5.8275Y-3.8694
X5.83Y-3.795
X5.83Y-4.03
X5.835Y-4.065
X5.84Y-3.765
X5.84Y-4.11
X5.855Y-3.815
X5.86Y-4.005
X5.86Y-4.045
X5.86Y-4.09
X5.86Y-4.135
T2
X5.3Y-3.785
X5.305Y-3.935
X5.365Y-3.835
X5.365Y-3.935
X5.935Y-4.02
T3
X4.84Y-3.565
X4.84Y-3.7028
T4
X4.83Y-3.915
X4.83Y-4.015
X4.83Y-4.115
X4.83Y-4.215
T5
X4.47Y-3.615
X4.47Y-3.8119
X5.755Y-3.87
X5.755Y-4.0669
T6
X4.465Y-4.135
X5.845Y-3.61
T0
M30
