G04 #@! TF.GenerationSoftware,KiCad,Pcbnew,5.1.2-f72e74a~84~ubuntu18.04.1*
G04 #@! TF.CreationDate,2020-01-10T04:29:40+01:00*
G04 #@! TF.ProjectId,BridgeElectrobot,42726964-6765-4456-9c65-6374726f626f,1.0*
G04 #@! TF.SameCoordinates,Original*
G04 #@! TF.FileFunction,Paste,Top*
G04 #@! TF.FilePolarity,Positive*
%FSLAX46Y46*%
G04 Gerber Fmt 4.6, Leading zero omitted, Abs format (unit mm)*
G04 Created by KiCad (PCBNEW 5.1.2-f72e74a~84~ubuntu18.04.1) date 2020-01-10 04:29:40*
%MOMM*%
%LPD*%
G04 APERTURE LIST*
%ADD10C,0.100000*%
%ADD11C,1.250000*%
%ADD12C,0.600000*%
G04 APERTURE END LIST*
D10*
G36*
X151398504Y-102624204D02*
G01*
X151422773Y-102627804D01*
X151446571Y-102633765D01*
X151469671Y-102642030D01*
X151491849Y-102652520D01*
X151512893Y-102665133D01*
X151532598Y-102679747D01*
X151550777Y-102696223D01*
X151567253Y-102714402D01*
X151581867Y-102734107D01*
X151594480Y-102755151D01*
X151604970Y-102777329D01*
X151613235Y-102800429D01*
X151619196Y-102824227D01*
X151622796Y-102848496D01*
X151624000Y-102873000D01*
X151624000Y-103623000D01*
X151622796Y-103647504D01*
X151619196Y-103671773D01*
X151613235Y-103695571D01*
X151604970Y-103718671D01*
X151594480Y-103740849D01*
X151581867Y-103761893D01*
X151567253Y-103781598D01*
X151550777Y-103799777D01*
X151532598Y-103816253D01*
X151512893Y-103830867D01*
X151491849Y-103843480D01*
X151469671Y-103853970D01*
X151446571Y-103862235D01*
X151422773Y-103868196D01*
X151398504Y-103871796D01*
X151374000Y-103873000D01*
X150124000Y-103873000D01*
X150099496Y-103871796D01*
X150075227Y-103868196D01*
X150051429Y-103862235D01*
X150028329Y-103853970D01*
X150006151Y-103843480D01*
X149985107Y-103830867D01*
X149965402Y-103816253D01*
X149947223Y-103799777D01*
X149930747Y-103781598D01*
X149916133Y-103761893D01*
X149903520Y-103740849D01*
X149893030Y-103718671D01*
X149884765Y-103695571D01*
X149878804Y-103671773D01*
X149875204Y-103647504D01*
X149874000Y-103623000D01*
X149874000Y-102873000D01*
X149875204Y-102848496D01*
X149878804Y-102824227D01*
X149884765Y-102800429D01*
X149893030Y-102777329D01*
X149903520Y-102755151D01*
X149916133Y-102734107D01*
X149930747Y-102714402D01*
X149947223Y-102696223D01*
X149965402Y-102679747D01*
X149985107Y-102665133D01*
X150006151Y-102652520D01*
X150028329Y-102642030D01*
X150051429Y-102633765D01*
X150075227Y-102627804D01*
X150099496Y-102624204D01*
X150124000Y-102623000D01*
X151374000Y-102623000D01*
X151398504Y-102624204D01*
X151398504Y-102624204D01*
G37*
D11*
X150749000Y-103248000D03*
D10*
G36*
X151398504Y-105424204D02*
G01*
X151422773Y-105427804D01*
X151446571Y-105433765D01*
X151469671Y-105442030D01*
X151491849Y-105452520D01*
X151512893Y-105465133D01*
X151532598Y-105479747D01*
X151550777Y-105496223D01*
X151567253Y-105514402D01*
X151581867Y-105534107D01*
X151594480Y-105555151D01*
X151604970Y-105577329D01*
X151613235Y-105600429D01*
X151619196Y-105624227D01*
X151622796Y-105648496D01*
X151624000Y-105673000D01*
X151624000Y-106423000D01*
X151622796Y-106447504D01*
X151619196Y-106471773D01*
X151613235Y-106495571D01*
X151604970Y-106518671D01*
X151594480Y-106540849D01*
X151581867Y-106561893D01*
X151567253Y-106581598D01*
X151550777Y-106599777D01*
X151532598Y-106616253D01*
X151512893Y-106630867D01*
X151491849Y-106643480D01*
X151469671Y-106653970D01*
X151446571Y-106662235D01*
X151422773Y-106668196D01*
X151398504Y-106671796D01*
X151374000Y-106673000D01*
X150124000Y-106673000D01*
X150099496Y-106671796D01*
X150075227Y-106668196D01*
X150051429Y-106662235D01*
X150028329Y-106653970D01*
X150006151Y-106643480D01*
X149985107Y-106630867D01*
X149965402Y-106616253D01*
X149947223Y-106599777D01*
X149930747Y-106581598D01*
X149916133Y-106561893D01*
X149903520Y-106540849D01*
X149893030Y-106518671D01*
X149884765Y-106495571D01*
X149878804Y-106471773D01*
X149875204Y-106447504D01*
X149874000Y-106423000D01*
X149874000Y-105673000D01*
X149875204Y-105648496D01*
X149878804Y-105624227D01*
X149884765Y-105600429D01*
X149893030Y-105577329D01*
X149903520Y-105555151D01*
X149916133Y-105534107D01*
X149930747Y-105514402D01*
X149947223Y-105496223D01*
X149965402Y-105479747D01*
X149985107Y-105465133D01*
X150006151Y-105452520D01*
X150028329Y-105442030D01*
X150051429Y-105433765D01*
X150075227Y-105427804D01*
X150099496Y-105424204D01*
X150124000Y-105423000D01*
X151374000Y-105423000D01*
X151398504Y-105424204D01*
X151398504Y-105424204D01*
G37*
D11*
X150749000Y-106048000D03*
D10*
G36*
X151398504Y-100468204D02*
G01*
X151422773Y-100471804D01*
X151446571Y-100477765D01*
X151469671Y-100486030D01*
X151491849Y-100496520D01*
X151512893Y-100509133D01*
X151532598Y-100523747D01*
X151550777Y-100540223D01*
X151567253Y-100558402D01*
X151581867Y-100578107D01*
X151594480Y-100599151D01*
X151604970Y-100621329D01*
X151613235Y-100644429D01*
X151619196Y-100668227D01*
X151622796Y-100692496D01*
X151624000Y-100717000D01*
X151624000Y-101467000D01*
X151622796Y-101491504D01*
X151619196Y-101515773D01*
X151613235Y-101539571D01*
X151604970Y-101562671D01*
X151594480Y-101584849D01*
X151581867Y-101605893D01*
X151567253Y-101625598D01*
X151550777Y-101643777D01*
X151532598Y-101660253D01*
X151512893Y-101674867D01*
X151491849Y-101687480D01*
X151469671Y-101697970D01*
X151446571Y-101706235D01*
X151422773Y-101712196D01*
X151398504Y-101715796D01*
X151374000Y-101717000D01*
X150124000Y-101717000D01*
X150099496Y-101715796D01*
X150075227Y-101712196D01*
X150051429Y-101706235D01*
X150028329Y-101697970D01*
X150006151Y-101687480D01*
X149985107Y-101674867D01*
X149965402Y-101660253D01*
X149947223Y-101643777D01*
X149930747Y-101625598D01*
X149916133Y-101605893D01*
X149903520Y-101584849D01*
X149893030Y-101562671D01*
X149884765Y-101539571D01*
X149878804Y-101515773D01*
X149875204Y-101491504D01*
X149874000Y-101467000D01*
X149874000Y-100717000D01*
X149875204Y-100692496D01*
X149878804Y-100668227D01*
X149884765Y-100644429D01*
X149893030Y-100621329D01*
X149903520Y-100599151D01*
X149916133Y-100578107D01*
X149930747Y-100558402D01*
X149947223Y-100540223D01*
X149965402Y-100523747D01*
X149985107Y-100509133D01*
X150006151Y-100496520D01*
X150028329Y-100486030D01*
X150051429Y-100477765D01*
X150075227Y-100471804D01*
X150099496Y-100468204D01*
X150124000Y-100467000D01*
X151374000Y-100467000D01*
X151398504Y-100468204D01*
X151398504Y-100468204D01*
G37*
D11*
X150749000Y-101092000D03*
D10*
G36*
X151398504Y-97668204D02*
G01*
X151422773Y-97671804D01*
X151446571Y-97677765D01*
X151469671Y-97686030D01*
X151491849Y-97696520D01*
X151512893Y-97709133D01*
X151532598Y-97723747D01*
X151550777Y-97740223D01*
X151567253Y-97758402D01*
X151581867Y-97778107D01*
X151594480Y-97799151D01*
X151604970Y-97821329D01*
X151613235Y-97844429D01*
X151619196Y-97868227D01*
X151622796Y-97892496D01*
X151624000Y-97917000D01*
X151624000Y-98667000D01*
X151622796Y-98691504D01*
X151619196Y-98715773D01*
X151613235Y-98739571D01*
X151604970Y-98762671D01*
X151594480Y-98784849D01*
X151581867Y-98805893D01*
X151567253Y-98825598D01*
X151550777Y-98843777D01*
X151532598Y-98860253D01*
X151512893Y-98874867D01*
X151491849Y-98887480D01*
X151469671Y-98897970D01*
X151446571Y-98906235D01*
X151422773Y-98912196D01*
X151398504Y-98915796D01*
X151374000Y-98917000D01*
X150124000Y-98917000D01*
X150099496Y-98915796D01*
X150075227Y-98912196D01*
X150051429Y-98906235D01*
X150028329Y-98897970D01*
X150006151Y-98887480D01*
X149985107Y-98874867D01*
X149965402Y-98860253D01*
X149947223Y-98843777D01*
X149930747Y-98825598D01*
X149916133Y-98805893D01*
X149903520Y-98784849D01*
X149893030Y-98762671D01*
X149884765Y-98739571D01*
X149878804Y-98715773D01*
X149875204Y-98691504D01*
X149874000Y-98667000D01*
X149874000Y-97917000D01*
X149875204Y-97892496D01*
X149878804Y-97868227D01*
X149884765Y-97844429D01*
X149893030Y-97821329D01*
X149903520Y-97799151D01*
X149916133Y-97778107D01*
X149930747Y-97758402D01*
X149947223Y-97740223D01*
X149965402Y-97723747D01*
X149985107Y-97709133D01*
X150006151Y-97696520D01*
X150028329Y-97686030D01*
X150051429Y-97677765D01*
X150075227Y-97671804D01*
X150099496Y-97668204D01*
X150124000Y-97667000D01*
X151374000Y-97667000D01*
X151398504Y-97668204D01*
X151398504Y-97668204D01*
G37*
D11*
X150749000Y-98292000D03*
D10*
G36*
X133746703Y-93299722D02*
G01*
X133761264Y-93301882D01*
X133775543Y-93305459D01*
X133789403Y-93310418D01*
X133802710Y-93316712D01*
X133815336Y-93324280D01*
X133827159Y-93333048D01*
X133838066Y-93342934D01*
X133847952Y-93353841D01*
X133856720Y-93365664D01*
X133864288Y-93378290D01*
X133870582Y-93391597D01*
X133875541Y-93405457D01*
X133879118Y-93419736D01*
X133881278Y-93434297D01*
X133882000Y-93449000D01*
X133882000Y-93749000D01*
X133881278Y-93763703D01*
X133879118Y-93778264D01*
X133875541Y-93792543D01*
X133870582Y-93806403D01*
X133864288Y-93819710D01*
X133856720Y-93832336D01*
X133847952Y-93844159D01*
X133838066Y-93855066D01*
X133827159Y-93864952D01*
X133815336Y-93873720D01*
X133802710Y-93881288D01*
X133789403Y-93887582D01*
X133775543Y-93892541D01*
X133761264Y-93896118D01*
X133746703Y-93898278D01*
X133732000Y-93899000D01*
X132082000Y-93899000D01*
X132067297Y-93898278D01*
X132052736Y-93896118D01*
X132038457Y-93892541D01*
X132024597Y-93887582D01*
X132011290Y-93881288D01*
X131998664Y-93873720D01*
X131986841Y-93864952D01*
X131975934Y-93855066D01*
X131966048Y-93844159D01*
X131957280Y-93832336D01*
X131949712Y-93819710D01*
X131943418Y-93806403D01*
X131938459Y-93792543D01*
X131934882Y-93778264D01*
X131932722Y-93763703D01*
X131932000Y-93749000D01*
X131932000Y-93449000D01*
X131932722Y-93434297D01*
X131934882Y-93419736D01*
X131938459Y-93405457D01*
X131943418Y-93391597D01*
X131949712Y-93378290D01*
X131957280Y-93365664D01*
X131966048Y-93353841D01*
X131975934Y-93342934D01*
X131986841Y-93333048D01*
X131998664Y-93324280D01*
X132011290Y-93316712D01*
X132024597Y-93310418D01*
X132038457Y-93305459D01*
X132052736Y-93301882D01*
X132067297Y-93299722D01*
X132082000Y-93299000D01*
X133732000Y-93299000D01*
X133746703Y-93299722D01*
X133746703Y-93299722D01*
G37*
D12*
X132907000Y-93599000D03*
D10*
G36*
X133746703Y-94569722D02*
G01*
X133761264Y-94571882D01*
X133775543Y-94575459D01*
X133789403Y-94580418D01*
X133802710Y-94586712D01*
X133815336Y-94594280D01*
X133827159Y-94603048D01*
X133838066Y-94612934D01*
X133847952Y-94623841D01*
X133856720Y-94635664D01*
X133864288Y-94648290D01*
X133870582Y-94661597D01*
X133875541Y-94675457D01*
X133879118Y-94689736D01*
X133881278Y-94704297D01*
X133882000Y-94719000D01*
X133882000Y-95019000D01*
X133881278Y-95033703D01*
X133879118Y-95048264D01*
X133875541Y-95062543D01*
X133870582Y-95076403D01*
X133864288Y-95089710D01*
X133856720Y-95102336D01*
X133847952Y-95114159D01*
X133838066Y-95125066D01*
X133827159Y-95134952D01*
X133815336Y-95143720D01*
X133802710Y-95151288D01*
X133789403Y-95157582D01*
X133775543Y-95162541D01*
X133761264Y-95166118D01*
X133746703Y-95168278D01*
X133732000Y-95169000D01*
X132082000Y-95169000D01*
X132067297Y-95168278D01*
X132052736Y-95166118D01*
X132038457Y-95162541D01*
X132024597Y-95157582D01*
X132011290Y-95151288D01*
X131998664Y-95143720D01*
X131986841Y-95134952D01*
X131975934Y-95125066D01*
X131966048Y-95114159D01*
X131957280Y-95102336D01*
X131949712Y-95089710D01*
X131943418Y-95076403D01*
X131938459Y-95062543D01*
X131934882Y-95048264D01*
X131932722Y-95033703D01*
X131932000Y-95019000D01*
X131932000Y-94719000D01*
X131932722Y-94704297D01*
X131934882Y-94689736D01*
X131938459Y-94675457D01*
X131943418Y-94661597D01*
X131949712Y-94648290D01*
X131957280Y-94635664D01*
X131966048Y-94623841D01*
X131975934Y-94612934D01*
X131986841Y-94603048D01*
X131998664Y-94594280D01*
X132011290Y-94586712D01*
X132024597Y-94580418D01*
X132038457Y-94575459D01*
X132052736Y-94571882D01*
X132067297Y-94569722D01*
X132082000Y-94569000D01*
X133732000Y-94569000D01*
X133746703Y-94569722D01*
X133746703Y-94569722D01*
G37*
D12*
X132907000Y-94869000D03*
D10*
G36*
X133746703Y-95839722D02*
G01*
X133761264Y-95841882D01*
X133775543Y-95845459D01*
X133789403Y-95850418D01*
X133802710Y-95856712D01*
X133815336Y-95864280D01*
X133827159Y-95873048D01*
X133838066Y-95882934D01*
X133847952Y-95893841D01*
X133856720Y-95905664D01*
X133864288Y-95918290D01*
X133870582Y-95931597D01*
X133875541Y-95945457D01*
X133879118Y-95959736D01*
X133881278Y-95974297D01*
X133882000Y-95989000D01*
X133882000Y-96289000D01*
X133881278Y-96303703D01*
X133879118Y-96318264D01*
X133875541Y-96332543D01*
X133870582Y-96346403D01*
X133864288Y-96359710D01*
X133856720Y-96372336D01*
X133847952Y-96384159D01*
X133838066Y-96395066D01*
X133827159Y-96404952D01*
X133815336Y-96413720D01*
X133802710Y-96421288D01*
X133789403Y-96427582D01*
X133775543Y-96432541D01*
X133761264Y-96436118D01*
X133746703Y-96438278D01*
X133732000Y-96439000D01*
X132082000Y-96439000D01*
X132067297Y-96438278D01*
X132052736Y-96436118D01*
X132038457Y-96432541D01*
X132024597Y-96427582D01*
X132011290Y-96421288D01*
X131998664Y-96413720D01*
X131986841Y-96404952D01*
X131975934Y-96395066D01*
X131966048Y-96384159D01*
X131957280Y-96372336D01*
X131949712Y-96359710D01*
X131943418Y-96346403D01*
X131938459Y-96332543D01*
X131934882Y-96318264D01*
X131932722Y-96303703D01*
X131932000Y-96289000D01*
X131932000Y-95989000D01*
X131932722Y-95974297D01*
X131934882Y-95959736D01*
X131938459Y-95945457D01*
X131943418Y-95931597D01*
X131949712Y-95918290D01*
X131957280Y-95905664D01*
X131966048Y-95893841D01*
X131975934Y-95882934D01*
X131986841Y-95873048D01*
X131998664Y-95864280D01*
X132011290Y-95856712D01*
X132024597Y-95850418D01*
X132038457Y-95845459D01*
X132052736Y-95841882D01*
X132067297Y-95839722D01*
X132082000Y-95839000D01*
X133732000Y-95839000D01*
X133746703Y-95839722D01*
X133746703Y-95839722D01*
G37*
D12*
X132907000Y-96139000D03*
D10*
G36*
X133746703Y-97109722D02*
G01*
X133761264Y-97111882D01*
X133775543Y-97115459D01*
X133789403Y-97120418D01*
X133802710Y-97126712D01*
X133815336Y-97134280D01*
X133827159Y-97143048D01*
X133838066Y-97152934D01*
X133847952Y-97163841D01*
X133856720Y-97175664D01*
X133864288Y-97188290D01*
X133870582Y-97201597D01*
X133875541Y-97215457D01*
X133879118Y-97229736D01*
X133881278Y-97244297D01*
X133882000Y-97259000D01*
X133882000Y-97559000D01*
X133881278Y-97573703D01*
X133879118Y-97588264D01*
X133875541Y-97602543D01*
X133870582Y-97616403D01*
X133864288Y-97629710D01*
X133856720Y-97642336D01*
X133847952Y-97654159D01*
X133838066Y-97665066D01*
X133827159Y-97674952D01*
X133815336Y-97683720D01*
X133802710Y-97691288D01*
X133789403Y-97697582D01*
X133775543Y-97702541D01*
X133761264Y-97706118D01*
X133746703Y-97708278D01*
X133732000Y-97709000D01*
X132082000Y-97709000D01*
X132067297Y-97708278D01*
X132052736Y-97706118D01*
X132038457Y-97702541D01*
X132024597Y-97697582D01*
X132011290Y-97691288D01*
X131998664Y-97683720D01*
X131986841Y-97674952D01*
X131975934Y-97665066D01*
X131966048Y-97654159D01*
X131957280Y-97642336D01*
X131949712Y-97629710D01*
X131943418Y-97616403D01*
X131938459Y-97602543D01*
X131934882Y-97588264D01*
X131932722Y-97573703D01*
X131932000Y-97559000D01*
X131932000Y-97259000D01*
X131932722Y-97244297D01*
X131934882Y-97229736D01*
X131938459Y-97215457D01*
X131943418Y-97201597D01*
X131949712Y-97188290D01*
X131957280Y-97175664D01*
X131966048Y-97163841D01*
X131975934Y-97152934D01*
X131986841Y-97143048D01*
X131998664Y-97134280D01*
X132011290Y-97126712D01*
X132024597Y-97120418D01*
X132038457Y-97115459D01*
X132052736Y-97111882D01*
X132067297Y-97109722D01*
X132082000Y-97109000D01*
X133732000Y-97109000D01*
X133746703Y-97109722D01*
X133746703Y-97109722D01*
G37*
D12*
X132907000Y-97409000D03*
D10*
G36*
X133746703Y-98379722D02*
G01*
X133761264Y-98381882D01*
X133775543Y-98385459D01*
X133789403Y-98390418D01*
X133802710Y-98396712D01*
X133815336Y-98404280D01*
X133827159Y-98413048D01*
X133838066Y-98422934D01*
X133847952Y-98433841D01*
X133856720Y-98445664D01*
X133864288Y-98458290D01*
X133870582Y-98471597D01*
X133875541Y-98485457D01*
X133879118Y-98499736D01*
X133881278Y-98514297D01*
X133882000Y-98529000D01*
X133882000Y-98829000D01*
X133881278Y-98843703D01*
X133879118Y-98858264D01*
X133875541Y-98872543D01*
X133870582Y-98886403D01*
X133864288Y-98899710D01*
X133856720Y-98912336D01*
X133847952Y-98924159D01*
X133838066Y-98935066D01*
X133827159Y-98944952D01*
X133815336Y-98953720D01*
X133802710Y-98961288D01*
X133789403Y-98967582D01*
X133775543Y-98972541D01*
X133761264Y-98976118D01*
X133746703Y-98978278D01*
X133732000Y-98979000D01*
X132082000Y-98979000D01*
X132067297Y-98978278D01*
X132052736Y-98976118D01*
X132038457Y-98972541D01*
X132024597Y-98967582D01*
X132011290Y-98961288D01*
X131998664Y-98953720D01*
X131986841Y-98944952D01*
X131975934Y-98935066D01*
X131966048Y-98924159D01*
X131957280Y-98912336D01*
X131949712Y-98899710D01*
X131943418Y-98886403D01*
X131938459Y-98872543D01*
X131934882Y-98858264D01*
X131932722Y-98843703D01*
X131932000Y-98829000D01*
X131932000Y-98529000D01*
X131932722Y-98514297D01*
X131934882Y-98499736D01*
X131938459Y-98485457D01*
X131943418Y-98471597D01*
X131949712Y-98458290D01*
X131957280Y-98445664D01*
X131966048Y-98433841D01*
X131975934Y-98422934D01*
X131986841Y-98413048D01*
X131998664Y-98404280D01*
X132011290Y-98396712D01*
X132024597Y-98390418D01*
X132038457Y-98385459D01*
X132052736Y-98381882D01*
X132067297Y-98379722D01*
X132082000Y-98379000D01*
X133732000Y-98379000D01*
X133746703Y-98379722D01*
X133746703Y-98379722D01*
G37*
D12*
X132907000Y-98679000D03*
D10*
G36*
X133746703Y-99649722D02*
G01*
X133761264Y-99651882D01*
X133775543Y-99655459D01*
X133789403Y-99660418D01*
X133802710Y-99666712D01*
X133815336Y-99674280D01*
X133827159Y-99683048D01*
X133838066Y-99692934D01*
X133847952Y-99703841D01*
X133856720Y-99715664D01*
X133864288Y-99728290D01*
X133870582Y-99741597D01*
X133875541Y-99755457D01*
X133879118Y-99769736D01*
X133881278Y-99784297D01*
X133882000Y-99799000D01*
X133882000Y-100099000D01*
X133881278Y-100113703D01*
X133879118Y-100128264D01*
X133875541Y-100142543D01*
X133870582Y-100156403D01*
X133864288Y-100169710D01*
X133856720Y-100182336D01*
X133847952Y-100194159D01*
X133838066Y-100205066D01*
X133827159Y-100214952D01*
X133815336Y-100223720D01*
X133802710Y-100231288D01*
X133789403Y-100237582D01*
X133775543Y-100242541D01*
X133761264Y-100246118D01*
X133746703Y-100248278D01*
X133732000Y-100249000D01*
X132082000Y-100249000D01*
X132067297Y-100248278D01*
X132052736Y-100246118D01*
X132038457Y-100242541D01*
X132024597Y-100237582D01*
X132011290Y-100231288D01*
X131998664Y-100223720D01*
X131986841Y-100214952D01*
X131975934Y-100205066D01*
X131966048Y-100194159D01*
X131957280Y-100182336D01*
X131949712Y-100169710D01*
X131943418Y-100156403D01*
X131938459Y-100142543D01*
X131934882Y-100128264D01*
X131932722Y-100113703D01*
X131932000Y-100099000D01*
X131932000Y-99799000D01*
X131932722Y-99784297D01*
X131934882Y-99769736D01*
X131938459Y-99755457D01*
X131943418Y-99741597D01*
X131949712Y-99728290D01*
X131957280Y-99715664D01*
X131966048Y-99703841D01*
X131975934Y-99692934D01*
X131986841Y-99683048D01*
X131998664Y-99674280D01*
X132011290Y-99666712D01*
X132024597Y-99660418D01*
X132038457Y-99655459D01*
X132052736Y-99651882D01*
X132067297Y-99649722D01*
X132082000Y-99649000D01*
X133732000Y-99649000D01*
X133746703Y-99649722D01*
X133746703Y-99649722D01*
G37*
D12*
X132907000Y-99949000D03*
D10*
G36*
X133746703Y-100919722D02*
G01*
X133761264Y-100921882D01*
X133775543Y-100925459D01*
X133789403Y-100930418D01*
X133802710Y-100936712D01*
X133815336Y-100944280D01*
X133827159Y-100953048D01*
X133838066Y-100962934D01*
X133847952Y-100973841D01*
X133856720Y-100985664D01*
X133864288Y-100998290D01*
X133870582Y-101011597D01*
X133875541Y-101025457D01*
X133879118Y-101039736D01*
X133881278Y-101054297D01*
X133882000Y-101069000D01*
X133882000Y-101369000D01*
X133881278Y-101383703D01*
X133879118Y-101398264D01*
X133875541Y-101412543D01*
X133870582Y-101426403D01*
X133864288Y-101439710D01*
X133856720Y-101452336D01*
X133847952Y-101464159D01*
X133838066Y-101475066D01*
X133827159Y-101484952D01*
X133815336Y-101493720D01*
X133802710Y-101501288D01*
X133789403Y-101507582D01*
X133775543Y-101512541D01*
X133761264Y-101516118D01*
X133746703Y-101518278D01*
X133732000Y-101519000D01*
X132082000Y-101519000D01*
X132067297Y-101518278D01*
X132052736Y-101516118D01*
X132038457Y-101512541D01*
X132024597Y-101507582D01*
X132011290Y-101501288D01*
X131998664Y-101493720D01*
X131986841Y-101484952D01*
X131975934Y-101475066D01*
X131966048Y-101464159D01*
X131957280Y-101452336D01*
X131949712Y-101439710D01*
X131943418Y-101426403D01*
X131938459Y-101412543D01*
X131934882Y-101398264D01*
X131932722Y-101383703D01*
X131932000Y-101369000D01*
X131932000Y-101069000D01*
X131932722Y-101054297D01*
X131934882Y-101039736D01*
X131938459Y-101025457D01*
X131943418Y-101011597D01*
X131949712Y-100998290D01*
X131957280Y-100985664D01*
X131966048Y-100973841D01*
X131975934Y-100962934D01*
X131986841Y-100953048D01*
X131998664Y-100944280D01*
X132011290Y-100936712D01*
X132024597Y-100930418D01*
X132038457Y-100925459D01*
X132052736Y-100921882D01*
X132067297Y-100919722D01*
X132082000Y-100919000D01*
X133732000Y-100919000D01*
X133746703Y-100919722D01*
X133746703Y-100919722D01*
G37*
D12*
X132907000Y-101219000D03*
D10*
G36*
X133746703Y-102189722D02*
G01*
X133761264Y-102191882D01*
X133775543Y-102195459D01*
X133789403Y-102200418D01*
X133802710Y-102206712D01*
X133815336Y-102214280D01*
X133827159Y-102223048D01*
X133838066Y-102232934D01*
X133847952Y-102243841D01*
X133856720Y-102255664D01*
X133864288Y-102268290D01*
X133870582Y-102281597D01*
X133875541Y-102295457D01*
X133879118Y-102309736D01*
X133881278Y-102324297D01*
X133882000Y-102339000D01*
X133882000Y-102639000D01*
X133881278Y-102653703D01*
X133879118Y-102668264D01*
X133875541Y-102682543D01*
X133870582Y-102696403D01*
X133864288Y-102709710D01*
X133856720Y-102722336D01*
X133847952Y-102734159D01*
X133838066Y-102745066D01*
X133827159Y-102754952D01*
X133815336Y-102763720D01*
X133802710Y-102771288D01*
X133789403Y-102777582D01*
X133775543Y-102782541D01*
X133761264Y-102786118D01*
X133746703Y-102788278D01*
X133732000Y-102789000D01*
X132082000Y-102789000D01*
X132067297Y-102788278D01*
X132052736Y-102786118D01*
X132038457Y-102782541D01*
X132024597Y-102777582D01*
X132011290Y-102771288D01*
X131998664Y-102763720D01*
X131986841Y-102754952D01*
X131975934Y-102745066D01*
X131966048Y-102734159D01*
X131957280Y-102722336D01*
X131949712Y-102709710D01*
X131943418Y-102696403D01*
X131938459Y-102682543D01*
X131934882Y-102668264D01*
X131932722Y-102653703D01*
X131932000Y-102639000D01*
X131932000Y-102339000D01*
X131932722Y-102324297D01*
X131934882Y-102309736D01*
X131938459Y-102295457D01*
X131943418Y-102281597D01*
X131949712Y-102268290D01*
X131957280Y-102255664D01*
X131966048Y-102243841D01*
X131975934Y-102232934D01*
X131986841Y-102223048D01*
X131998664Y-102214280D01*
X132011290Y-102206712D01*
X132024597Y-102200418D01*
X132038457Y-102195459D01*
X132052736Y-102191882D01*
X132067297Y-102189722D01*
X132082000Y-102189000D01*
X133732000Y-102189000D01*
X133746703Y-102189722D01*
X133746703Y-102189722D01*
G37*
D12*
X132907000Y-102489000D03*
D10*
G36*
X138696703Y-102189722D02*
G01*
X138711264Y-102191882D01*
X138725543Y-102195459D01*
X138739403Y-102200418D01*
X138752710Y-102206712D01*
X138765336Y-102214280D01*
X138777159Y-102223048D01*
X138788066Y-102232934D01*
X138797952Y-102243841D01*
X138806720Y-102255664D01*
X138814288Y-102268290D01*
X138820582Y-102281597D01*
X138825541Y-102295457D01*
X138829118Y-102309736D01*
X138831278Y-102324297D01*
X138832000Y-102339000D01*
X138832000Y-102639000D01*
X138831278Y-102653703D01*
X138829118Y-102668264D01*
X138825541Y-102682543D01*
X138820582Y-102696403D01*
X138814288Y-102709710D01*
X138806720Y-102722336D01*
X138797952Y-102734159D01*
X138788066Y-102745066D01*
X138777159Y-102754952D01*
X138765336Y-102763720D01*
X138752710Y-102771288D01*
X138739403Y-102777582D01*
X138725543Y-102782541D01*
X138711264Y-102786118D01*
X138696703Y-102788278D01*
X138682000Y-102789000D01*
X137032000Y-102789000D01*
X137017297Y-102788278D01*
X137002736Y-102786118D01*
X136988457Y-102782541D01*
X136974597Y-102777582D01*
X136961290Y-102771288D01*
X136948664Y-102763720D01*
X136936841Y-102754952D01*
X136925934Y-102745066D01*
X136916048Y-102734159D01*
X136907280Y-102722336D01*
X136899712Y-102709710D01*
X136893418Y-102696403D01*
X136888459Y-102682543D01*
X136884882Y-102668264D01*
X136882722Y-102653703D01*
X136882000Y-102639000D01*
X136882000Y-102339000D01*
X136882722Y-102324297D01*
X136884882Y-102309736D01*
X136888459Y-102295457D01*
X136893418Y-102281597D01*
X136899712Y-102268290D01*
X136907280Y-102255664D01*
X136916048Y-102243841D01*
X136925934Y-102232934D01*
X136936841Y-102223048D01*
X136948664Y-102214280D01*
X136961290Y-102206712D01*
X136974597Y-102200418D01*
X136988457Y-102195459D01*
X137002736Y-102191882D01*
X137017297Y-102189722D01*
X137032000Y-102189000D01*
X138682000Y-102189000D01*
X138696703Y-102189722D01*
X138696703Y-102189722D01*
G37*
D12*
X137857000Y-102489000D03*
D10*
G36*
X138696703Y-100919722D02*
G01*
X138711264Y-100921882D01*
X138725543Y-100925459D01*
X138739403Y-100930418D01*
X138752710Y-100936712D01*
X138765336Y-100944280D01*
X138777159Y-100953048D01*
X138788066Y-100962934D01*
X138797952Y-100973841D01*
X138806720Y-100985664D01*
X138814288Y-100998290D01*
X138820582Y-101011597D01*
X138825541Y-101025457D01*
X138829118Y-101039736D01*
X138831278Y-101054297D01*
X138832000Y-101069000D01*
X138832000Y-101369000D01*
X138831278Y-101383703D01*
X138829118Y-101398264D01*
X138825541Y-101412543D01*
X138820582Y-101426403D01*
X138814288Y-101439710D01*
X138806720Y-101452336D01*
X138797952Y-101464159D01*
X138788066Y-101475066D01*
X138777159Y-101484952D01*
X138765336Y-101493720D01*
X138752710Y-101501288D01*
X138739403Y-101507582D01*
X138725543Y-101512541D01*
X138711264Y-101516118D01*
X138696703Y-101518278D01*
X138682000Y-101519000D01*
X137032000Y-101519000D01*
X137017297Y-101518278D01*
X137002736Y-101516118D01*
X136988457Y-101512541D01*
X136974597Y-101507582D01*
X136961290Y-101501288D01*
X136948664Y-101493720D01*
X136936841Y-101484952D01*
X136925934Y-101475066D01*
X136916048Y-101464159D01*
X136907280Y-101452336D01*
X136899712Y-101439710D01*
X136893418Y-101426403D01*
X136888459Y-101412543D01*
X136884882Y-101398264D01*
X136882722Y-101383703D01*
X136882000Y-101369000D01*
X136882000Y-101069000D01*
X136882722Y-101054297D01*
X136884882Y-101039736D01*
X136888459Y-101025457D01*
X136893418Y-101011597D01*
X136899712Y-100998290D01*
X136907280Y-100985664D01*
X136916048Y-100973841D01*
X136925934Y-100962934D01*
X136936841Y-100953048D01*
X136948664Y-100944280D01*
X136961290Y-100936712D01*
X136974597Y-100930418D01*
X136988457Y-100925459D01*
X137002736Y-100921882D01*
X137017297Y-100919722D01*
X137032000Y-100919000D01*
X138682000Y-100919000D01*
X138696703Y-100919722D01*
X138696703Y-100919722D01*
G37*
D12*
X137857000Y-101219000D03*
D10*
G36*
X138696703Y-99649722D02*
G01*
X138711264Y-99651882D01*
X138725543Y-99655459D01*
X138739403Y-99660418D01*
X138752710Y-99666712D01*
X138765336Y-99674280D01*
X138777159Y-99683048D01*
X138788066Y-99692934D01*
X138797952Y-99703841D01*
X138806720Y-99715664D01*
X138814288Y-99728290D01*
X138820582Y-99741597D01*
X138825541Y-99755457D01*
X138829118Y-99769736D01*
X138831278Y-99784297D01*
X138832000Y-99799000D01*
X138832000Y-100099000D01*
X138831278Y-100113703D01*
X138829118Y-100128264D01*
X138825541Y-100142543D01*
X138820582Y-100156403D01*
X138814288Y-100169710D01*
X138806720Y-100182336D01*
X138797952Y-100194159D01*
X138788066Y-100205066D01*
X138777159Y-100214952D01*
X138765336Y-100223720D01*
X138752710Y-100231288D01*
X138739403Y-100237582D01*
X138725543Y-100242541D01*
X138711264Y-100246118D01*
X138696703Y-100248278D01*
X138682000Y-100249000D01*
X137032000Y-100249000D01*
X137017297Y-100248278D01*
X137002736Y-100246118D01*
X136988457Y-100242541D01*
X136974597Y-100237582D01*
X136961290Y-100231288D01*
X136948664Y-100223720D01*
X136936841Y-100214952D01*
X136925934Y-100205066D01*
X136916048Y-100194159D01*
X136907280Y-100182336D01*
X136899712Y-100169710D01*
X136893418Y-100156403D01*
X136888459Y-100142543D01*
X136884882Y-100128264D01*
X136882722Y-100113703D01*
X136882000Y-100099000D01*
X136882000Y-99799000D01*
X136882722Y-99784297D01*
X136884882Y-99769736D01*
X136888459Y-99755457D01*
X136893418Y-99741597D01*
X136899712Y-99728290D01*
X136907280Y-99715664D01*
X136916048Y-99703841D01*
X136925934Y-99692934D01*
X136936841Y-99683048D01*
X136948664Y-99674280D01*
X136961290Y-99666712D01*
X136974597Y-99660418D01*
X136988457Y-99655459D01*
X137002736Y-99651882D01*
X137017297Y-99649722D01*
X137032000Y-99649000D01*
X138682000Y-99649000D01*
X138696703Y-99649722D01*
X138696703Y-99649722D01*
G37*
D12*
X137857000Y-99949000D03*
D10*
G36*
X138696703Y-98379722D02*
G01*
X138711264Y-98381882D01*
X138725543Y-98385459D01*
X138739403Y-98390418D01*
X138752710Y-98396712D01*
X138765336Y-98404280D01*
X138777159Y-98413048D01*
X138788066Y-98422934D01*
X138797952Y-98433841D01*
X138806720Y-98445664D01*
X138814288Y-98458290D01*
X138820582Y-98471597D01*
X138825541Y-98485457D01*
X138829118Y-98499736D01*
X138831278Y-98514297D01*
X138832000Y-98529000D01*
X138832000Y-98829000D01*
X138831278Y-98843703D01*
X138829118Y-98858264D01*
X138825541Y-98872543D01*
X138820582Y-98886403D01*
X138814288Y-98899710D01*
X138806720Y-98912336D01*
X138797952Y-98924159D01*
X138788066Y-98935066D01*
X138777159Y-98944952D01*
X138765336Y-98953720D01*
X138752710Y-98961288D01*
X138739403Y-98967582D01*
X138725543Y-98972541D01*
X138711264Y-98976118D01*
X138696703Y-98978278D01*
X138682000Y-98979000D01*
X137032000Y-98979000D01*
X137017297Y-98978278D01*
X137002736Y-98976118D01*
X136988457Y-98972541D01*
X136974597Y-98967582D01*
X136961290Y-98961288D01*
X136948664Y-98953720D01*
X136936841Y-98944952D01*
X136925934Y-98935066D01*
X136916048Y-98924159D01*
X136907280Y-98912336D01*
X136899712Y-98899710D01*
X136893418Y-98886403D01*
X136888459Y-98872543D01*
X136884882Y-98858264D01*
X136882722Y-98843703D01*
X136882000Y-98829000D01*
X136882000Y-98529000D01*
X136882722Y-98514297D01*
X136884882Y-98499736D01*
X136888459Y-98485457D01*
X136893418Y-98471597D01*
X136899712Y-98458290D01*
X136907280Y-98445664D01*
X136916048Y-98433841D01*
X136925934Y-98422934D01*
X136936841Y-98413048D01*
X136948664Y-98404280D01*
X136961290Y-98396712D01*
X136974597Y-98390418D01*
X136988457Y-98385459D01*
X137002736Y-98381882D01*
X137017297Y-98379722D01*
X137032000Y-98379000D01*
X138682000Y-98379000D01*
X138696703Y-98379722D01*
X138696703Y-98379722D01*
G37*
D12*
X137857000Y-98679000D03*
D10*
G36*
X138696703Y-97109722D02*
G01*
X138711264Y-97111882D01*
X138725543Y-97115459D01*
X138739403Y-97120418D01*
X138752710Y-97126712D01*
X138765336Y-97134280D01*
X138777159Y-97143048D01*
X138788066Y-97152934D01*
X138797952Y-97163841D01*
X138806720Y-97175664D01*
X138814288Y-97188290D01*
X138820582Y-97201597D01*
X138825541Y-97215457D01*
X138829118Y-97229736D01*
X138831278Y-97244297D01*
X138832000Y-97259000D01*
X138832000Y-97559000D01*
X138831278Y-97573703D01*
X138829118Y-97588264D01*
X138825541Y-97602543D01*
X138820582Y-97616403D01*
X138814288Y-97629710D01*
X138806720Y-97642336D01*
X138797952Y-97654159D01*
X138788066Y-97665066D01*
X138777159Y-97674952D01*
X138765336Y-97683720D01*
X138752710Y-97691288D01*
X138739403Y-97697582D01*
X138725543Y-97702541D01*
X138711264Y-97706118D01*
X138696703Y-97708278D01*
X138682000Y-97709000D01*
X137032000Y-97709000D01*
X137017297Y-97708278D01*
X137002736Y-97706118D01*
X136988457Y-97702541D01*
X136974597Y-97697582D01*
X136961290Y-97691288D01*
X136948664Y-97683720D01*
X136936841Y-97674952D01*
X136925934Y-97665066D01*
X136916048Y-97654159D01*
X136907280Y-97642336D01*
X136899712Y-97629710D01*
X136893418Y-97616403D01*
X136888459Y-97602543D01*
X136884882Y-97588264D01*
X136882722Y-97573703D01*
X136882000Y-97559000D01*
X136882000Y-97259000D01*
X136882722Y-97244297D01*
X136884882Y-97229736D01*
X136888459Y-97215457D01*
X136893418Y-97201597D01*
X136899712Y-97188290D01*
X136907280Y-97175664D01*
X136916048Y-97163841D01*
X136925934Y-97152934D01*
X136936841Y-97143048D01*
X136948664Y-97134280D01*
X136961290Y-97126712D01*
X136974597Y-97120418D01*
X136988457Y-97115459D01*
X137002736Y-97111882D01*
X137017297Y-97109722D01*
X137032000Y-97109000D01*
X138682000Y-97109000D01*
X138696703Y-97109722D01*
X138696703Y-97109722D01*
G37*
D12*
X137857000Y-97409000D03*
D10*
G36*
X138696703Y-95839722D02*
G01*
X138711264Y-95841882D01*
X138725543Y-95845459D01*
X138739403Y-95850418D01*
X138752710Y-95856712D01*
X138765336Y-95864280D01*
X138777159Y-95873048D01*
X138788066Y-95882934D01*
X138797952Y-95893841D01*
X138806720Y-95905664D01*
X138814288Y-95918290D01*
X138820582Y-95931597D01*
X138825541Y-95945457D01*
X138829118Y-95959736D01*
X138831278Y-95974297D01*
X138832000Y-95989000D01*
X138832000Y-96289000D01*
X138831278Y-96303703D01*
X138829118Y-96318264D01*
X138825541Y-96332543D01*
X138820582Y-96346403D01*
X138814288Y-96359710D01*
X138806720Y-96372336D01*
X138797952Y-96384159D01*
X138788066Y-96395066D01*
X138777159Y-96404952D01*
X138765336Y-96413720D01*
X138752710Y-96421288D01*
X138739403Y-96427582D01*
X138725543Y-96432541D01*
X138711264Y-96436118D01*
X138696703Y-96438278D01*
X138682000Y-96439000D01*
X137032000Y-96439000D01*
X137017297Y-96438278D01*
X137002736Y-96436118D01*
X136988457Y-96432541D01*
X136974597Y-96427582D01*
X136961290Y-96421288D01*
X136948664Y-96413720D01*
X136936841Y-96404952D01*
X136925934Y-96395066D01*
X136916048Y-96384159D01*
X136907280Y-96372336D01*
X136899712Y-96359710D01*
X136893418Y-96346403D01*
X136888459Y-96332543D01*
X136884882Y-96318264D01*
X136882722Y-96303703D01*
X136882000Y-96289000D01*
X136882000Y-95989000D01*
X136882722Y-95974297D01*
X136884882Y-95959736D01*
X136888459Y-95945457D01*
X136893418Y-95931597D01*
X136899712Y-95918290D01*
X136907280Y-95905664D01*
X136916048Y-95893841D01*
X136925934Y-95882934D01*
X136936841Y-95873048D01*
X136948664Y-95864280D01*
X136961290Y-95856712D01*
X136974597Y-95850418D01*
X136988457Y-95845459D01*
X137002736Y-95841882D01*
X137017297Y-95839722D01*
X137032000Y-95839000D01*
X138682000Y-95839000D01*
X138696703Y-95839722D01*
X138696703Y-95839722D01*
G37*
D12*
X137857000Y-96139000D03*
D10*
G36*
X138696703Y-94569722D02*
G01*
X138711264Y-94571882D01*
X138725543Y-94575459D01*
X138739403Y-94580418D01*
X138752710Y-94586712D01*
X138765336Y-94594280D01*
X138777159Y-94603048D01*
X138788066Y-94612934D01*
X138797952Y-94623841D01*
X138806720Y-94635664D01*
X138814288Y-94648290D01*
X138820582Y-94661597D01*
X138825541Y-94675457D01*
X138829118Y-94689736D01*
X138831278Y-94704297D01*
X138832000Y-94719000D01*
X138832000Y-95019000D01*
X138831278Y-95033703D01*
X138829118Y-95048264D01*
X138825541Y-95062543D01*
X138820582Y-95076403D01*
X138814288Y-95089710D01*
X138806720Y-95102336D01*
X138797952Y-95114159D01*
X138788066Y-95125066D01*
X138777159Y-95134952D01*
X138765336Y-95143720D01*
X138752710Y-95151288D01*
X138739403Y-95157582D01*
X138725543Y-95162541D01*
X138711264Y-95166118D01*
X138696703Y-95168278D01*
X138682000Y-95169000D01*
X137032000Y-95169000D01*
X137017297Y-95168278D01*
X137002736Y-95166118D01*
X136988457Y-95162541D01*
X136974597Y-95157582D01*
X136961290Y-95151288D01*
X136948664Y-95143720D01*
X136936841Y-95134952D01*
X136925934Y-95125066D01*
X136916048Y-95114159D01*
X136907280Y-95102336D01*
X136899712Y-95089710D01*
X136893418Y-95076403D01*
X136888459Y-95062543D01*
X136884882Y-95048264D01*
X136882722Y-95033703D01*
X136882000Y-95019000D01*
X136882000Y-94719000D01*
X136882722Y-94704297D01*
X136884882Y-94689736D01*
X136888459Y-94675457D01*
X136893418Y-94661597D01*
X136899712Y-94648290D01*
X136907280Y-94635664D01*
X136916048Y-94623841D01*
X136925934Y-94612934D01*
X136936841Y-94603048D01*
X136948664Y-94594280D01*
X136961290Y-94586712D01*
X136974597Y-94580418D01*
X136988457Y-94575459D01*
X137002736Y-94571882D01*
X137017297Y-94569722D01*
X137032000Y-94569000D01*
X138682000Y-94569000D01*
X138696703Y-94569722D01*
X138696703Y-94569722D01*
G37*
D12*
X137857000Y-94869000D03*
D10*
G36*
X138696703Y-93299722D02*
G01*
X138711264Y-93301882D01*
X138725543Y-93305459D01*
X138739403Y-93310418D01*
X138752710Y-93316712D01*
X138765336Y-93324280D01*
X138777159Y-93333048D01*
X138788066Y-93342934D01*
X138797952Y-93353841D01*
X138806720Y-93365664D01*
X138814288Y-93378290D01*
X138820582Y-93391597D01*
X138825541Y-93405457D01*
X138829118Y-93419736D01*
X138831278Y-93434297D01*
X138832000Y-93449000D01*
X138832000Y-93749000D01*
X138831278Y-93763703D01*
X138829118Y-93778264D01*
X138825541Y-93792543D01*
X138820582Y-93806403D01*
X138814288Y-93819710D01*
X138806720Y-93832336D01*
X138797952Y-93844159D01*
X138788066Y-93855066D01*
X138777159Y-93864952D01*
X138765336Y-93873720D01*
X138752710Y-93881288D01*
X138739403Y-93887582D01*
X138725543Y-93892541D01*
X138711264Y-93896118D01*
X138696703Y-93898278D01*
X138682000Y-93899000D01*
X137032000Y-93899000D01*
X137017297Y-93898278D01*
X137002736Y-93896118D01*
X136988457Y-93892541D01*
X136974597Y-93887582D01*
X136961290Y-93881288D01*
X136948664Y-93873720D01*
X136936841Y-93864952D01*
X136925934Y-93855066D01*
X136916048Y-93844159D01*
X136907280Y-93832336D01*
X136899712Y-93819710D01*
X136893418Y-93806403D01*
X136888459Y-93792543D01*
X136884882Y-93778264D01*
X136882722Y-93763703D01*
X136882000Y-93749000D01*
X136882000Y-93449000D01*
X136882722Y-93434297D01*
X136884882Y-93419736D01*
X136888459Y-93405457D01*
X136893418Y-93391597D01*
X136899712Y-93378290D01*
X136907280Y-93365664D01*
X136916048Y-93353841D01*
X136925934Y-93342934D01*
X136936841Y-93333048D01*
X136948664Y-93324280D01*
X136961290Y-93316712D01*
X136974597Y-93310418D01*
X136988457Y-93305459D01*
X137002736Y-93301882D01*
X137017297Y-93299722D01*
X137032000Y-93299000D01*
X138682000Y-93299000D01*
X138696703Y-93299722D01*
X138696703Y-93299722D01*
G37*
D12*
X137857000Y-93599000D03*
M02*
