G04 #@! TF.GenerationSoftware,KiCad,Pcbnew,5.1.2-f72e74a~84~ubuntu18.04.1*
G04 #@! TF.CreationDate,2020-01-10T04:29:40+01:00*
G04 #@! TF.ProjectId,BridgeElectrobot,42726964-6765-4456-9c65-6374726f626f,1.0*
G04 #@! TF.SameCoordinates,Original*
G04 #@! TF.FileFunction,Soldermask,Top*
G04 #@! TF.FilePolarity,Negative*
%FSLAX46Y46*%
G04 Gerber Fmt 4.6, Leading zero omitted, Abs format (unit mm)*
G04 Created by KiCad (PCBNEW 5.1.2-f72e74a~84~ubuntu18.04.1) date 2020-01-10 04:29:40*
%MOMM*%
%LPD*%
G04 APERTURE LIST*
%ADD10C,0.100000*%
G04 APERTURE END LIST*
D10*
G36*
X114045239Y-101840467D02*
G01*
X114359282Y-101902934D01*
X114950926Y-102148001D01*
X115198612Y-102313500D01*
X115470480Y-102495156D01*
X115483392Y-102503784D01*
X115936216Y-102956608D01*
X116291999Y-103489074D01*
X116537066Y-104080718D01*
X116537066Y-104080719D01*
X116662000Y-104708803D01*
X116662000Y-105349197D01*
X116646191Y-105428674D01*
X116537066Y-105977282D01*
X116291999Y-106568926D01*
X115936216Y-107101392D01*
X115483392Y-107554216D01*
X114950926Y-107909999D01*
X114359282Y-108155066D01*
X114045239Y-108217533D01*
X113731197Y-108280000D01*
X113090803Y-108280000D01*
X112776761Y-108217533D01*
X112462718Y-108155066D01*
X111871074Y-107909999D01*
X111338608Y-107554216D01*
X110885784Y-107101392D01*
X110530001Y-106568926D01*
X110284934Y-105977282D01*
X110175809Y-105428674D01*
X110160000Y-105349197D01*
X110160000Y-104708803D01*
X110284934Y-104080719D01*
X110284934Y-104080718D01*
X110530001Y-103489074D01*
X110885784Y-102956608D01*
X111338608Y-102503784D01*
X111351521Y-102495156D01*
X111623388Y-102313500D01*
X111871074Y-102148001D01*
X112462718Y-101902934D01*
X112776761Y-101840467D01*
X113090803Y-101778000D01*
X113731197Y-101778000D01*
X114045239Y-101840467D01*
X114045239Y-101840467D01*
G37*
G36*
X123002345Y-106144442D02*
G01*
X123092548Y-106153326D01*
X123266157Y-106205990D01*
X123426156Y-106291511D01*
X123469729Y-106327271D01*
X123566397Y-106406603D01*
X123645729Y-106503271D01*
X123681489Y-106546844D01*
X123767010Y-106706843D01*
X123819674Y-106880452D01*
X123837456Y-107061000D01*
X123819674Y-107241548D01*
X123767010Y-107415157D01*
X123681489Y-107575156D01*
X123645729Y-107618729D01*
X123566397Y-107715397D01*
X123469729Y-107794729D01*
X123426156Y-107830489D01*
X123266157Y-107916010D01*
X123092548Y-107968674D01*
X123002345Y-107977558D01*
X122957245Y-107982000D01*
X122406755Y-107982000D01*
X122361655Y-107977558D01*
X122271452Y-107968674D01*
X122097843Y-107916010D01*
X121937844Y-107830489D01*
X121894271Y-107794729D01*
X121797603Y-107715397D01*
X121718271Y-107618729D01*
X121682511Y-107575156D01*
X121596990Y-107415157D01*
X121544326Y-107241548D01*
X121526544Y-107061000D01*
X121544326Y-106880452D01*
X121596990Y-106706843D01*
X121682511Y-106546844D01*
X121718271Y-106503271D01*
X121797603Y-106406603D01*
X121894271Y-106327271D01*
X121937844Y-106291511D01*
X122097843Y-106205990D01*
X122271452Y-106153326D01*
X122361655Y-106144442D01*
X122406755Y-106140000D01*
X122957245Y-106140000D01*
X123002345Y-106144442D01*
X123002345Y-106144442D01*
G37*
G36*
X151517604Y-105376347D02*
G01*
X151554144Y-105387432D01*
X151587821Y-105405433D01*
X151617341Y-105429659D01*
X151641567Y-105459179D01*
X151659568Y-105492856D01*
X151670653Y-105529396D01*
X151675000Y-105573538D01*
X151675000Y-106522462D01*
X151670653Y-106566604D01*
X151659568Y-106603144D01*
X151641567Y-106636821D01*
X151617341Y-106666341D01*
X151587821Y-106690567D01*
X151554144Y-106708568D01*
X151517604Y-106719653D01*
X151473462Y-106724000D01*
X150024538Y-106724000D01*
X149980396Y-106719653D01*
X149943856Y-106708568D01*
X149910179Y-106690567D01*
X149880659Y-106666341D01*
X149856433Y-106636821D01*
X149838432Y-106603144D01*
X149827347Y-106566604D01*
X149823000Y-106522462D01*
X149823000Y-105573538D01*
X149827347Y-105529396D01*
X149838432Y-105492856D01*
X149856433Y-105459179D01*
X149880659Y-105429659D01*
X149910179Y-105405433D01*
X149943856Y-105387432D01*
X149980396Y-105376347D01*
X150024538Y-105372000D01*
X151473462Y-105372000D01*
X151517604Y-105376347D01*
X151517604Y-105376347D01*
G37*
G36*
X123002345Y-103604442D02*
G01*
X123092548Y-103613326D01*
X123266157Y-103665990D01*
X123426156Y-103751511D01*
X123469729Y-103787271D01*
X123566397Y-103866603D01*
X123645729Y-103963271D01*
X123681489Y-104006844D01*
X123767010Y-104166843D01*
X123819674Y-104340452D01*
X123837456Y-104521000D01*
X123819674Y-104701548D01*
X123767010Y-104875157D01*
X123681489Y-105035156D01*
X123645729Y-105078729D01*
X123566397Y-105175397D01*
X123469729Y-105254729D01*
X123426156Y-105290489D01*
X123266157Y-105376010D01*
X123092548Y-105428674D01*
X123002345Y-105437558D01*
X122957245Y-105442000D01*
X122406755Y-105442000D01*
X122361655Y-105437558D01*
X122271452Y-105428674D01*
X122097843Y-105376010D01*
X121937844Y-105290489D01*
X121894271Y-105254729D01*
X121797603Y-105175397D01*
X121718271Y-105078729D01*
X121682511Y-105035156D01*
X121596990Y-104875157D01*
X121544326Y-104701548D01*
X121526544Y-104521000D01*
X121544326Y-104340452D01*
X121596990Y-104166843D01*
X121682511Y-104006844D01*
X121718271Y-103963271D01*
X121797603Y-103866603D01*
X121894271Y-103787271D01*
X121937844Y-103751511D01*
X122097843Y-103665990D01*
X122271452Y-103613326D01*
X122361655Y-103604442D01*
X122406755Y-103600000D01*
X122957245Y-103600000D01*
X123002345Y-103604442D01*
X123002345Y-103604442D01*
G37*
G36*
X146479585Y-101776802D02*
G01*
X146629410Y-101806604D01*
X146911674Y-101923521D01*
X147165705Y-102093259D01*
X147381741Y-102309295D01*
X147551479Y-102563326D01*
X147668396Y-102845590D01*
X147668396Y-102845591D01*
X147728000Y-103145239D01*
X147728000Y-103450761D01*
X147698314Y-103600000D01*
X147668396Y-103750410D01*
X147551479Y-104032674D01*
X147381741Y-104286705D01*
X147165705Y-104502741D01*
X146911674Y-104672479D01*
X146629410Y-104789396D01*
X146479585Y-104819198D01*
X146329761Y-104849000D01*
X146024239Y-104849000D01*
X145874415Y-104819198D01*
X145724590Y-104789396D01*
X145442326Y-104672479D01*
X145188295Y-104502741D01*
X144972259Y-104286705D01*
X144802521Y-104032674D01*
X144685604Y-103750410D01*
X144655686Y-103600000D01*
X144626000Y-103450761D01*
X144626000Y-103145239D01*
X144685604Y-102845591D01*
X144685604Y-102845590D01*
X144802521Y-102563326D01*
X144972259Y-102309295D01*
X145188295Y-102093259D01*
X145442326Y-101923521D01*
X145724590Y-101806604D01*
X145874415Y-101776802D01*
X146024239Y-101747000D01*
X146329761Y-101747000D01*
X146479585Y-101776802D01*
X146479585Y-101776802D01*
G37*
G36*
X151517604Y-102576347D02*
G01*
X151554144Y-102587432D01*
X151587821Y-102605433D01*
X151617341Y-102629659D01*
X151641567Y-102659179D01*
X151659568Y-102692856D01*
X151670653Y-102729396D01*
X151675000Y-102773538D01*
X151675000Y-103722462D01*
X151670653Y-103766604D01*
X151659568Y-103803144D01*
X151641567Y-103836821D01*
X151617341Y-103866341D01*
X151587821Y-103890567D01*
X151554144Y-103908568D01*
X151517604Y-103919653D01*
X151473462Y-103924000D01*
X150024538Y-103924000D01*
X149980396Y-103919653D01*
X149943856Y-103908568D01*
X149910179Y-103890567D01*
X149880659Y-103866341D01*
X149856433Y-103836821D01*
X149838432Y-103803144D01*
X149827347Y-103766604D01*
X149823000Y-103722462D01*
X149823000Y-102773538D01*
X149827347Y-102729396D01*
X149838432Y-102692856D01*
X149856433Y-102659179D01*
X149880659Y-102629659D01*
X149910179Y-102605433D01*
X149943856Y-102587432D01*
X149980396Y-102576347D01*
X150024538Y-102572000D01*
X151473462Y-102572000D01*
X151517604Y-102576347D01*
X151517604Y-102576347D01*
G37*
G36*
X123002345Y-101064442D02*
G01*
X123092548Y-101073326D01*
X123266157Y-101125990D01*
X123426156Y-101211511D01*
X123469729Y-101247271D01*
X123566397Y-101326603D01*
X123645729Y-101423271D01*
X123681489Y-101466844D01*
X123767010Y-101626843D01*
X123819674Y-101800452D01*
X123837456Y-101981000D01*
X123819674Y-102161548D01*
X123767010Y-102335157D01*
X123681489Y-102495156D01*
X123645729Y-102538729D01*
X123566397Y-102635397D01*
X123469729Y-102714729D01*
X123426156Y-102750489D01*
X123266157Y-102836010D01*
X123092548Y-102888674D01*
X123002345Y-102897558D01*
X122957245Y-102902000D01*
X122406755Y-102902000D01*
X122361655Y-102897558D01*
X122271452Y-102888674D01*
X122097843Y-102836010D01*
X121937844Y-102750489D01*
X121894271Y-102714729D01*
X121797603Y-102635397D01*
X121718271Y-102538729D01*
X121682511Y-102495156D01*
X121596990Y-102335157D01*
X121544326Y-102161548D01*
X121526544Y-101981000D01*
X121544326Y-101800452D01*
X121596990Y-101626843D01*
X121682511Y-101466844D01*
X121718271Y-101423271D01*
X121797603Y-101326603D01*
X121894271Y-101247271D01*
X121937844Y-101211511D01*
X122097843Y-101125990D01*
X122271452Y-101073326D01*
X122361655Y-101064442D01*
X122406755Y-101060000D01*
X122957245Y-101060000D01*
X123002345Y-101064442D01*
X123002345Y-101064442D01*
G37*
G36*
X138791928Y-102140764D02*
G01*
X138813009Y-102147160D01*
X138832445Y-102157548D01*
X138849476Y-102171524D01*
X138863452Y-102188555D01*
X138873840Y-102207991D01*
X138880236Y-102229072D01*
X138883000Y-102257140D01*
X138883000Y-102720860D01*
X138880236Y-102748928D01*
X138873840Y-102770009D01*
X138863452Y-102789445D01*
X138849476Y-102806476D01*
X138832445Y-102820452D01*
X138813009Y-102830840D01*
X138791928Y-102837236D01*
X138763860Y-102840000D01*
X136950140Y-102840000D01*
X136922072Y-102837236D01*
X136900991Y-102830840D01*
X136881555Y-102820452D01*
X136864524Y-102806476D01*
X136850548Y-102789445D01*
X136840160Y-102770009D01*
X136833764Y-102748928D01*
X136831000Y-102720860D01*
X136831000Y-102257140D01*
X136833764Y-102229072D01*
X136840160Y-102207991D01*
X136850548Y-102188555D01*
X136864524Y-102171524D01*
X136881555Y-102157548D01*
X136900991Y-102147160D01*
X136922072Y-102140764D01*
X136950140Y-102138000D01*
X138763860Y-102138000D01*
X138791928Y-102140764D01*
X138791928Y-102140764D01*
G37*
G36*
X133841928Y-102140764D02*
G01*
X133863009Y-102147160D01*
X133882445Y-102157548D01*
X133899476Y-102171524D01*
X133913452Y-102188555D01*
X133923840Y-102207991D01*
X133930236Y-102229072D01*
X133933000Y-102257140D01*
X133933000Y-102720860D01*
X133930236Y-102748928D01*
X133923840Y-102770009D01*
X133913452Y-102789445D01*
X133899476Y-102806476D01*
X133882445Y-102820452D01*
X133863009Y-102830840D01*
X133841928Y-102837236D01*
X133813860Y-102840000D01*
X132000140Y-102840000D01*
X131972072Y-102837236D01*
X131950991Y-102830840D01*
X131931555Y-102820452D01*
X131914524Y-102806476D01*
X131900548Y-102789445D01*
X131890160Y-102770009D01*
X131883764Y-102748928D01*
X131881000Y-102720860D01*
X131881000Y-102257140D01*
X131883764Y-102229072D01*
X131890160Y-102207991D01*
X131900548Y-102188555D01*
X131914524Y-102171524D01*
X131931555Y-102157548D01*
X131950991Y-102147160D01*
X131972072Y-102140764D01*
X132000140Y-102138000D01*
X133813860Y-102138000D01*
X133841928Y-102140764D01*
X133841928Y-102140764D01*
G37*
G36*
X151517604Y-100420347D02*
G01*
X151554144Y-100431432D01*
X151587821Y-100449433D01*
X151617341Y-100473659D01*
X151641567Y-100503179D01*
X151659568Y-100536856D01*
X151670653Y-100573396D01*
X151675000Y-100617538D01*
X151675000Y-101566462D01*
X151670653Y-101610604D01*
X151659568Y-101647144D01*
X151641567Y-101680821D01*
X151617341Y-101710341D01*
X151587821Y-101734567D01*
X151554144Y-101752568D01*
X151517604Y-101763653D01*
X151473462Y-101768000D01*
X150024538Y-101768000D01*
X149980396Y-101763653D01*
X149943856Y-101752568D01*
X149910179Y-101734567D01*
X149880659Y-101710341D01*
X149856433Y-101680821D01*
X149838432Y-101647144D01*
X149827347Y-101610604D01*
X149823000Y-101566462D01*
X149823000Y-100617538D01*
X149827347Y-100573396D01*
X149838432Y-100536856D01*
X149856433Y-100503179D01*
X149880659Y-100473659D01*
X149910179Y-100449433D01*
X149943856Y-100431432D01*
X149980396Y-100420347D01*
X150024538Y-100416000D01*
X151473462Y-100416000D01*
X151517604Y-100420347D01*
X151517604Y-100420347D01*
G37*
G36*
X133841928Y-100870764D02*
G01*
X133863009Y-100877160D01*
X133882445Y-100887548D01*
X133899476Y-100901524D01*
X133913452Y-100918555D01*
X133923840Y-100937991D01*
X133930236Y-100959072D01*
X133933000Y-100987140D01*
X133933000Y-101450860D01*
X133930236Y-101478928D01*
X133923840Y-101500009D01*
X133913452Y-101519445D01*
X133899476Y-101536476D01*
X133882445Y-101550452D01*
X133863009Y-101560840D01*
X133841928Y-101567236D01*
X133813860Y-101570000D01*
X132000140Y-101570000D01*
X131972072Y-101567236D01*
X131950991Y-101560840D01*
X131931555Y-101550452D01*
X131914524Y-101536476D01*
X131900548Y-101519445D01*
X131890160Y-101500009D01*
X131883764Y-101478928D01*
X131881000Y-101450860D01*
X131881000Y-100987140D01*
X131883764Y-100959072D01*
X131890160Y-100937991D01*
X131900548Y-100918555D01*
X131914524Y-100901524D01*
X131931555Y-100887548D01*
X131950991Y-100877160D01*
X131972072Y-100870764D01*
X132000140Y-100868000D01*
X133813860Y-100868000D01*
X133841928Y-100870764D01*
X133841928Y-100870764D01*
G37*
G36*
X138791928Y-100870764D02*
G01*
X138813009Y-100877160D01*
X138832445Y-100887548D01*
X138849476Y-100901524D01*
X138863452Y-100918555D01*
X138873840Y-100937991D01*
X138880236Y-100959072D01*
X138883000Y-100987140D01*
X138883000Y-101450860D01*
X138880236Y-101478928D01*
X138873840Y-101500009D01*
X138863452Y-101519445D01*
X138849476Y-101536476D01*
X138832445Y-101550452D01*
X138813009Y-101560840D01*
X138791928Y-101567236D01*
X138763860Y-101570000D01*
X136950140Y-101570000D01*
X136922072Y-101567236D01*
X136900991Y-101560840D01*
X136881555Y-101550452D01*
X136864524Y-101536476D01*
X136850548Y-101519445D01*
X136840160Y-101500009D01*
X136833764Y-101478928D01*
X136831000Y-101450860D01*
X136831000Y-100987140D01*
X136833764Y-100959072D01*
X136840160Y-100937991D01*
X136850548Y-100918555D01*
X136864524Y-100901524D01*
X136881555Y-100887548D01*
X136900991Y-100877160D01*
X136922072Y-100870764D01*
X136950140Y-100868000D01*
X138763860Y-100868000D01*
X138791928Y-100870764D01*
X138791928Y-100870764D01*
G37*
G36*
X123691561Y-98523966D02*
G01*
X123724383Y-98533923D01*
X123754632Y-98550092D01*
X123781148Y-98571852D01*
X123802908Y-98598368D01*
X123819077Y-98628617D01*
X123829034Y-98661439D01*
X123833000Y-98701713D01*
X123833000Y-100180287D01*
X123829034Y-100220561D01*
X123819077Y-100253383D01*
X123802908Y-100283632D01*
X123781148Y-100310148D01*
X123754632Y-100331908D01*
X123724383Y-100348077D01*
X123691561Y-100358034D01*
X123651287Y-100362000D01*
X121712713Y-100362000D01*
X121672439Y-100358034D01*
X121639617Y-100348077D01*
X121609368Y-100331908D01*
X121582852Y-100310148D01*
X121561092Y-100283632D01*
X121544923Y-100253383D01*
X121534966Y-100220561D01*
X121531000Y-100180287D01*
X121531000Y-98701713D01*
X121534966Y-98661439D01*
X121544923Y-98628617D01*
X121561092Y-98598368D01*
X121582852Y-98571852D01*
X121609368Y-98550092D01*
X121639617Y-98533923D01*
X121672439Y-98523966D01*
X121712713Y-98520000D01*
X123651287Y-98520000D01*
X123691561Y-98523966D01*
X123691561Y-98523966D01*
G37*
G36*
X138791928Y-99600764D02*
G01*
X138813009Y-99607160D01*
X138832445Y-99617548D01*
X138849476Y-99631524D01*
X138863452Y-99648555D01*
X138873840Y-99667991D01*
X138880236Y-99689072D01*
X138883000Y-99717140D01*
X138883000Y-100180860D01*
X138880236Y-100208928D01*
X138873840Y-100230009D01*
X138863452Y-100249445D01*
X138849476Y-100266476D01*
X138832445Y-100280452D01*
X138813009Y-100290840D01*
X138791928Y-100297236D01*
X138763860Y-100300000D01*
X136950140Y-100300000D01*
X136922072Y-100297236D01*
X136900991Y-100290840D01*
X136881555Y-100280452D01*
X136864524Y-100266476D01*
X136850548Y-100249445D01*
X136840160Y-100230009D01*
X136833764Y-100208928D01*
X136831000Y-100180860D01*
X136831000Y-99717140D01*
X136833764Y-99689072D01*
X136840160Y-99667991D01*
X136850548Y-99648555D01*
X136864524Y-99631524D01*
X136881555Y-99617548D01*
X136900991Y-99607160D01*
X136922072Y-99600764D01*
X136950140Y-99598000D01*
X138763860Y-99598000D01*
X138791928Y-99600764D01*
X138791928Y-99600764D01*
G37*
G36*
X133841928Y-99600764D02*
G01*
X133863009Y-99607160D01*
X133882445Y-99617548D01*
X133899476Y-99631524D01*
X133913452Y-99648555D01*
X133923840Y-99667991D01*
X133930236Y-99689072D01*
X133933000Y-99717140D01*
X133933000Y-100180860D01*
X133930236Y-100208928D01*
X133923840Y-100230009D01*
X133913452Y-100249445D01*
X133899476Y-100266476D01*
X133882445Y-100280452D01*
X133863009Y-100290840D01*
X133841928Y-100297236D01*
X133813860Y-100300000D01*
X132000140Y-100300000D01*
X131972072Y-100297236D01*
X131950991Y-100290840D01*
X131931555Y-100280452D01*
X131914524Y-100266476D01*
X131900548Y-100249445D01*
X131890160Y-100230009D01*
X131883764Y-100208928D01*
X131881000Y-100180860D01*
X131881000Y-99717140D01*
X131883764Y-99689072D01*
X131890160Y-99667991D01*
X131900548Y-99648555D01*
X131914524Y-99631524D01*
X131931555Y-99617548D01*
X131950991Y-99607160D01*
X131972072Y-99600764D01*
X132000140Y-99598000D01*
X133813860Y-99598000D01*
X133841928Y-99600764D01*
X133841928Y-99600764D01*
G37*
G36*
X147728000Y-99849000D02*
G01*
X144626000Y-99849000D01*
X144626000Y-96747000D01*
X147728000Y-96747000D01*
X147728000Y-99849000D01*
X147728000Y-99849000D01*
G37*
G36*
X133841928Y-98330764D02*
G01*
X133863009Y-98337160D01*
X133882445Y-98347548D01*
X133899476Y-98361524D01*
X133913452Y-98378555D01*
X133923840Y-98397991D01*
X133930236Y-98419072D01*
X133933000Y-98447140D01*
X133933000Y-98910860D01*
X133930236Y-98938928D01*
X133923840Y-98960009D01*
X133913452Y-98979445D01*
X133899476Y-98996476D01*
X133882445Y-99010452D01*
X133863009Y-99020840D01*
X133841928Y-99027236D01*
X133813860Y-99030000D01*
X132000140Y-99030000D01*
X131972072Y-99027236D01*
X131950991Y-99020840D01*
X131931555Y-99010452D01*
X131914524Y-98996476D01*
X131900548Y-98979445D01*
X131890160Y-98960009D01*
X131883764Y-98938928D01*
X131881000Y-98910860D01*
X131881000Y-98447140D01*
X131883764Y-98419072D01*
X131890160Y-98397991D01*
X131900548Y-98378555D01*
X131914524Y-98361524D01*
X131931555Y-98347548D01*
X131950991Y-98337160D01*
X131972072Y-98330764D01*
X132000140Y-98328000D01*
X133813860Y-98328000D01*
X133841928Y-98330764D01*
X133841928Y-98330764D01*
G37*
G36*
X138791928Y-98330764D02*
G01*
X138813009Y-98337160D01*
X138832445Y-98347548D01*
X138849476Y-98361524D01*
X138863452Y-98378555D01*
X138873840Y-98397991D01*
X138880236Y-98419072D01*
X138883000Y-98447140D01*
X138883000Y-98910860D01*
X138880236Y-98938928D01*
X138873840Y-98960009D01*
X138863452Y-98979445D01*
X138849476Y-98996476D01*
X138832445Y-99010452D01*
X138813009Y-99020840D01*
X138791928Y-99027236D01*
X138763860Y-99030000D01*
X136950140Y-99030000D01*
X136922072Y-99027236D01*
X136900991Y-99020840D01*
X136881555Y-99010452D01*
X136864524Y-98996476D01*
X136850548Y-98979445D01*
X136840160Y-98960009D01*
X136833764Y-98938928D01*
X136831000Y-98910860D01*
X136831000Y-98447140D01*
X136833764Y-98419072D01*
X136840160Y-98397991D01*
X136850548Y-98378555D01*
X136864524Y-98361524D01*
X136881555Y-98347548D01*
X136900991Y-98337160D01*
X136922072Y-98330764D01*
X136950140Y-98328000D01*
X138763860Y-98328000D01*
X138791928Y-98330764D01*
X138791928Y-98330764D01*
G37*
G36*
X151517604Y-97620347D02*
G01*
X151554144Y-97631432D01*
X151587821Y-97649433D01*
X151617341Y-97673659D01*
X151641567Y-97703179D01*
X151659568Y-97736856D01*
X151670653Y-97773396D01*
X151675000Y-97817538D01*
X151675000Y-98766462D01*
X151670653Y-98810604D01*
X151659568Y-98847144D01*
X151641567Y-98880821D01*
X151617341Y-98910341D01*
X151587821Y-98934567D01*
X151554144Y-98952568D01*
X151517604Y-98963653D01*
X151473462Y-98968000D01*
X150024538Y-98968000D01*
X149980396Y-98963653D01*
X149943856Y-98952568D01*
X149910179Y-98934567D01*
X149880659Y-98910341D01*
X149856433Y-98880821D01*
X149838432Y-98847144D01*
X149827347Y-98810604D01*
X149823000Y-98766462D01*
X149823000Y-97817538D01*
X149827347Y-97773396D01*
X149838432Y-97736856D01*
X149856433Y-97703179D01*
X149880659Y-97673659D01*
X149910179Y-97649433D01*
X149943856Y-97631432D01*
X149980396Y-97620347D01*
X150024538Y-97616000D01*
X151473462Y-97616000D01*
X151517604Y-97620347D01*
X151517604Y-97620347D01*
G37*
G36*
X113840585Y-95299802D02*
G01*
X113990410Y-95329604D01*
X114272674Y-95446521D01*
X114526705Y-95616259D01*
X114742741Y-95832295D01*
X114912479Y-96086326D01*
X115029396Y-96368590D01*
X115089000Y-96668240D01*
X115089000Y-96973760D01*
X115029396Y-97273410D01*
X114912479Y-97555674D01*
X114742741Y-97809705D01*
X114526705Y-98025741D01*
X114272674Y-98195479D01*
X113990410Y-98312396D01*
X113895011Y-98331372D01*
X113690761Y-98372000D01*
X113385239Y-98372000D01*
X113180989Y-98331372D01*
X113085590Y-98312396D01*
X112803326Y-98195479D01*
X112549295Y-98025741D01*
X112333259Y-97809705D01*
X112163521Y-97555674D01*
X112046604Y-97273410D01*
X111987000Y-96973760D01*
X111987000Y-96668240D01*
X112046604Y-96368590D01*
X112163521Y-96086326D01*
X112333259Y-95832295D01*
X112549295Y-95616259D01*
X112803326Y-95446521D01*
X113085590Y-95329604D01*
X113235415Y-95299802D01*
X113385239Y-95270000D01*
X113690761Y-95270000D01*
X113840585Y-95299802D01*
X113840585Y-95299802D01*
G37*
G36*
X133841928Y-97060764D02*
G01*
X133863009Y-97067160D01*
X133882445Y-97077548D01*
X133899476Y-97091524D01*
X133913452Y-97108555D01*
X133923840Y-97127991D01*
X133930236Y-97149072D01*
X133933000Y-97177140D01*
X133933000Y-97640860D01*
X133930236Y-97668928D01*
X133923840Y-97690009D01*
X133913452Y-97709445D01*
X133899476Y-97726476D01*
X133882445Y-97740452D01*
X133863009Y-97750840D01*
X133841928Y-97757236D01*
X133813860Y-97760000D01*
X132000140Y-97760000D01*
X131972072Y-97757236D01*
X131950991Y-97750840D01*
X131931555Y-97740452D01*
X131914524Y-97726476D01*
X131900548Y-97709445D01*
X131890160Y-97690009D01*
X131883764Y-97668928D01*
X131881000Y-97640860D01*
X131881000Y-97177140D01*
X131883764Y-97149072D01*
X131890160Y-97127991D01*
X131900548Y-97108555D01*
X131914524Y-97091524D01*
X131931555Y-97077548D01*
X131950991Y-97067160D01*
X131972072Y-97060764D01*
X132000140Y-97058000D01*
X133813860Y-97058000D01*
X133841928Y-97060764D01*
X133841928Y-97060764D01*
G37*
G36*
X138791928Y-97060764D02*
G01*
X138813009Y-97067160D01*
X138832445Y-97077548D01*
X138849476Y-97091524D01*
X138863452Y-97108555D01*
X138873840Y-97127991D01*
X138880236Y-97149072D01*
X138883000Y-97177140D01*
X138883000Y-97640860D01*
X138880236Y-97668928D01*
X138873840Y-97690009D01*
X138863452Y-97709445D01*
X138849476Y-97726476D01*
X138832445Y-97740452D01*
X138813009Y-97750840D01*
X138791928Y-97757236D01*
X138763860Y-97760000D01*
X136950140Y-97760000D01*
X136922072Y-97757236D01*
X136900991Y-97750840D01*
X136881555Y-97740452D01*
X136864524Y-97726476D01*
X136850548Y-97709445D01*
X136840160Y-97690009D01*
X136833764Y-97668928D01*
X136831000Y-97640860D01*
X136831000Y-97177140D01*
X136833764Y-97149072D01*
X136840160Y-97127991D01*
X136850548Y-97108555D01*
X136864524Y-97091524D01*
X136881555Y-97077548D01*
X136900991Y-97067160D01*
X136922072Y-97060764D01*
X136950140Y-97058000D01*
X138763860Y-97058000D01*
X138791928Y-97060764D01*
X138791928Y-97060764D01*
G37*
G36*
X138791928Y-95790764D02*
G01*
X138813009Y-95797160D01*
X138832445Y-95807548D01*
X138849476Y-95821524D01*
X138863452Y-95838555D01*
X138873840Y-95857991D01*
X138880236Y-95879072D01*
X138883000Y-95907140D01*
X138883000Y-96370860D01*
X138880236Y-96398928D01*
X138873840Y-96420009D01*
X138863452Y-96439445D01*
X138849476Y-96456476D01*
X138832445Y-96470452D01*
X138813009Y-96480840D01*
X138791928Y-96487236D01*
X138763860Y-96490000D01*
X136950140Y-96490000D01*
X136922072Y-96487236D01*
X136900991Y-96480840D01*
X136881555Y-96470452D01*
X136864524Y-96456476D01*
X136850548Y-96439445D01*
X136840160Y-96420009D01*
X136833764Y-96398928D01*
X136831000Y-96370860D01*
X136831000Y-95907140D01*
X136833764Y-95879072D01*
X136840160Y-95857991D01*
X136850548Y-95838555D01*
X136864524Y-95821524D01*
X136881555Y-95807548D01*
X136900991Y-95797160D01*
X136922072Y-95790764D01*
X136950140Y-95788000D01*
X138763860Y-95788000D01*
X138791928Y-95790764D01*
X138791928Y-95790764D01*
G37*
G36*
X133841928Y-95790764D02*
G01*
X133863009Y-95797160D01*
X133882445Y-95807548D01*
X133899476Y-95821524D01*
X133913452Y-95838555D01*
X133923840Y-95857991D01*
X133930236Y-95879072D01*
X133933000Y-95907140D01*
X133933000Y-96370860D01*
X133930236Y-96398928D01*
X133923840Y-96420009D01*
X133913452Y-96439445D01*
X133899476Y-96456476D01*
X133882445Y-96470452D01*
X133863009Y-96480840D01*
X133841928Y-96487236D01*
X133813860Y-96490000D01*
X132000140Y-96490000D01*
X131972072Y-96487236D01*
X131950991Y-96480840D01*
X131931555Y-96470452D01*
X131914524Y-96456476D01*
X131900548Y-96439445D01*
X131890160Y-96420009D01*
X131883764Y-96398928D01*
X131881000Y-96370860D01*
X131881000Y-95907140D01*
X131883764Y-95879072D01*
X131890160Y-95857991D01*
X131900548Y-95838555D01*
X131914524Y-95821524D01*
X131931555Y-95807548D01*
X131950991Y-95797160D01*
X131972072Y-95790764D01*
X132000140Y-95788000D01*
X133813860Y-95788000D01*
X133841928Y-95790764D01*
X133841928Y-95790764D01*
G37*
G36*
X138791928Y-94520764D02*
G01*
X138813009Y-94527160D01*
X138832445Y-94537548D01*
X138849476Y-94551524D01*
X138863452Y-94568555D01*
X138873840Y-94587991D01*
X138880236Y-94609072D01*
X138883000Y-94637140D01*
X138883000Y-95100860D01*
X138880236Y-95128928D01*
X138873840Y-95150009D01*
X138863452Y-95169445D01*
X138849476Y-95186476D01*
X138832445Y-95200452D01*
X138813009Y-95210840D01*
X138791928Y-95217236D01*
X138763860Y-95220000D01*
X136950140Y-95220000D01*
X136922072Y-95217236D01*
X136900991Y-95210840D01*
X136881555Y-95200452D01*
X136864524Y-95186476D01*
X136850548Y-95169445D01*
X136840160Y-95150009D01*
X136833764Y-95128928D01*
X136831000Y-95100860D01*
X136831000Y-94637140D01*
X136833764Y-94609072D01*
X136840160Y-94587991D01*
X136850548Y-94568555D01*
X136864524Y-94551524D01*
X136881555Y-94537548D01*
X136900991Y-94527160D01*
X136922072Y-94520764D01*
X136950140Y-94518000D01*
X138763860Y-94518000D01*
X138791928Y-94520764D01*
X138791928Y-94520764D01*
G37*
G36*
X133841928Y-94520764D02*
G01*
X133863009Y-94527160D01*
X133882445Y-94537548D01*
X133899476Y-94551524D01*
X133913452Y-94568555D01*
X133923840Y-94587991D01*
X133930236Y-94609072D01*
X133933000Y-94637140D01*
X133933000Y-95100860D01*
X133930236Y-95128928D01*
X133923840Y-95150009D01*
X133913452Y-95169445D01*
X133899476Y-95186476D01*
X133882445Y-95200452D01*
X133863009Y-95210840D01*
X133841928Y-95217236D01*
X133813860Y-95220000D01*
X132000140Y-95220000D01*
X131972072Y-95217236D01*
X131950991Y-95210840D01*
X131931555Y-95200452D01*
X131914524Y-95186476D01*
X131900548Y-95169445D01*
X131890160Y-95150009D01*
X131883764Y-95128928D01*
X131881000Y-95100860D01*
X131881000Y-94637140D01*
X131883764Y-94609072D01*
X131890160Y-94587991D01*
X131900548Y-94568555D01*
X131914524Y-94551524D01*
X131931555Y-94537548D01*
X131950991Y-94527160D01*
X131972072Y-94520764D01*
X132000140Y-94518000D01*
X133813860Y-94518000D01*
X133841928Y-94520764D01*
X133841928Y-94520764D01*
G37*
G36*
X149097239Y-88505467D02*
G01*
X149411282Y-88567934D01*
X150002926Y-88813001D01*
X150535392Y-89168784D01*
X150988216Y-89621608D01*
X151343999Y-90154074D01*
X151559936Y-90675392D01*
X151589066Y-90745719D01*
X151700344Y-91305148D01*
X151714000Y-91373804D01*
X151714000Y-92014196D01*
X151589066Y-92642282D01*
X151343999Y-93233926D01*
X150988216Y-93766392D01*
X150535392Y-94219216D01*
X150002926Y-94574999D01*
X149411282Y-94820066D01*
X149163791Y-94869295D01*
X148783197Y-94945000D01*
X148142803Y-94945000D01*
X147762209Y-94869295D01*
X147514718Y-94820066D01*
X146923074Y-94574999D01*
X146390608Y-94219216D01*
X145937784Y-93766392D01*
X145582001Y-93233926D01*
X145336934Y-92642282D01*
X145212000Y-92014196D01*
X145212000Y-91373804D01*
X145225657Y-91305148D01*
X145336934Y-90745719D01*
X145366064Y-90675392D01*
X145582001Y-90154074D01*
X145937784Y-89621608D01*
X146390608Y-89168784D01*
X146923074Y-88813001D01*
X147514718Y-88567934D01*
X147828761Y-88505467D01*
X148142803Y-88443000D01*
X148783197Y-88443000D01*
X149097239Y-88505467D01*
X149097239Y-88505467D01*
G37*
G36*
X123184228Y-93232703D02*
G01*
X123339100Y-93296853D01*
X123478481Y-93389985D01*
X123597015Y-93508519D01*
X123690147Y-93647900D01*
X123754297Y-93802772D01*
X123787000Y-93967184D01*
X123787000Y-94134816D01*
X123754297Y-94299228D01*
X123690147Y-94454100D01*
X123597015Y-94593481D01*
X123478481Y-94712015D01*
X123339100Y-94805147D01*
X123184228Y-94869297D01*
X123019816Y-94902000D01*
X122852184Y-94902000D01*
X122687772Y-94869297D01*
X122532900Y-94805147D01*
X122393519Y-94712015D01*
X122274985Y-94593481D01*
X122181853Y-94454100D01*
X122117703Y-94299228D01*
X122085000Y-94134816D01*
X122085000Y-93967184D01*
X122117703Y-93802772D01*
X122181853Y-93647900D01*
X122274985Y-93508519D01*
X122393519Y-93389985D01*
X122532900Y-93296853D01*
X122687772Y-93232703D01*
X122852184Y-93200000D01*
X123019816Y-93200000D01*
X123184228Y-93232703D01*
X123184228Y-93232703D01*
G37*
G36*
X133841928Y-93250764D02*
G01*
X133863009Y-93257160D01*
X133882445Y-93267548D01*
X133899476Y-93281524D01*
X133913452Y-93298555D01*
X133923840Y-93317991D01*
X133930236Y-93339072D01*
X133933000Y-93367140D01*
X133933000Y-93830860D01*
X133930236Y-93858928D01*
X133923840Y-93880009D01*
X133913452Y-93899445D01*
X133899476Y-93916476D01*
X133882445Y-93930452D01*
X133863009Y-93940840D01*
X133841928Y-93947236D01*
X133813860Y-93950000D01*
X132000140Y-93950000D01*
X131972072Y-93947236D01*
X131950991Y-93940840D01*
X131931555Y-93930452D01*
X131914524Y-93916476D01*
X131900548Y-93899445D01*
X131890160Y-93880009D01*
X131883764Y-93858928D01*
X131881000Y-93830860D01*
X131881000Y-93367140D01*
X131883764Y-93339072D01*
X131890160Y-93317991D01*
X131900548Y-93298555D01*
X131914524Y-93281524D01*
X131931555Y-93267548D01*
X131950991Y-93257160D01*
X131972072Y-93250764D01*
X132000140Y-93248000D01*
X133813860Y-93248000D01*
X133841928Y-93250764D01*
X133841928Y-93250764D01*
G37*
G36*
X138791928Y-93250764D02*
G01*
X138813009Y-93257160D01*
X138832445Y-93267548D01*
X138849476Y-93281524D01*
X138863452Y-93298555D01*
X138873840Y-93317991D01*
X138880236Y-93339072D01*
X138883000Y-93367140D01*
X138883000Y-93830860D01*
X138880236Y-93858928D01*
X138873840Y-93880009D01*
X138863452Y-93899445D01*
X138849476Y-93916476D01*
X138832445Y-93930452D01*
X138813009Y-93940840D01*
X138791928Y-93947236D01*
X138763860Y-93950000D01*
X136950140Y-93950000D01*
X136922072Y-93947236D01*
X136900991Y-93940840D01*
X136881555Y-93930452D01*
X136864524Y-93916476D01*
X136850548Y-93899445D01*
X136840160Y-93880009D01*
X136833764Y-93858928D01*
X136831000Y-93830860D01*
X136831000Y-93367140D01*
X136833764Y-93339072D01*
X136840160Y-93317991D01*
X136850548Y-93298555D01*
X136864524Y-93281524D01*
X136881555Y-93267548D01*
X136900991Y-93257160D01*
X136922072Y-93250764D01*
X136950140Y-93248000D01*
X138763860Y-93248000D01*
X138791928Y-93250764D01*
X138791928Y-93250764D01*
G37*
G36*
X115089000Y-93372000D02*
G01*
X111987000Y-93372000D01*
X111987000Y-90270000D01*
X115089000Y-90270000D01*
X115089000Y-93372000D01*
X115089000Y-93372000D01*
G37*
G36*
X143870642Y-90415781D02*
G01*
X144016414Y-90476162D01*
X144016416Y-90476163D01*
X144147608Y-90563822D01*
X144259178Y-90675392D01*
X144346837Y-90806584D01*
X144346838Y-90806586D01*
X144407219Y-90952358D01*
X144438000Y-91107107D01*
X144438000Y-91264893D01*
X144407219Y-91419642D01*
X144346838Y-91565414D01*
X144346837Y-91565416D01*
X144259178Y-91696608D01*
X144147608Y-91808178D01*
X144016416Y-91895837D01*
X144016415Y-91895838D01*
X144016414Y-91895838D01*
X143870642Y-91956219D01*
X143715893Y-91987000D01*
X143558107Y-91987000D01*
X143403358Y-91956219D01*
X143257586Y-91895838D01*
X143257585Y-91895838D01*
X143257584Y-91895837D01*
X143126392Y-91808178D01*
X143014822Y-91696608D01*
X142927163Y-91565416D01*
X142927162Y-91565414D01*
X142866781Y-91419642D01*
X142836000Y-91264893D01*
X142836000Y-91107107D01*
X142866781Y-90952358D01*
X142927162Y-90806586D01*
X142927163Y-90806584D01*
X143014822Y-90675392D01*
X143126392Y-90563822D01*
X143257584Y-90476163D01*
X143257586Y-90476162D01*
X143403358Y-90415781D01*
X143558107Y-90385000D01*
X143715893Y-90385000D01*
X143870642Y-90415781D01*
X143870642Y-90415781D01*
G37*
G36*
X123184228Y-89732703D02*
G01*
X123339100Y-89796853D01*
X123478481Y-89889985D01*
X123597015Y-90008519D01*
X123690147Y-90147900D01*
X123754297Y-90302772D01*
X123787000Y-90467184D01*
X123787000Y-90634816D01*
X123754297Y-90799228D01*
X123690147Y-90954100D01*
X123597015Y-91093481D01*
X123478481Y-91212015D01*
X123339100Y-91305147D01*
X123184228Y-91369297D01*
X123019816Y-91402000D01*
X122852184Y-91402000D01*
X122687772Y-91369297D01*
X122532900Y-91305147D01*
X122393519Y-91212015D01*
X122274985Y-91093481D01*
X122181853Y-90954100D01*
X122117703Y-90799228D01*
X122085000Y-90634816D01*
X122085000Y-90467184D01*
X122117703Y-90302772D01*
X122181853Y-90147900D01*
X122274985Y-90008519D01*
X122393519Y-89889985D01*
X122532900Y-89796853D01*
X122687772Y-89732703D01*
X122852184Y-89700000D01*
X123019816Y-89700000D01*
X123184228Y-89732703D01*
X123184228Y-89732703D01*
G37*
M02*
